<?xml version="1.0" encoding="utf-8" standalone="no"?>
<!DOCTYPE svg PUBLIC "-//W3C//DTD SVG 1.1//EN"
  "http://www.w3.org/Graphics/SVG/1.1/DTD/svg11.dtd">
<!-- Created with matplotlib (https://matplotlib.org/) -->
<svg height="152.15466pt" version="1.1" viewBox="0 0 250.870154 152.15466" width="250.870154pt" xmlns="http://www.w3.org/2000/svg" xmlns:xlink="http://www.w3.org/1999/xlink">
 <defs>
  <style type="text/css">
*{stroke-linecap:butt;stroke-linejoin:round;}
  </style>
 </defs>
 <g id="figure_1">
  <g id="patch_1">
   <path d="M 0 152.15466 
L 250.870154 152.15466 
L 250.870154 0 
L 0 0 
z
" style="fill:none;"/>
  </g>
  <g id="axes_1">
   <g id="patch_2">
    <path d="M 14.4 129.6 
L 114.092308 129.6 
L 114.092308 0 
L 14.4 0 
z
" style="fill:none;"/>
   </g>
   <g id="line2d_1">
    <path clip-path="url(#pcb91d492d7)" d="M 64.246154 101.116484 
L 78.393157 31.327127 
" style="fill:none;stroke:#000000;stroke-linecap:square;stroke-width:3;"/>
   </g>
   <g id="patch_3">
    <path clip-path="url(#pcb91d492d7)" d="M 78.393157 42.008446 
C 81.225876 42.008446 83.942955 40.882995 85.94599 38.87996 
C 87.949024 36.876925 89.074475 34.159846 89.074475 31.327127 
C 89.074475 28.494408 87.949024 25.777329 85.94599 23.774294 
C 83.942955 21.77126 81.225876 20.645809 78.393157 20.645809 
C 75.560438 20.645809 72.843359 21.77126 70.840324 23.774294 
C 68.837289 25.777329 67.711838 28.494408 67.711838 31.327127 
C 67.711838 34.159846 68.837289 36.876925 70.840324 38.87996 
C 72.843359 40.882995 75.560438 42.008446 78.393157 42.008446 
z
" style="stroke:#000000;stroke-linejoin:miter;"/>
   </g>
   <g id="patch_4">
    <path clip-path="url(#pcb91d492d7)" d="M -63.92967 -27.059341 
L 26.367608 -27.059341 
L 64.246154 101.116484 
L 102.1247 -27.059341 
L 192.421978 -27.059341 
L 192.421978 229.292308 
L -63.92967 229.292308 
z
" style="fill:#ece7f2;opacity:0.8;stroke:#000000;stroke-linejoin:miter;"/>
   </g>
   <g id="matplotlib.axis_1">
    <g id="xtick_1"/>
    <g id="xtick_2"/>
    <g id="xtick_3"/>
   </g>
   <g id="matplotlib.axis_2">
    <g id="ytick_1"/>
    <g id="ytick_2"/>
    <g id="ytick_3"/>
    <g id="ytick_4"/>
    <g id="ytick_5"/>
    <g id="ytick_6"/>
    <g id="ytick_7"/>
   </g>
   <g id="patch_5">
    <path clip-path="url(#pcb91d492d7)" d="M 80.302041 82.054263 
L 75.714645 87.500612 
L 72.561994 80.190041 
z
" style="stroke:#000000;stroke-linejoin:miter;"/>
   </g>
   <g id="patch_6">
    <path clip-path="url(#pcb91d492d7)" d="M 55.604786 107.394805 
L 61.365698 103.209257 
L 62.670789 111.062943 
z
" style="fill:#ff0000;stroke:#ff0000;stroke-linejoin:miter;"/>
   </g>
   <g id="patch_7">
    <path clip-path="url(#pcb91d492d7)" d="M 46.491665 13.530841 
L 47.199015 17.020309 
L 43.355872 15.982925 
z
" style="stroke:#000000;stroke-linejoin:miter;"/>
   </g>
   <g id="patch_8">
    <path clip-path="url(#pcb91d492d7)" d="M 81.293292 17.020309 
L 82.000642 13.530841 
L 85.136435 15.982925 
z
" style="stroke:#000000;stroke-linejoin:miter;"/>
   </g>
   <g id="line2d_2">
    <path clip-path="url(#pcb91d492d7)" d="M 64.246154 122.479121 
L 64.767691 122.472754 
L 65.288916 122.453656 
L 65.809521 122.421839 
L 66.329193 122.377321 
L 66.847624 122.32013 
L 67.364504 122.250299 
L 67.879525 122.16787 
L 68.39238 122.072893 
L 68.902763 121.965423 
L 69.410371 121.845524 
L 69.9149 121.713269 
L 70.41605 121.568737 
L 70.913522 121.412012 
L 71.40702 121.243189 
L 71.896249 121.062368 
L 72.380918 120.869658 
L 72.860737 120.665172 
L 73.335422 120.449033 
L 73.804688 120.22137 
L 74.268256 119.982319 
L 74.72585 119.732021 
L 75.177197 119.470627 
L 75.622028 119.198291 
L 76.060077 118.915177 
L 76.491084 118.621453 
L 76.914792 118.317294 
L 77.330948 118.002881 
L 77.739305 117.678402 
L 78.139617 117.344051 
L 78.531648 117.000026 
L 78.915163 116.646533 
L 79.289934 116.283783 
L 79.655737 115.911991 
L 80.012354 115.531379 
L 80.359573 115.142174 
L 80.697186 114.744609 
L 81.024993 114.33892 
L 81.342798 113.925348 
L 81.650412 113.504142 
L 81.947651 113.075551 
L 82.234337 112.639831 
L 82.510301 112.197242 
L 82.775377 111.748047 
L 83.029408 111.292515 
L 83.272243 110.830917 
L 83.503735 110.363528 
L 83.723748 109.890627 
L 83.93215 109.412496 
L 84.128817 108.929419 
L 84.313632 108.441685 
L 84.486485 107.949584 
L 84.647272 107.45341 
L 84.795898 106.953459 
L 84.932274 106.450028 
L 85.056319 105.943418 
L 85.167959 105.43393 
L 85.267127 104.921869 
L 85.353765 104.407539 
L 85.42782 103.891247 
L 85.489248 103.373302 
L 85.538013 102.854011 
L 85.574086 102.333684 
L 85.597445 101.812632 
L 85.608077 101.291164 
L 85.605975 100.769593 
L 85.591139 100.248228 
L 85.56358 99.727381 
L 85.523314 99.207362 
L 85.470364 98.688482 
L 85.404762 98.171048 
L 85.326547 97.65537 
L 85.235766 97.141756 
L 85.132473 96.63051 
L 85.016729 96.121939 
L 84.888604 95.616345 
L 84.748174 95.11403 
L 84.595522 94.615293 
L 84.43074 94.120432 
L 84.253926 93.62974 
L 84.065185 93.143512 
L 83.86463 92.662037 
L 83.65238 92.185601 
L 83.428562 91.714489 
L 83.193309 91.248981 
L 82.946761 90.789356 
L 82.689066 90.335887 
L 82.420377 89.888844 
L 82.140854 89.448494 
L 81.850664 89.015099 
L 81.54998 88.588918 
L 81.23898 88.170205 
L 80.917852 87.75921 
L 80.586785 87.356176 
L 80.245977 86.961346 
L 79.895632 86.574953 
L 79.535958 86.197229 
L 79.167169 85.828398 
L 78.789486 85.46868 
L 78.403134 85.11829 
L 78.008343 84.777437 
" style="fill:none;stroke:#000000;stroke-linecap:square;stroke-width:1.5;"/>
   </g>
   <g id="line2d_3">
    <path clip-path="url(#pcb91d492d7)" d="M 64.246154 126.03956 
L 64.246154 118.918681 
" style="fill:none;stroke:#000000;stroke-linecap:square;stroke-width:1.5;"/>
   </g>
   <g id="line2d_4">
    <path clip-path="url(#pcb91d492d7)" d="M 71.367033 101.116484 
L 71.361973 100.848096 
L 71.346802 100.58009 
L 71.32154 100.312847 
L 71.286223 100.046745 
L 71.240903 99.782164 
L 71.185642 99.519479 
L 71.12052 99.259063 
L 71.045629 99.001286 
L 70.961075 98.746516 
L 70.86698 98.495113 
L 70.763476 98.247435 
L 70.65071 98.003835 
L 70.528843 97.764658 
L 70.398048 97.530244 
L 70.258511 97.300926 
L 70.11043 97.07703 
L 69.954015 96.858874 
L 69.78949 96.646769 
L 69.617087 96.441016 
L 69.437051 96.241906 
L 69.249639 96.049724 
L 69.055117 95.864742 
L 68.853761 95.687223 
L 68.645857 95.517419 
L 68.431702 95.355571 
L 68.211598 95.201911 
L 67.985859 95.056655 
L 67.754806 94.92001 
L 67.518766 94.792171 
L 67.278077 94.673319 
L 67.033078 94.563624 
L 66.78412 94.46324 
L 66.531554 94.372311 
L 66.275742 94.290966 
L 66.017044 94.21932 
L 65.755831 94.157475 
L 65.492472 94.10552 
L 65.227342 94.063527 
L 64.960817 94.031558 
L 64.693278 94.009656 
L 64.425102 93.997853 
L 64.156673 93.996167 
L 63.88837 94.004598 
L 63.620576 94.023136 
L 63.353671 94.051755 
L 63.088034 94.090412 
L 62.824043 94.139054 
L 62.562073 94.197611 
L 62.302496 94.266001 
L 62.045681 94.344125 
L 61.791993 94.431873 
L 61.541793 94.529121 
L 61.295435 94.635729 
L 61.053271 94.751547 
L 60.815644 94.87641 
L 60.582892 95.01014 
L 60.355346 95.152548 
L 60.133328 95.30343 
L 59.917156 95.462574 
L 59.707135 95.629752 
L 59.503564 95.804727 
L 59.306733 95.98725 
L 59.11692 96.177062 
L 58.934397 96.373894 
L 58.759422 96.577464 
L 58.592244 96.787485 
L 58.433101 97.003658 
L 58.282218 97.225675 
L 58.13981 97.453222 
L 58.00608 97.685974 
L 57.881217 97.923601 
L 57.765399 98.165765 
L 57.658791 98.412122 
L 57.561544 98.662323 
L 57.473795 98.916011 
L 57.395671 99.172826 
L 57.327282 99.432403 
L 57.268724 99.694373 
L 57.220083 99.958364 
L 57.181425 100.224001 
L 57.152807 100.490906 
L 57.134269 100.7587 
L 57.125837 101.027002 
L 57.127524 101.295432 
L 57.139326 101.563607 
L 57.161228 101.831147 
L 57.193198 102.097672 
L 57.23519 102.362802 
L 57.287146 102.626161 
L 57.34899 102.887374 
L 57.420636 103.146071 
L 57.501981 103.401884 
L 57.59291 103.654449 
L 57.693294 103.903408 
L 57.80299 104.148406 
L 57.921842 104.389096 
L 58.049681 104.625135 
L 58.186325 104.856189 
L 58.331581 105.081927 
L 58.485242 105.302031 
" style="fill:none;stroke:#ff0000;stroke-linecap:square;stroke-width:1.5;"/>
   </g>
   <g id="line2d_5">
    <path clip-path="url(#pcb91d492d7)" d="M 81.646967 15.275575 
L 81.303465 15.206659 
L 80.959691 15.139117 
L 80.615648 15.072951 
L 80.271344 15.008162 
L 79.926784 14.94475 
L 79.581972 14.882717 
L 79.236915 14.822064 
L 78.891619 14.762791 
L 78.546088 14.7049 
L 78.200328 14.648392 
L 77.854345 14.593267 
L 77.508144 14.539527 
L 77.161731 14.487171 
L 76.815111 14.436202 
L 76.468291 14.38662 
L 76.121274 14.338425 
L 75.774068 14.291619 
L 75.426677 14.246202 
L 75.079108 14.202175 
L 74.731365 14.159539 
L 74.383454 14.118294 
L 74.035381 14.078441 
L 73.687151 14.03998 
L 73.338771 14.002913 
L 72.990245 13.96724 
L 72.641579 13.93296 
L 72.292778 13.900076 
L 71.943849 13.868588 
L 71.594797 13.838495 
L 71.245627 13.809799 
L 70.896345 13.782499 
L 70.546957 13.756597 
L 70.197468 13.732093 
L 69.847884 13.708987 
L 69.49821 13.687279 
L 69.148452 13.666971 
L 68.798616 13.648061 
L 68.448707 13.630551 
L 68.09873 13.614441 
L 67.748692 13.59973 
L 67.398598 13.58642 
L 67.048454 13.574511 
L 66.698264 13.564002 
L 66.348036 13.554894 
L 65.997773 13.547187 
L 65.647483 13.540881 
L 65.29717 13.535977 
L 64.946841 13.532473 
L 64.5965 13.530371 
L 64.246154 13.52967 
L 63.895808 13.530371 
L 63.545467 13.532473 
L 63.195137 13.535977 
L 62.844825 13.540881 
L 62.494534 13.547187 
L 62.144272 13.554894 
L 61.794044 13.564002 
L 61.443854 13.574511 
L 61.09371 13.58642 
L 60.743616 13.59973 
L 60.393577 13.614441 
L 60.043601 13.630551 
L 59.693692 13.648061 
L 59.343856 13.666971 
L 58.994098 13.687279 
L 58.644424 13.708987 
L 58.29484 13.732093 
L 57.94535 13.756597 
L 57.595962 13.782499 
L 57.24668 13.809799 
L 56.897511 13.838495 
L 56.548458 13.868588 
L 56.199529 13.900076 
L 55.850729 13.93296 
L 55.502063 13.96724 
L 55.153537 14.002913 
L 54.805156 14.03998 
L 54.456927 14.078441 
L 54.108854 14.118294 
L 53.760943 14.159539 
L 53.4132 14.202175 
L 53.06563 14.246202 
L 52.71824 14.291619 
L 52.371033 14.338425 
L 52.024017 14.38662 
L 51.677196 14.436202 
L 51.330577 14.487171 
L 50.984164 14.539527 
L 50.637963 14.593267 
L 50.29198 14.648392 
L 49.94622 14.7049 
L 49.600689 14.762791 
L 49.255392 14.822064 
L 48.910336 14.882717 
L 48.565524 14.94475 
L 48.220963 15.008162 
L 47.876659 15.072951 
L 47.532617 15.139117 
L 47.188842 15.206659 
L 46.84534 15.275575 
" style="fill:none;stroke:#000000;stroke-linecap:square;stroke-width:1.5;"/>
   </g>
   <g id="line2d_6">
    <path clip-path="url(#pcb91d492d7)" d="M 70.157676 20.386135 
L 69.986729 20.512398 
L 69.817786 20.641331 
L 69.65089 20.772902 
L 69.48608 20.907078 
L 69.323399 21.043826 
L 69.162885 21.183113 
L 69.004579 21.324903 
L 68.84852 21.469163 
L 68.694746 21.615856 
L 68.543295 21.764946 
L 68.394205 21.916397 
L 68.247511 22.070171 
L 68.103252 22.226231 
L 67.961461 22.384537 
L 67.822175 22.54505 
L 67.685427 22.707732 
L 67.551251 22.872541 
L 67.41968 23.039438 
L 67.290747 23.20838 
L 67.164483 23.379327 
L 67.040921 23.552237 
L 66.920089 23.727065 
L 66.802019 23.90377 
L 66.686738 24.082308 
L 66.574276 24.262635 
L 66.464661 24.444706 
L 66.357919 24.628476 
L 66.254076 24.8139 
L 66.153159 25.000932 
L 66.055192 25.189526 
L 65.9602 25.379636 
L 65.868205 25.571215 
L 65.779231 25.764215 
L 65.693299 25.958588 
L 65.610431 26.154287 
L 65.530647 26.351264 
L 65.453967 26.54947 
L 65.38041 26.748856 
L 65.309994 26.949372 
L 65.242736 27.15097 
L 65.178652 27.353599 
L 65.11776 27.55721 
L 65.060073 27.761753 
L 65.005606 27.967176 
L 64.954372 28.173429 
L 64.906385 28.380462 
L 64.861655 28.588223 
L 64.820194 28.796661 
L 64.782012 29.005724 
L 64.747119 29.215361 
L 64.715523 29.425521 
L 64.687232 29.636151 
L 64.662253 29.847199 
L 64.640592 30.058614 
L 64.622254 30.270342 
L 64.607244 30.482333 
L 64.595566 30.694533 
L 64.587222 30.906891 
L 64.582215 31.119353 
L 64.580546 31.331868 
L 64.582215 31.544383 
L 64.587222 31.756845 
L 64.595566 31.969203 
L 64.607244 32.181403 
L 64.622254 32.393394 
L 64.640592 32.605123 
L 64.662253 32.816537 
L 64.687232 33.027585 
L 64.715523 33.238215 
L 64.747119 33.448375 
L 64.782012 33.658012 
L 64.820194 33.867076 
L 64.861655 34.075513 
L 64.906385 34.283274 
L 64.954372 34.490307 
L 65.005606 34.69656 
L 65.060073 34.901984 
L 65.11776 35.106526 
L 65.178652 35.310137 
L 65.242736 35.512766 
L 65.309994 35.714364 
L 65.38041 35.914881 
L 65.453967 36.114266 
L 65.530647 36.312472 
L 65.610431 36.509449 
L 65.693299 36.705148 
L 65.779231 36.899522 
L 65.868205 37.092522 
L 65.9602 37.2841 
L 66.055192 37.47421 
L 66.153159 37.662804 
L 66.254076 37.849837 
L 66.357919 38.035261 
L 66.464661 38.219031 
L 66.574276 38.401101 
L 66.686738 38.581428 
L 66.802019 38.759966 
L 66.920089 38.936671 
L 67.040921 39.1115 
L 67.164483 39.284409 
" style="fill:none;stroke:#000000;stroke-linecap:square;stroke-width:0.5;"/>
   </g>
   <g id="line2d_7">
    <path clip-path="url(#pcb91d492d7)" d="M 68.483457 18.08177 
L 68.276521 18.234615 
L 68.072011 18.390692 
L 67.869979 18.549962 
L 67.670473 18.712385 
L 67.473542 18.877923 
L 67.279236 19.046533 
L 67.087603 19.218174 
L 66.898689 19.392804 
L 66.712542 19.57038 
L 66.529206 19.750858 
L 66.348728 19.934193 
L 66.171152 20.120341 
L 65.996522 20.309254 
L 65.824881 20.500888 
L 65.656271 20.695194 
L 65.490734 20.892124 
L 65.32831 21.09163 
L 65.169041 21.293663 
L 65.012964 21.498172 
L 64.860119 21.705108 
L 64.710543 21.914419 
L 64.564273 22.126054 
L 64.421345 22.33996 
L 64.281795 22.556085 
L 64.145657 22.774375 
L 64.012965 22.994777 
L 63.883751 23.217235 
L 63.758047 23.441696 
L 63.635884 23.668103 
L 63.517292 23.896402 
L 63.402301 24.126535 
L 63.290939 24.358446 
L 63.183234 24.592077 
L 63.079211 24.827371 
L 62.978897 25.06427 
L 62.882317 25.302716 
L 62.789494 25.542649 
L 62.700451 25.784011 
L 62.61521 26.026742 
L 62.533792 26.270781 
L 62.456218 26.516069 
L 62.382506 26.762546 
L 62.312674 27.01015 
L 62.24674 27.25882 
L 62.184721 27.508495 
L 62.126631 27.759113 
L 62.072484 28.010613 
L 62.022295 28.262933 
L 61.976074 28.51601 
L 61.933835 28.769781 
L 61.895587 29.024185 
L 61.86134 29.279158 
L 61.831102 29.534637 
L 61.804881 29.79056 
L 61.782683 30.046863 
L 61.764513 30.303484 
L 61.750376 30.560358 
L 61.740276 30.817422 
L 61.734215 31.074613 
L 61.732195 31.331868 
L 61.734215 31.589123 
L 61.740276 31.846314 
L 61.750376 32.103379 
L 61.764513 32.360253 
L 61.782683 32.616873 
L 61.804881 32.873176 
L 61.831102 33.129099 
L 61.86134 33.384579 
L 61.895587 33.639552 
L 61.933835 33.893955 
L 61.976074 34.147727 
L 62.022295 34.400803 
L 62.072484 34.653123 
L 62.126631 34.904623 
L 62.184721 35.155241 
L 62.24674 35.404917 
L 62.312674 35.653587 
L 62.382506 35.901191 
L 62.456218 36.147667 
L 62.533792 36.392955 
L 62.61521 36.636995 
L 62.700451 36.879725 
L 62.789494 37.121087 
L 62.882317 37.36102 
L 62.978897 37.599466 
L 63.079211 37.836365 
L 63.183234 38.071659 
L 63.290939 38.305291 
L 63.402301 38.537202 
L 63.517292 38.767335 
L 63.635884 38.995633 
L 63.758047 39.22204 
L 63.883751 39.446501 
L 64.012965 39.66896 
L 64.145657 39.889361 
L 64.281795 40.107651 
L 64.421345 40.323776 
L 64.564273 40.537682 
L 64.710543 40.749317 
L 64.860119 40.958628 
" style="fill:none;stroke:#000000;stroke-linecap:square;stroke-width:0.5;"/>
   </g>
   <g id="patch_9">
    <path d="M 14.4 129.6 
L 14.4 0 
" style="fill:none;stroke:#000000;stroke-linecap:square;stroke-linejoin:miter;stroke-width:0.5;"/>
   </g>
   <g id="patch_10">
    <path d="M 114.092308 129.6 
L 114.092308 0 
" style="fill:none;stroke:#000000;stroke-linecap:square;stroke-linejoin:miter;stroke-width:0.5;"/>
   </g>
   <g id="patch_11">
    <path d="M 14.4 129.6 
L 114.092308 129.6 
" style="fill:none;stroke:#000000;stroke-linecap:square;stroke-linejoin:miter;stroke-width:0.5;"/>
   </g>
   <g id="patch_12">
    <path d="M 14.4 0 
L 114.092308 0 
" style="fill:none;stroke:#000000;stroke-linecap:square;stroke-linejoin:miter;stroke-width:0.5;"/>
   </g>
   <g id="text_1">
    <!-- $\theta$ -->
    <defs>
     <path d="M 44.296875 50 
C 44.296875 60.140625 41.09375 70 32.90625 70 
C 18.90625 70 4 40.859375 4 18.984375 
C 4 14.40625 5 -1 15.5 -1 
C 29.09375 -1 44.296875 27.421875 44.296875 50 
z
M 14 36 
C 15.5 41.859375 17.59375 50.203125 21.59375 57.265625 
C 24.90625 63.21875 28.40625 67.984375 32.796875 67.984375 
C 36.09375 67.984375 38.296875 65.203125 38.296875 55.671875 
C 38.296875 52.09375 38 47.125 35.09375 36 
z
M 34.40625 33 
C 31.90625 23.25 29.796875 17 26.203125 10.734375 
C 23.296875 5.65625 19.796875 1 15.59375 1 
C 12.5 1 10 3.375 10 13.21875 
C 10 19.671875 11.59375 26.4375 13.203125 33 
z
" id="CMMI12-18"/>
    </defs>
    <g transform="translate(85.608791 122.479121)scale(0.16 -0.16)">
     <use transform="scale(0.996264)" xlink:href="#CMMI12-18"/>
    </g>
   </g>
   <g id="text_2">
    <!-- u -->
    <defs>
     <path d="M 29.40625 42.890625 
L 29.40625 40.296875 
C 35.296875 40.296875 36.203125 39.6875 36.203125 34.828125 
L 36.203125 16.453125 
C 36.203125 7.96875 31.703125 0.59375 24.296875 0.59375 
C 16.09375 0.59375 15.40625 5.546875 15.40625 10.796875 
L 15.40625 44 
L 3.296875 42.890625 
L 3.296875 40.296875 
C 7.296875 40.296875 10 40.296875 10.09375 36.25 
L 10.09375 16.859375 
C 10.09375 10.09375 10.09375 5.75 12.703125 2.921875 
C 14 1.609375 16.5 -1 23.703125 -1 
C 32.203125 -1 35.5 6.25 36.296875 8.375 
L 36.40625 8.375 
L 36.40625 -1 
L 48.296875 -0.203125 
L 48.296875 2.40625 
C 42.40625 2.40625 41.5 3.015625 41.5 7.859375 
L 41.5 44 
z
" id="CMR17-117"/>
    </defs>
    <g style="fill:#ff0000;" transform="translate(42.883516 101.116484)scale(0.16 -0.16)">
     <use transform="scale(0.996264)" xlink:href="#CMR17-117"/>
    </g>
   </g>
   <g id="text_3">
    <!-- Visible Region -->
    <defs>
     <path d="M 59 58.78125 
C 59.90625 60.984375 61.5 65.296875 68.203125 65.390625 
L 68.203125 68 
C 65.90625 67.796875 63.296875 67.796875 60.796875 67.796875 
C 58.40625 67.796875 54.296875 67.796875 52 68 
L 52 65.390625 
C 57 65.09375 57.203125 61.59375 57.203125 60.984375 
C 57.203125 59.890625 56.90625 59.1875 56.59375 58.390625 
L 36.90625 7 
L 16.296875 60.984375 
C 16 61.6875 15.796875 62.1875 15.796875 62.6875 
C 15.796875 65.390625 19.796875 65.390625 21.90625 65.390625 
L 21.90625 68 
C 18.703125 67.796875 14 67.796875 10.703125 67.796875 
C 8.09375 67.796875 3.40625 67.796875 1 68 
L 1 65.390625 
C 6.796875 65.390625 7.90625 65 9.09375 61.796875 
L 32.90625 -0.40625 
C 33.40625 -1.8125 33.5 -2 34.59375 -2 
C 35.703125 -2 35.796875 -1.8125 36.296875 -0.40625 
z
" id="CMR17-86"/>
     <path d="M 15.5 61.890625 
C 15.5 64.09375 13.703125 66 11.40625 66 
C 9.203125 66 7.296875 64.1875 7.296875 61.890625 
C 7.296875 59.6875 9.09375 57.796875 11.40625 57.796875 
C 13.59375 57.796875 15.5 59.59375 15.5 61.890625 
z
M 3.796875 42.890625 
L 3.796875 40.296875 
C 9.40625 40.296875 10.203125 39.6875 10.203125 34.859375 
L 10.203125 6.921875 
C 10.203125 3.09375 9.796875 2.59375 3.40625 2.59375 
L 3.40625 0 
C 5.796875 0.1875 10.09375 0.1875 12.59375 0.1875 
C 15 0.1875 19.09375 0.1875 21.40625 0 
L 21.40625 2.59375 
C 15.5 2.59375 15.296875 3.203125 15.296875 6.8125 
L 15.296875 44 
z
" id="CMR17-105"/>
     <path d="M 30.90625 42 
C 30.90625 43.796875 30.796875 43.890625 30.203125 43.890625 
C 29.796875 43.890625 29.703125 43.796875 28.5 42.296875 
C 28.203125 41.890625 27.296875 40.890625 27 40.5 
C 23.796875 43.890625 19.296875 44 17.59375 44 
C 6.5 44 2.5 38.1875 2.5 32.390625 
C 2.5 23.390625 12.703125 21.296875 15.59375 20.6875 
C 21.90625 19.390625 24.09375 19 26.203125 17.1875 
C 27.5 16 29.703125 13.796875 29.703125 10.1875 
C 29.703125 6 27.296875 0.59375 18.09375 0.59375 
C 9.40625 0.59375 6.296875 7.1875 4.5 16 
C 4.203125 17.390625 4.203125 17.5 3.40625 17.5 
C 2.59375 17.5 2.5 17.390625 2.5 15.390625 
L 2.5 1 
C 2.5 -0.8125 2.59375 -0.90625 3.203125 -0.90625 
C 3.703125 -0.90625 3.796875 -0.8125 4.296875 0 
C 4.90625 0.890625 6.40625 3.296875 7 4.296875 
C 9 1.59375 12.5 -1 18.09375 -1 
C 28 -1 33.296875 4.390625 33.296875 12.1875 
C 33.296875 17.296875 30.59375 20 29.296875 21.1875 
C 26.296875 24.296875 22.796875 25 18.59375 25.796875 
C 13.09375 27 6.09375 28.390625 6.09375 34.5 
C 6.09375 37.09375 7.5 42.59375 17.59375 42.59375 
C 28.296875 42.59375 28.90625 32.59375 29.09375 29.390625 
C 29.203125 28.890625 29.703125 28.796875 30 28.796875 
C 30.90625 28.796875 30.90625 29.09375 30.90625 30.796875 
z
" id="CMR17-115"/>
     <path d="M 15 69 
L 3.09375 67.890625 
L 3.09375 65.296875 
C 9 65.296875 9.90625 64.703125 9.90625 60.046875 
L 9.90625 -0.203125 
L 11.703125 -0.203125 
L 14.59375 6.953125 
C 17.5 2.203125 21.796875 -1 27.59375 -1 
C 37.59375 -1 47.703125 7.859375 47.703125 21.59375 
C 47.703125 34.515625 38.703125 44 28.59375 44 
C 22.40625 44 18 40.671875 15 36.734375 
z
M 15.203125 31.59375 
C 15.203125 33.40625 15.203125 33.703125 16.59375 35.828125 
C 20.5 41.890625 26.09375 42.390625 28 42.390625 
C 31 42.390625 41.296875 40.78125 41.296875 21.6875 
C 41.296875 1.703125 29.5 0.59375 27.09375 0.59375 
C 24 0.59375 19.5 1.796875 16.296875 7.65625 
C 15.203125 9.578125 15.203125 9.78125 15.203125 11.59375 
z
" id="CMR17-98"/>
     <path d="M 15.296875 69 
L 3.40625 67.890625 
L 3.40625 65.296875 
C 9.296875 65.296875 10.203125 64.703125 10.203125 59.921875 
L 10.203125 6.859375 
C 10.203125 3.09375 9.796875 2.59375 3.40625 2.59375 
L 3.40625 0 
C 5.796875 0.1875 10.203125 0.1875 12.703125 0.1875 
C 15.296875 0.1875 19.703125 0.1875 22.09375 0 
L 22.09375 2.59375 
C 15.703125 2.59375 15.296875 2.984375 15.296875 6.859375 
z
" id="CMR17-108"/>
     <path d="M 38.09375 23.484375 
C 38.5 23.890625 38.5 24.09375 38.5 25.09375 
C 38.5 35.171875 33.09375 44 21.703125 44 
C 11.09375 44 2.703125 33.984375 2.703125 21.78125 
C 2.703125 8.65625 12.203125 -1 22.796875 -1 
C 34 -1 38.40625 9.671875 38.40625 11.796875 
C 38.40625 12.5 37.796875 12.5 37.59375 12.5 
C 36.90625 12.5 36.796875 12.296875 36.40625 11.078125 
C 34.203125 4.21875 28.703125 0.796875 23.5 0.796875 
C 19.203125 0.796875 14.90625 3.21875 12.203125 7.65625 
C 9.09375 12.796875 9.09375 18.75 9.09375 23.484375 
z
M 9.203125 25 
C 9.90625 39.234375 17.59375 42.390625 21.59375 42.390625 
C 28.40625 42.390625 33 36.0625 33.09375 25 
z
" id="CMR17-101"/>
     <path d="M 39.203125 33.6875 
C 48.703125 35.59375 56.703125 42.015625 56.703125 50.046875 
C 56.703125 59.46875 46.09375 68 32.09375 68 
L 5.203125 68 
L 5.203125 65.390625 
C 12.09375 65.390625 13.203125 65.390625 13.203125 60.875 
L 13.203125 6.6875 
C 13.203125 2.1875 12.09375 2.1875 5.203125 2.1875 
L 5.203125 -0.40625 
C 8.09375 -0.203125 13.296875 -0.203125 16.40625 -0.203125 
C 19.5 -0.203125 24.703125 -0.203125 27.59375 -0.40625 
L 27.59375 2.1875 
C 20.703125 2.1875 19.59375 2.1875 19.59375 6.6875 
L 19.59375 33 
L 31.296875 33 
C 37 33 40.203125 30.6875 41.59375 29.390625 
C 45.59375 25.5 45.59375 22.796875 45.59375 16 
C 45.59375 9.296875 45.59375 5.890625 48.59375 2.5 
C 52.40625 -1.609375 57.5 -2 59.703125 -2 
C 67.09375 -2 68.203125 6.296875 68.203125 8 
C 68.203125 8.59375 68.203125 9.296875 67.296875 9.296875 
C 66.5 9.296875 66.40625 8.6875 66.40625 8.296875 
C 65.90625 1.796875 63 -0.40625 59.90625 -0.40625 
C 54.40625 -0.40625 53.796875 5.890625 53.203125 12 
C 52.90625 14.09375 52.703125 15.59375 52.5 17.796875 
C 51.90625 22.796875 51.09375 30.09375 39.203125 33.6875 
z
M 31 34.59375 
L 19.59375 34.59375 
L 19.59375 61.484375 
C 19.59375 64.890625 19.796875 65.390625 23.796875 65.390625 
L 31.09375 65.390625 
C 39.40625 65.390625 49.09375 62.484375 49.09375 50.046875 
C 49.09375 37.09375 38.5 34.59375 31 34.59375 
z
" id="CMR17-82"/>
     <path d="M 11.09375 18.203125 
C 13 16.6875 16.296875 15 20.296875 15 
C 28.203125 15 35 21.234375 35 29.609375 
C 35 32.234375 34.203125 36.265625 31.203125 39.390625 
C 34 42.390625 38.09375 43.390625 40.40625 43.390625 
C 40.796875 43.390625 41.40625 43.390625 41.90625 43.09375 
C 41.5 42.984375 40.59375 42.59375 40.59375 40.984375 
C 40.59375 39.6875 41.5 38.796875 42.796875 38.796875 
C 44.296875 38.796875 45.09375 39.796875 45.09375 41.09375 
C 45.09375 42.984375 43.59375 45 40.40625 45 
C 36.40625 45 32.90625 43.09375 30.09375 40.484375 
C 27.09375 43.1875 23.5 44.1875 20.296875 44.1875 
C 12.40625 44.1875 5.59375 37.984375 5.59375 29.609375 
C 5.59375 23.859375 8.90625 20.21875 9.90625 19.21875 
C 6.90625 15.6875 6.90625 11.59375 6.90625 11.09375 
C 6.90625 8.5 7.90625 4.6875 11.296875 2.59375 
C 6.09375 1.28125 2 -2.875 2 -8.078125 
C 2 -15.5625 11.5 -21 22.90625 -21 
C 33.90625 -21 43.796875 -15.765625 43.796875 -7.96875 
C 43.796875 6 29 6 21.296875 6 
C 19 6 14.90625 6 14.40625 6.09375 
C 11.296875 6.59375 9.203125 9.390625 9.203125 12.890625 
C 9.203125 13.796875 9.203125 16 11.09375 18.203125 
z
M 20.296875 16.6875 
C 11.5 16.6875 11.5 27.59375 11.5 29.609375 
C 11.5 31.625 11.5 42.484375 20.296875 42.484375 
C 29.09375 42.484375 29.09375 31.625 29.09375 29.609375 
C 29.09375 27.59375 29.09375 16.6875 20.296875 16.6875 
z
M 22.90625 -19.3125 
C 12.90625 -19.3125 6 -13.796875 6 -8.078125 
C 6 -4.859375 7.703125 -1.84375 9.90625 -0.171875 
C 12.40625 1.59375 13.40625 1.59375 20.203125 1.59375 
C 28.40625 1.59375 39.796875 1.59375 39.796875 -8.078125 
C 39.796875 -13.796875 32.90625 -19.3125 22.90625 -19.3125 
z
" id="CMR17-103"/>
     <path d="M 43.09375 21.1875 
C 43.09375 34 33.796875 44 22.90625 44 
C 12 44 2.703125 34 2.703125 21.1875 
C 2.703125 8.59375 12 -1 22.90625 -1 
C 33.796875 -1 43.09375 8.59375 43.09375 21.1875 
z
M 22.90625 0.796875 
C 18.203125 0.796875 14.203125 3.59375 11.90625 7.5 
C 9.40625 12 9.09375 17.59375 9.09375 22 
C 9.09375 26.1875 9.296875 31.390625 11.90625 35.890625 
C 13.90625 39.1875 17.796875 42.390625 22.90625 42.390625 
C 27.40625 42.390625 31.203125 39.890625 33.59375 36.390625 
C 36.703125 31.6875 36.703125 25.09375 36.703125 22 
C 36.703125 18.09375 36.5 12.09375 33.796875 7.296875 
C 31 2.6875 26.703125 0.796875 22.90625 0.796875 
z
" id="CMR17-111"/>
     <path d="M 41.5 30.53125 
C 41.5 35.65625 40.5 44 28.703125 44 
C 20.796875 44 16.703125 37.875 15.203125 33.84375 
L 15.09375 33.84375 
L 15.09375 44 
L 3.296875 42.890625 
L 3.296875 40.28125 
C 9.203125 40.28125 10.09375 39.6875 10.09375 34.859375 
L 10.09375 6.921875 
C 10.09375 3.09375 9.703125 2.59375 3.296875 2.59375 
L 3.296875 0 
C 5.703125 0.1875 10.09375 0.1875 12.703125 0.1875 
C 15.296875 0.1875 19.796875 0.1875 22.203125 0 
L 22.203125 2.59375 
C 15.796875 2.59375 15.40625 3 15.40625 6.921875 
L 15.40625 26.21875 
C 15.40625 35.453125 21 42.390625 28 42.390625 
C 35.40625 42.390625 36.203125 35.765625 36.203125 30.9375 
L 36.203125 6.921875 
C 36.203125 3.09375 35.796875 2.59375 29.40625 2.59375 
L 29.40625 0 
C 31.796875 0.1875 36.203125 0.1875 38.796875 0.1875 
C 41.40625 0.1875 45.90625 0.1875 48.296875 0 
L 48.296875 2.59375 
C 41.90625 2.59375 41.5 3 41.5 6.921875 
z
" id="CMR17-110"/>
    </defs>
    <g transform="translate(37.186813 9.257143)scale(0.08 -0.08)">
     <use transform="scale(0.996264)" xlink:href="#CMR17-86"/>
     <use transform="translate(69.07243 0)scale(0.996264)" xlink:href="#CMR17-105"/>
     <use transform="translate(93.943488 0)scale(0.996264)" xlink:href="#CMR17-115"/>
     <use transform="translate(129.744826 0)scale(0.996264)" xlink:href="#CMR17-105"/>
     <use transform="translate(154.615884 0)scale(0.996264)" xlink:href="#CMR17-98"/>
     <use transform="translate(205.511254 0)scale(0.996264)" xlink:href="#CMR17-108"/>
     <use transform="translate(230.382313 0)scale(0.996264)" xlink:href="#CMR17-101"/>
     <use transform="translate(300.943939 0)scale(0.996264)" xlink:href="#CMR17-82"/>
     <use transform="translate(368.735041 0)scale(0.996264)" xlink:href="#CMR17-101"/>
     <use transform="translate(409.220702 0)scale(0.996264)" xlink:href="#CMR17-103"/>
     <use transform="translate(454.911179 0)scale(0.996264)" xlink:href="#CMR17-105"/>
     <use transform="translate(479.782238 0)scale(0.996264)" xlink:href="#CMR17-111"/>
     <use transform="translate(525.472715 0)scale(0.996264)" xlink:href="#CMR17-110"/>
    </g>
   </g>
   <g id="text_4">
    <!-- a) -->
    <defs>
     <path d="M 36 25.875 
C 36 32 36 35.546875 31.796875 39.59375 
C 28.09375 42.984375 23.796875 44 20.40625 44 
C 12.5 44 6.796875 37.625 6.796875 30.890625 
C 6.796875 27.1875 9.796875 27 10.40625 27 
C 11.703125 27 14 27.796875 14 30.59375 
C 14 33.09375 12.09375 34.1875 10.40625 34.1875 
C 10 34.1875 9.5 34.09375 9.203125 34 
C 11.296875 40.53125 16.703125 42.390625 20.203125 42.390625 
C 25.203125 42.390625 30.703125 37.828125 30.703125 29.296875 
L 30.703125 25.5 
C 24.796875 25.296875 17.703125 24.5 12.09375 21.453125 
C 5.796875 17.921875 4 12.84375 4 9 
C 4 1.203125 13 -1 18.296875 -1 
C 23.796875 -1 28.90625 2.109375 31.09375 7.890625 
C 31.296875 3.421875 34.09375 -0.609375 38.5 -0.609375 
C 40.59375 -0.609375 45.90625 0.796875 45.90625 8.796875 
L 45.90625 14.46875 
L 44.09375 14.46875 
L 44.09375 8.703125 
C 44.09375 2.515625 41.40625 1.703125 40.09375 1.703125 
C 36 1.703125 36 6.96875 36 11.4375 
z
M 30.703125 13.859375 
C 30.703125 5.046875 24.5 0.59375 19 0.59375 
C 14 0.59375 10.09375 4.34375 10.09375 9 
C 10.09375 12.046875 11.40625 17.40625 17.203125 20.65625 
C 22 23.390625 27.5 23.796875 30.703125 24 
z
" id="CMR17-97"/>
     <path d="M 26.296875 24.9375 
C 26.296875 32.140625 25.59375 44.359375 19.59375 57.265625 
C 14.796875 67.6875 6.59375 75 5.40625 75 
C 5.09375 75 4.703125 74.890625 4.703125 74.390625 
C 4.703125 74.1875 4.796875 74.09375 4.90625 73.890625 
C 9.703125 68.875 21.90625 56.171875 21.90625 25.046875 
C 21.90625 -6.1875 9.796875 -18.90625 4.90625 -23.90625 
C 4.796875 -24.109375 4.703125 -24.203125 4.703125 -24.40625 
C 4.703125 -24.90625 5.09375 -25 5.40625 -25 
C 6.5 -25 15 -17.609375 19.90625 -6.59375 
C 24.90625 4.515625 26.296875 15.328125 26.296875 24.9375 
z
" id="CMR17-41"/>
    </defs>
    <g transform="translate(0 10.368)scale(0.08 -0.08)">
     <use transform="scale(0.996264)" xlink:href="#CMR17-97"/>
     <use transform="translate(45.690477 0)scale(0.996264)" xlink:href="#CMR17-41"/>
    </g>
   </g>
  </g>
  <g id="axes_2">
   <g id="patch_13">
    <path d="M 135.670154 129.6 
L 250.870154 129.6 
L 250.870154 0 
L 135.670154 0 
z
" style="fill:none;"/>
   </g>
   <g id="patch_14">
    <path clip-path="url(#p64b5aa7356)" d="M 238.21635 45.411108 
L 247.706703 64.8 
L 247.706703 84.188892 
L 238.21635 64.8 
z
" style="fill:#bf00bf;opacity:0.3;"/>
   </g>
   <g id="patch_15">
    <path clip-path="url(#p64b5aa7356)" d="M 138.833605 45.411108 
L 148.323958 64.8 
L 148.323958 84.188892 
L 138.833605 64.8 
z
" style="fill:#bf00bf;opacity:0.3;"/>
   </g>
   <g id="matplotlib.axis_3">
    <g id="xtick_4">
     <g id="line2d_8">
      <defs>
       <path d="M 0 0 
L 0 -3.5 
" id="m05cf1b0aa4" style="stroke:#000000;stroke-width:0.8;"/>
      </defs>
      <g>
       <use style="stroke:#000000;stroke-width:0.8;" x="143.578781" xlink:href="#m05cf1b0aa4" y="129.6"/>
      </g>
     </g>
     <g id="text_5">
      <!-- $-\pi$ -->
      <defs>
       <path d="M 65.90625 23 
C 67.59375 23 69.40625 23 69.40625 25 
C 69.40625 27 67.59375 27 65.90625 27 
L 11.796875 27 
C 10.09375 27 8.296875 27 8.296875 25 
C 8.296875 23 10.09375 23 11.796875 23 
z
" id="CMSY10-0"/>
       <path d="M 25.90625 37.59375 
L 37.203125 37.59375 
C 34.5 26.421875 32.796875 19.140625 32.796875 11.171875 
C 32.796875 9.765625 32.796875 -1 36.90625 -1 
C 39 -1 40.796875 0.890625 40.796875 2.59375 
C 40.796875 3.09375 40.796875 3.28125 40.09375 4.78125 
C 37.40625 11.65625 37.40625 20.234375 37.40625 20.9375 
C 37.40625 21.53125 37.40625 28.625 39.5 37.59375 
L 50.703125 37.59375 
C 52 37.59375 55.296875 37.59375 55.296875 40.796875 
C 55.296875 43 53.40625 43 51.59375 43 
L 18.703125 43 
C 16.40625 43 13 43 8.40625 38.09375 
C 5.796875 35.203125 2.59375 29.921875 2.59375 29.3125 
C 2.59375 28.71875 3.09375 28.515625 3.703125 28.515625 
C 4.40625 28.515625 4.5 28.8125 5 29.421875 
C 10.203125 37.59375 15.40625 37.59375 17.90625 37.59375 
L 23.59375 37.59375 
C 21.40625 30.109375 18.90625 21.4375 10.703125 3.984375 
C 9.90625 2.390625 9.90625 2.1875 9.90625 1.59375 
C 9.90625 -0.5 11.703125 -1 12.59375 -1 
C 15.5 -1 16.296875 1.59375 17.5 5.78125 
C 19.09375 10.859375 19.09375 11.0625 20.09375 15.0625 
z
" id="CMMI12-25"/>
      </defs>
      <g transform="translate(137.854102 138.634802)scale(0.08 -0.08)">
       <use transform="scale(0.996264)" xlink:href="#CMSY10-0"/>
       <use transform="translate(77.487468 0)scale(0.996264)" xlink:href="#CMMI12-25"/>
      </g>
     </g>
    </g>
    <g id="xtick_5">
     <g id="line2d_9">
      <g>
       <use style="stroke:#000000;stroke-width:0.8;" x="193.270154" xlink:href="#m05cf1b0aa4" y="129.6"/>
      </g>
     </g>
     <g id="text_6">
      <!-- $0$ -->
      <defs>
       <path d="M 42 31.84375 
C 42 37.96875 41.90625 48.421875 37.703125 56.453125 
C 34 63.484375 28.09375 66 22.90625 66 
C 18.09375 66 12 63.78125 8.203125 56.5625 
C 4.203125 49.015625 3.796875 39.671875 3.796875 31.84375 
C 3.796875 26.109375 3.90625 17.375 7 9.734375 
C 11.296875 -0.609375 19 -2 22.90625 -2 
C 27.5 -2 34.5 -0.109375 38.59375 9.4375 
C 41.59375 16.375 42 24.5 42 31.84375 
z
M 22.90625 -0.40625 
C 16.5 -0.40625 12.703125 5.125 11.296875 12.75 
C 10.203125 18.6875 10.203125 27.328125 10.203125 32.953125 
C 10.203125 40.6875 10.203125 47.109375 11.5 53.234375 
C 13.40625 61.78125 19 64.390625 22.90625 64.390625 
C 27 64.390625 32.296875 61.671875 34.203125 53.4375 
C 35.5 47.71875 35.59375 40.984375 35.59375 32.953125 
C 35.59375 26.421875 35.59375 18.375 34.40625 12.453125 
C 32.296875 1.5 26.40625 -0.40625 22.90625 -0.40625 
z
" id="CMR17-48"/>
      </defs>
      <g transform="translate(191.153062 138.634802)scale(0.08 -0.08)">
       <use transform="scale(0.996264)" xlink:href="#CMR17-48"/>
      </g>
     </g>
    </g>
    <g id="xtick_6">
     <g id="line2d_10">
      <g>
       <use style="stroke:#000000;stroke-width:0.8;" x="242.961526" xlink:href="#m05cf1b0aa4" y="129.6"/>
      </g>
     </g>
     <g id="text_7">
      <!-- $\pi$ -->
      <g transform="translate(240.5301 138.634802)scale(0.08 -0.08)">
       <use transform="scale(0.996264)" xlink:href="#CMMI12-25"/>
      </g>
     </g>
    </g>
    <g id="text_8">
     <!-- $\theta$ (rad) -->
     <defs>
      <path d="M 30.59375 -24.40625 
C 30.59375 -24.3125 30.59375 -24.109375 30.296875 -23.8125 
C 25.703125 -19.109375 13.40625 -6.296875 13.40625 24.9375 
C 13.40625 56.171875 25.5 68.875 30.40625 73.890625 
C 30.40625 73.984375 30.59375 74.1875 30.59375 74.484375 
C 30.59375 74.796875 30.296875 75 29.90625 75 
C 28.796875 75 20.296875 67.578125 15.40625 56.5625 
C 10.40625 45.453125 9 34.65625 9 25.046875 
C 9 17.828125 9.703125 5.625 15.703125 -7.296875 
C 20.5 -17.703125 28.703125 -25 29.90625 -25 
C 30.40625 -25 30.59375 -24.8125 30.59375 -24.40625 
z
" id="CMR17-40"/>
      <path d="M 15 23.703125 
C 15 33.34375 19.09375 42.390625 26.59375 42.390625 
C 27.296875 42.390625 28 42.296875 28.703125 41.984375 
C 28.703125 41.984375 26.5 41.28125 26.5 38.671875 
C 26.5 36.265625 28.40625 35.265625 29.90625 35.265625 
C 31.09375 35.265625 33.296875 35.96875 33.296875 38.78125 
C 33.296875 41.984375 30.09375 44 26.703125 44 
C 19.09375 44 15.796875 36.5625 14.796875 33.046875 
L 14.703125 33.046875 
L 14.703125 44 
L 3.09375 42.890625 
L 3.09375 40.28125 
C 9 40.28125 9.90625 39.6875 9.90625 34.859375 
L 9.90625 6.921875 
C 9.90625 3.09375 9.5 2.59375 3.09375 2.59375 
L 3.09375 0 
C 5.5 0.1875 10.09375 0.1875 12.703125 0.1875 
C 15.59375 0.1875 20.703125 0.1875 23.40625 0 
L 23.40625 2.59375 
C 16.203125 2.59375 15 2.59375 15 7.109375 
z
" id="CMR17-114"/>
      <path d="M 29.203125 67.890625 
L 29.203125 65.296875 
C 35.09375 65.296875 36 64.703125 36 60.046875 
L 36 37.046875 
C 35.59375 37.546875 31.5 44 23.40625 44 
C 13.203125 44 3.296875 34.8125 3.296875 21.5 
C 3.296875 8.265625 12.59375 -1 22.40625 -1 
C 30.90625 -1 35.296875 5.640625 35.796875 6.34375 
L 35.796875 -1 
L 47.90625 -0.203125 
L 47.90625 2.40625 
C 42 2.40625 41.09375 3.015625 41.09375 7.859375 
L 41.09375 69 
z
M 35.796875 11.90625 
C 35.796875 8.875 34 6.140625 31.703125 4.125 
C 28.296875 1.09375 24.90625 0.59375 23 0.59375 
C 20.09375 0.59375 9.703125 2.109375 9.703125 21.390625 
C 9.703125 41.1875 21.296875 42.390625 23.90625 42.390625 
C 28.5 42.390625 32.203125 39.765625 34.5 36.140625 
C 35.796875 34.015625 35.796875 33.703125 35.796875 31.890625 
z
" id="CMR17-100"/>
     </defs>
     <g transform="translate(180.353139 150.162132)scale(0.08 -0.08)">
      <use transform="scale(0.996264)" xlink:href="#CMMI12-18"/>
      <use transform="translate(78.245474 0)scale(0.996264)" xlink:href="#CMR17-40"/>
      <use transform="translate(113.526242 0)scale(0.996264)" xlink:href="#CMR17-114"/>
      <use transform="translate(148.80701 0)scale(0.996264)" xlink:href="#CMR17-97"/>
      <use transform="translate(194.497487 0)scale(0.996264)" xlink:href="#CMR17-100"/>
      <use transform="translate(245.392857 0)scale(0.996264)" xlink:href="#CMR17-41"/>
     </g>
    </g>
   </g>
   <g id="matplotlib.axis_4">
    <g id="ytick_8">
     <g id="line2d_11">
      <defs>
       <path d="M 0 0 
L 3.5 0 
" id="m0632b0e924" style="stroke:#000000;stroke-width:0.8;"/>
      </defs>
      <g>
       <use style="stroke:#000000;stroke-width:0.8;" x="135.670154" xlink:href="#m0632b0e924" y="126.679442"/>
      </g>
     </g>
     <g id="text_9">
      <!-- $-6$ -->
      <defs>
       <path d="M 10.59375 34.34375 
C 10.59375 58 21.796875 63.6875 28.296875 63.6875 
C 30.40625 63.6875 35.5 63.265625 37.5 59.09375 
C 35.90625 59.09375 32.90625 59.09375 32.90625 55.59375 
C 32.90625 52.890625 35.09375 52 36.5 52 
C 37.40625 52 40.09375 52.390625 40.09375 55.796875 
C 40.09375 62.296875 35.09375 66 28.203125 66 
C 16.296875 66 3.796875 53.296875 3.796875 31.421875 
C 3.796875 4.015625 15.09375 -2 23.09375 -2 
C 32.796875 -2 42 6.734375 42 20.234375 
C 42 32.828125 33.90625 42 23.703125 42 
C 17.59375 42 13.09375 37.96875 10.59375 30.921875 
z
M 23.09375 0.390625 
C 10.796875 0.390625 10.796875 18.9375 10.796875 22.65625 
C 10.796875 29.90625 14.203125 40.390625 23.5 40.390625 
C 25.203125 40.390625 30.09375 40.390625 33.40625 33.4375 
C 35.203125 29.515625 35.203125 25.375 35.203125 20.34375 
C 35.203125 14.90625 35.203125 10.875 33.09375 6.84375 
C 30.90625 2.703125 27.703125 0.390625 23.09375 0.390625 
z
" id="CMR17-54"/>
      </defs>
      <g transform="translate(121.349464 129.446843)scale(0.08 -0.08)">
       <use transform="scale(0.996264)" xlink:href="#CMSY10-0"/>
       <use transform="translate(77.487468 0)scale(0.996264)" xlink:href="#CMR17-54"/>
      </g>
     </g>
    </g>
    <g id="ytick_9">
     <g id="line2d_12">
      <g>
       <use style="stroke:#000000;stroke-width:0.8;" x="135.670154" xlink:href="#m0632b0e924" y="64.8"/>
      </g>
     </g>
     <g id="text_10">
      <!-- $0$ -->
      <g transform="translate(127.935971 67.567401)scale(0.08 -0.08)">
       <use transform="scale(0.996264)" xlink:href="#CMR17-48"/>
      </g>
     </g>
    </g>
    <g id="ytick_10">
     <g id="line2d_13">
      <g>
       <use style="stroke:#000000;stroke-width:0.8;" x="135.670154" xlink:href="#m0632b0e924" y="2.920558"/>
      </g>
     </g>
     <g id="text_11">
      <!-- $6$ -->
      <g transform="translate(127.935971 5.687959)scale(0.08 -0.08)">
       <use transform="scale(0.996264)" xlink:href="#CMR17-54"/>
      </g>
     </g>
    </g>
    <g id="text_12">
     <!-- $\dot{\theta}$ (rad/s) -->
     <defs>
      <path d="M 16.5 61.890625 
C 16.5 64.296875 14.59375 66 12.5 66 
C 10.09375 66 8.40625 64.09375 8.40625 61.890625 
C 8.40625 59.484375 10.296875 57.796875 12.40625 57.796875 
C 14.796875 57.796875 16.5 59.6875 16.5 61.890625 
z
" id="CMR17-95"/>
      <path d="M 40.703125 71.484375 
C 41.203125 72.78125 41.203125 72.984375 41.203125 73.1875 
C 41.203125 74.390625 40.296875 75 39.5 75 
C 38.296875 75 37.90625 74.1875 37.5 72.984375 
L 5.09375 -21.5 
C 4.59375 -22.8125 4.59375 -23 4.59375 -23.203125 
C 4.59375 -24.40625 5.5 -25 6.296875 -25 
C 7.5 -25 7.90625 -24.203125 8.296875 -23 
z
" id="CMR17-47"/>
     </defs>
     <g transform="translate(124.79773 81.504258)rotate(-90)scale(0.08 -0.08)">
      <use transform="translate(19.778385 26.296621)scale(0.996264)" xlink:href="#CMR17-95"/>
      <use transform="scale(0.996264)" xlink:href="#CMMI12-18"/>
      <use transform="translate(78.245474 0)scale(0.996264)" xlink:href="#CMR17-40"/>
      <use transform="translate(113.526242 0)scale(0.996264)" xlink:href="#CMR17-114"/>
      <use transform="translate(148.80701 0)scale(0.996264)" xlink:href="#CMR17-97"/>
      <use transform="translate(194.497487 0)scale(0.996264)" xlink:href="#CMR17-100"/>
      <use transform="translate(245.392857 0)scale(0.996264)" xlink:href="#CMR17-47"/>
      <use transform="translate(291.083334 0)scale(0.996264)" xlink:href="#CMR17-115"/>
      <use transform="translate(326.884671 0)scale(0.996264)" xlink:href="#CMR17-41"/>
     </g>
    </g>
   </g>
   <g id="LineCollection_1">
    <path clip-path="url(#p64b5aa7356)" d="M 0 0 
" style="fill:none;stroke:#b2b2b2;stroke-opacity:0.7;stroke-width:1.5;"/>
    <path clip-path="url(#p64b5aa7356)" d="M 93.887409 32.186736 
L 95.278767 32.313175 
L 96.670126 32.694175 
L 98.061484 33.336108 
L 99.482347 34.272809 
L 100.900917 35.510398 
L 102.23556 36.976357 
L 103.626918 38.85915 
L 104.967605 41.079547 
L 106.196272 43.554725 
L 107.289294 46.236167 
L 108.305813 49.33014 
L 109.146999 52.630376 
L 109.788648 56.070534 
L 110.203077 59.437115 
L 110.421488 62.943617 
L 110.42769 66.450118 
L 110.221821 69.95662 
L 109.788648 73.529466 
L 109.146999 76.969624 
L 108.305813 80.26986 
L 107.289294 83.363833 
L 106.102478 86.25154 
L 104.819511 88.788386 
L 103.428152 91.034157 
L 102.036794 92.861978 
L 100.645436 94.336329 
L 99.204264 95.533456 
L 97.862719 96.372059 
L 96.467917 96.97731 
L 95.080002 97.320394 
L 93.887409 97.413264 
L 93.887409 97.413264 
" style="fill:none;stroke:#b2b2b2;stroke-opacity:0.7;stroke-width:1.5;"/>
    <path clip-path="url(#p64b5aa7356)" d="M 192.673857 97.390148 
L 191.282499 97.155063 
L 189.891141 96.663177 
L 188.499782 95.906396 
L 187.108424 94.870616 
L 185.717065 93.534257 
L 184.325707 91.864136 
L 183.031142 89.964306 
L 181.741755 87.673047 
L 180.514821 85.013951 
L 179.43284 82.126244 
L 178.508771 79.032272 
L 177.753254 75.732035 
L 177.184058 72.225533 
L 176.838714 68.719031 
L 176.707982 65.21253 
L 176.788731 61.706028 
L 177.083226 58.199526 
L 177.598509 54.693024 
L 178.298802 51.392788 
L 179.164107 48.298816 
L 180.263095 45.204843 
L 181.444517 42.523401 
L 182.735583 40.12208 
L 184.140737 37.985575 
L 185.5183 36.282914 
L 186.920658 34.891603 
L 188.301017 33.824079 
L 189.692375 33.028315 
L 191.083733 32.499412 
L 192.475092 32.22794 
L 193.869858 32.210161 
L 195.257809 32.444937 
L 196.649167 32.936823 
L 198.040526 33.693604 
L 199.431884 34.729384 
L 200.823242 36.065743 
L 202.214601 37.735864 
L 203.509166 39.635694 
L 204.798552 41.926953 
L 206.025487 44.586049 
L 207.107467 47.473756 
L 208.031537 50.567728 
L 208.787054 53.867965 
L 209.35625 57.374467 
L 209.701593 60.880969 
L 209.832326 64.38747 
L 209.751577 67.893972 
L 209.457082 71.400474 
L 208.941799 74.906976 
L 208.241506 78.207212 
L 207.3762 81.301184 
L 206.277213 84.395157 
L 205.09579 87.076599 
L 203.804725 89.47792 
L 202.399571 91.614425 
L 201.022008 93.317086 
L 199.619649 94.708397 
L 198.239291 95.775921 
L 196.847933 96.571685 
L 195.456574 97.100588 
L 194.065216 97.37206 
L 192.673857 97.390148 
L 192.673857 97.390148 
" style="fill:none;stroke:#b2b2b2;stroke-opacity:0.7;stroke-width:1.5;"/>
   </g>
   <g id="LineCollection_2">
    <path clip-path="url(#p64b5aa7356)" d="M 0 0 
" style="fill:none;stroke:#b2b2b2;stroke-opacity:0.7;stroke-width:1.5;"/>
    <path clip-path="url(#p64b5aa7356)" d="M 93.887409 18.677897 
L 95.532579 18.802948 
L 97.067657 19.14482 
L 98.657781 19.730797 
L 100.247905 20.555674 
L 101.925245 21.690655 
L 103.428152 22.94473 
L 105.217042 24.744027 
L 106.967379 26.847276 
L 108.596055 29.136367 
L 110.348251 32.003896 
L 111.969065 35.097868 
L 113.452447 38.398105 
L 114.794795 41.904607 
L 115.983165 45.617373 
L 116.997281 49.536404 
L 117.775556 53.455436 
L 118.323064 57.374467 
L 118.641669 61.293498 
L 118.73183 65.21253 
L 118.593583 69.131561 
L 118.226847 73.050592 
L 117.630985 76.969624 
L 116.803639 80.888655 
L 115.751613 84.765007 
L 114.55902 88.355689 
L 113.102857 92.026954 
L 111.560528 95.327191 
L 109.871624 98.421163 
L 108.164957 101.102606 
L 106.409635 103.461449 
L 104.620745 105.493757 
L 102.831856 107.18034 
L 101.042967 108.540885 
L 99.310603 109.559463 
L 97.862719 110.191895 
L 96.272595 110.65966 
L 94.682471 110.892962 
L 93.887409 110.922103 
L 93.887409 110.922103 
" style="fill:none;stroke:#b2b2b2;stroke-opacity:0.7;stroke-width:1.5;"/>
    <path clip-path="url(#p64b5aa7356)" d="M 191.68003 110.805612 
L 190.089906 110.45518 
L 188.499782 109.869203 
L 186.909658 109.044326 
L 185.232318 107.909345 
L 183.72941 106.65527 
L 181.940521 104.855973 
L 180.190184 102.752724 
L 178.561508 100.463633 
L 176.809312 97.596104 
L 175.188497 94.502132 
L 173.705116 91.201895 
L 172.362768 87.695393 
L 171.174398 83.982627 
L 170.160282 80.063596 
L 169.382007 76.144564 
L 168.834499 72.225533 
L 168.515894 68.306502 
L 168.425733 64.38747 
L 168.563979 60.468439 
L 168.930716 56.549408 
L 169.526578 52.630376 
L 170.353924 48.711345 
L 171.40595 44.834993 
L 172.598543 41.244311 
L 174.054706 37.573046 
L 175.597035 34.272809 
L 177.285939 31.178837 
L 178.992606 28.497394 
L 180.747928 26.138551 
L 182.536817 24.106243 
L 184.325707 22.41966 
L 186.114596 21.059115 
L 187.84696 20.040537 
L 189.294844 19.408105 
L 190.884968 18.94034 
L 192.475092 18.707038 
L 194.065216 18.707038 
L 195.65534 18.94034 
L 197.281669 19.421743 
L 198.835588 20.11309 
L 200.444476 21.071861 
L 202.08365 22.30945 
L 203.804725 23.902198 
L 205.528268 25.815952 
L 207.183738 27.976706 
L 208.883011 30.560042 
L 210.562751 33.532847 
L 212.152875 36.816314 
L 213.57387 40.254488 
L 214.865927 43.967255 
L 215.929584 47.680021 
L 216.818611 51.599052 
L 217.475057 55.518084 
L 217.901983 59.437115 
L 218.100339 63.356146 
L 218.070285 67.275178 
L 217.811808 71.194209 
L 217.320778 75.138188 
L 216.607407 79.032272 
L 215.656116 82.951303 
L 214.530759 86.664069 
L 213.146703 90.438839 
L 211.64769 93.883338 
L 210.075266 96.97731 
L 208.368015 99.865017 
L 206.587442 102.439989 
L 204.798552 104.634721 
L 203.009663 106.472093 
L 201.220773 107.975474 
L 199.455562 109.146933 
L 198.040526 109.869203 
L 196.450402 110.45518 
L 194.860278 110.805612 
L 193.270154 110.922103 
L 191.68003 110.805612 
L 191.68003 110.805612 
" style="fill:none;stroke:#b2b2b2;stroke-opacity:0.7;stroke-width:1.5;"/>
   </g>
   <g id="LineCollection_3">
    <path clip-path="url(#p64b5aa7356)" d="M 251.870154 102.112523 
L 249.918318 100.381963 
L 248.129429 99.095138 
L 246.496298 98.214899 
L 245.147947 97.722791 
L 243.756588 97.454355 
L 242.36523 97.43638 
L 240.973871 97.669341 
L 239.582513 98.14631 
L 238.191155 98.853492 
L 236.601031 99.918493 
L 234.812141 101.402888 
L 232.625721 103.553846 
L 230.028242 106.465491 
L 226.463991 110.838508 
L 217.320778 122.226128 
L 214.081152 125.854383 
L 211.159048 128.804854 
L 208.451424 131.217268 
L 206.044258 133.073651 
L 203.804725 134.53896 
L 201.529513 135.755093 
L 199.431884 136.624501 
L 197.444229 137.218923 
L 195.456574 137.586336 
L 193.468919 137.724398 
L 191.481264 137.632356 
L 189.49361 137.310614 
L 187.505955 136.761395 
L 185.458808 135.961358 
L 183.331879 134.884726 
L 181.088162 133.48618 
L 178.760273 131.763445 
L 176.375087 129.728385 
L 173.644864 127.091971 
L 170.76417 123.997999 
L 167.419074 120.078968 
L 162.640445 114.097289 
L 156.498538 106.449442 
L 153.715821 103.345335 
L 151.529401 101.224534 
L 149.583894 99.658752 
L 148.150388 98.738968 
L 146.560264 97.985911 
L 145.168905 97.577527 
L 143.777547 97.415833 
L 142.386188 97.505696 
L 140.99483 97.844588 
L 139.603472 98.422325 
L 138.013348 99.353546 
L 136.247271 100.690076 
L 134.634334 102.146774 
L 132.447914 104.410276 
L 129.609975 107.70308 
L 125.488426 112.8597 
L 118.882098 121.110292 
L 115.354082 125.147919 
L 112.3726 128.230514 
L 109.788648 130.608267 
L 107.204697 132.679774 
L 104.797838 134.31124 
L 102.572674 135.548829 
L 100.44667 136.47867 
L 98.459015 137.118056 
L 96.47136 137.531106 
L 94.483705 137.715185 
L 93.887409 137.72555 
L 93.887409 137.72555 
" style="fill:none;stroke:#b2b2b2;stroke-opacity:0.7;stroke-width:1.5;"/>
    <path clip-path="url(#p64b5aa7356)" d="M 109.798206 -1 
L 112.3726 1.369486 
L 115.155316 4.236317 
L 118.361036 7.870913 
L 122.4027 12.821269 
L 131.534675 24.165833 
L 134.038038 26.865615 
L 136.025693 28.722466 
L 137.868327 30.147513 
L 139.404706 31.076702 
L 140.796065 31.687248 
L 142.187423 32.060948 
L 143.578781 32.186736 
L 144.97014 32.060948 
L 146.361498 31.687248 
L 147.752857 31.076702 
L 149.342981 30.111063 
L 151.13187 28.722466 
L 153.137557 26.847276 
L 155.504711 24.300945 
L 158.724942 20.453067 
L 171.40595 4.887683 
L 174.465807 1.682969 
L 177.170149 -0.835835 
L 177.359357 -1 
M 209.18095 -1 
L 211.755344 1.369486 
L 214.538061 4.236317 
L 217.743781 7.870913 
L 221.785445 12.821269 
L 230.917419 24.165833 
L 233.420783 26.865615 
L 235.408438 28.722466 
L 237.251072 30.147513 
L 238.787451 31.076702 
L 240.178809 31.687248 
L 241.570168 32.060948 
L 242.961526 32.186736 
L 244.352885 32.060948 
L 245.744243 31.687248 
L 247.135602 31.076702 
L 248.725725 30.111063 
L 250.514615 28.722466 
L 251.870154 27.487477 
L 251.870154 27.487477 
" style="fill:none;stroke:#b2b2b2;stroke-opacity:0.7;stroke-width:1.5;"/>
   </g>
   <g id="LineCollection_4">
    <path clip-path="url(#p64b5aa7356)" d="M 251.870154 132.498663 
L 249.591279 131.423532 
L 247.731898 130.758505 
L 245.744243 130.277799 
L 243.955354 130.058751 
L 242.166464 130.04718 
L 240.377575 130.243341 
L 238.38992 130.699479 
L 236.331774 131.423532 
L 234.215845 132.412746 
L 231.830659 133.791685 
L 229.245965 135.548829 
L 226.02592 138.024006 
L 221.340861 141.943038 
L 214.14053 147.931233 
L 210.562751 150.587045 
L 207.581269 152.527496 
L 206.507239 153.15466 
M 180.033068 153.15466 
L 177.368915 151.527199 
L 174.283498 149.368571 
L 170.809654 146.66171 
L 165.641751 142.320644 
L 159.477139 137.198947 
L 156.299773 134.844167 
L 153.715821 133.185852 
L 151.330636 131.91858 
L 149.123383 131.011003 
L 147.15656 130.440668 
L 145.168905 130.108863 
L 143.380016 130.027888 
L 141.591127 130.155074 
L 139.802237 130.487541 
L 137.814582 131.08881 
L 135.826927 131.91858 
L 133.634184 133.073651 
L 131.255321 134.572107 
L 128.472604 136.585291 
L 124.883585 139.46786 
L 112.594544 149.574835 
L 109.589883 151.656744 
L 107.124495 153.15466 
L 107.124495 153.15466 
" style="fill:none;stroke:#b2b2b2;stroke-opacity:0.7;stroke-width:1.5;"/>
    <path clip-path="url(#p64b5aa7356)" d="M 139.363445 -1 
L 141.193596 -0.611414 
L 142.982485 -0.438178 
L 144.771374 -0.472891 
L 146.560264 -0.714782 
L 147.794118 -1 
M 238.74619 -1 
L 240.57634 -0.611414 
L 242.36523 -0.438178 
L 244.154119 -0.472891 
L 245.943009 -0.714782 
L 247.176863 -1 
L 247.176863 -1 
" style="fill:none;stroke:#b2b2b2;stroke-opacity:0.7;stroke-width:1.5;"/>
   </g>
   <g id="LineCollection_5">
    <path clip-path="url(#p64b5aa7356)" d="M 0 0 
" style="fill:none;stroke:#b2b2b2;stroke-opacity:0.7;stroke-width:1.5;"/>
    <path clip-path="url(#p64b5aa7356)" d="M 0 0 
" style="fill:none;stroke:#b2b2b2;stroke-opacity:0.7;stroke-width:1.5;"/>
    <path clip-path="url(#p64b5aa7356)" d="M 0 0 
" style="fill:none;stroke:#b2b2b2;stroke-opacity:0.7;stroke-width:1.5;"/>
    <path clip-path="url(#p64b5aa7356)" d="M 0 0 
" style="fill:none;stroke:#b2b2b2;stroke-opacity:0.7;stroke-width:1.5;"/>
   </g>
   <g id="line2d_14">
    <path clip-path="url(#p64b5aa7356)" d="M 93.887409 -0.426659 
L 95.875064 -0.297949 
L 97.862719 0.087673 
L 99.850374 0.728685 
L 101.838029 1.622557 
L 103.825683 2.765761 
L 105.813338 4.153786 
L 107.800993 5.781154 
L 109.788648 7.641443 
L 111.776303 9.72731 
L 113.763958 12.030524 
L 115.751613 14.541996 
L 117.739268 17.251812 
L 119.726923 20.149279 
L 121.714578 23.222963 
L 123.702232 26.460732 
L 125.689887 29.849808 
L 127.677542 33.376817 
L 129.665197 37.027839 
L 131.652852 40.788465 
L 133.640507 44.643854 
L 135.628162 48.57879 
L 137.615817 52.577743 
L 139.603472 56.624932 
L 141.591127 60.704384 
L 143.578781 64.8 
L 145.566436 60.704384 
L 147.554091 56.624932 
L 149.541746 52.577743 
L 151.529401 48.57879 
L 153.517056 44.643854 
L 155.504711 40.788465 
L 157.492366 37.027839 
L 159.480021 33.376817 
L 161.467675 29.849808 
L 163.45533 26.460732 
L 165.442985 23.222963 
L 167.43064 20.149279 
L 169.418295 17.251812 
L 171.40595 14.541996 
L 173.393605 12.030524 
L 175.38126 9.72731 
L 177.368915 7.641443 
L 179.35657 5.781154 
L 181.344224 4.153786 
L 183.331879 2.765761 
L 185.319534 1.622557 
L 187.307189 0.728685 
L 189.294844 0.087673 
L 191.282499 -0.297949 
L 193.270154 -0.426659 
L 195.257809 -0.297949 
L 197.245464 0.087673 
L 199.233119 0.728685 
L 201.220773 1.622557 
L 203.208428 2.765761 
L 205.196083 4.153786 
L 207.183738 5.781154 
L 209.171393 7.641443 
L 211.159048 9.72731 
L 213.146703 12.030524 
L 215.134358 14.541996 
L 217.122013 17.251812 
L 219.109668 20.149279 
L 221.097322 23.222963 
L 223.084977 26.460732 
L 225.072632 29.849808 
L 227.060287 33.376817 
L 229.047942 37.027839 
L 231.035597 40.788465 
L 233.023252 44.643854 
L 235.010907 48.57879 
L 236.998562 52.577743 
L 238.986216 56.624932 
L 240.973871 60.704384 
L 242.961526 64.8 
L 244.949181 60.704384 
L 246.936836 56.624932 
L 248.924491 52.577743 
L 250.912146 48.57879 
L 251.870154 46.682233 
" style="fill:none;stroke:#808080;stroke-linecap:square;stroke-width:1.5;"/>
   </g>
   <g id="line2d_15">
    <path clip-path="url(#p64b5aa7356)" d="M 93.887409 130.026659 
L 95.875064 129.897949 
L 97.862719 129.512327 
L 99.850374 128.871315 
L 101.838029 127.977443 
L 103.825683 126.834239 
L 105.813338 125.446214 
L 107.800993 123.818846 
L 109.788648 121.958557 
L 111.776303 119.87269 
L 113.763958 117.569476 
L 115.751613 115.058004 
L 117.739268 112.348188 
L 119.726923 109.450721 
L 121.714578 106.377037 
L 123.702232 103.139268 
L 125.689887 99.750192 
L 127.677542 96.223183 
L 129.665197 92.572161 
L 131.652852 88.811535 
L 133.640507 84.956146 
L 135.628162 81.02121 
L 137.615817 77.022257 
L 139.603472 72.975068 
L 141.591127 68.895616 
L 143.578781 64.8 
L 145.566436 68.895616 
L 147.554091 72.975068 
L 149.541746 77.022257 
L 151.529401 81.02121 
L 153.517056 84.956146 
L 155.504711 88.811535 
L 157.492366 92.572161 
L 159.480021 96.223183 
L 161.467675 99.750192 
L 163.45533 103.139268 
L 165.442985 106.377037 
L 167.43064 109.450721 
L 169.418295 112.348188 
L 171.40595 115.058004 
L 173.393605 117.569476 
L 175.38126 119.87269 
L 177.368915 121.958557 
L 179.35657 123.818846 
L 181.344224 125.446214 
L 183.331879 126.834239 
L 185.319534 127.977443 
L 187.307189 128.871315 
L 189.294844 129.512327 
L 191.282499 129.897949 
L 193.270154 130.026659 
L 195.257809 129.897949 
L 197.245464 129.512327 
L 199.233119 128.871315 
L 201.220773 127.977443 
L 203.208428 126.834239 
L 205.196083 125.446214 
L 207.183738 123.818846 
L 209.171393 121.958557 
L 211.159048 119.87269 
L 213.146703 117.569476 
L 215.134358 115.058004 
L 217.122013 112.348188 
L 219.109668 109.450721 
L 221.097322 106.377037 
L 223.084977 103.139268 
L 225.072632 99.750192 
L 227.060287 96.223183 
L 229.047942 92.572161 
L 231.035597 88.811535 
L 233.023252 84.956146 
L 235.010907 81.02121 
L 236.998562 77.022257 
L 238.986216 72.975068 
L 240.973871 68.895616 
L 242.961526 64.8 
L 244.949181 68.895616 
L 246.936836 72.975068 
L 248.924491 77.022257 
L 250.912146 81.02121 
L 251.870154 82.917767 
" style="fill:none;stroke:#808080;stroke-linecap:square;stroke-width:1.5;"/>
   </g>
   <g id="patch_16">
    <path d="M 135.670154 129.6 
L 135.670154 0 
" style="fill:none;stroke:#000000;stroke-linecap:square;stroke-linejoin:miter;stroke-width:0.5;"/>
   </g>
   <g id="patch_17">
    <path d="M 250.870154 129.6 
L 250.870154 0 
" style="fill:none;stroke:#000000;stroke-linecap:square;stroke-linejoin:miter;stroke-width:0.5;"/>
   </g>
   <g id="patch_18">
    <path d="M 135.670154 129.6 
L 250.870154 129.6 
" style="fill:none;stroke:#000000;stroke-linecap:square;stroke-linejoin:miter;stroke-width:0.5;"/>
   </g>
   <g id="patch_19">
    <path d="M 135.670154 0 
L 250.870154 0 
" style="fill:none;stroke:#000000;stroke-linecap:square;stroke-linejoin:miter;stroke-width:0.5;"/>
   </g>
   <g id="text_13">
    <!-- visible -->
    <defs>
     <path d="M 39.09375 33.953125 
C 40 36.171875 41.59375 40.1875 47.40625 40.390625 
L 47.40625 43 
C 45.5 42.890625 43 42.796875 41.09375 42.796875 
C 39 42.796875 35.703125 42.796875 33.703125 43 
L 33.703125 40.390625 
C 36.203125 40.1875 37.59375 38.984375 37.59375 36.375 
C 37.59375 35.46875 37.59375 35.265625 37 33.859375 
L 26 5.921875 
L 14.09375 36.0625 
C 13.5 37.375 13.5 37.578125 13.5 37.984375 
C 13.5 40.390625 16.796875 40.390625 18.296875 40.390625 
L 18.296875 43 
C 15.90625 42.796875 11.5 42.796875 9 42.796875 
C 6.296875 42.796875 3.203125 42.796875 1 43 
L 1 40.390625 
C 4.796875 40.390625 6.90625 40.390625 8.09375 37.28125 
L 22.59375 0.6875 
C 23.203125 -0.8125 23.296875 -1 24.203125 -1 
C 25.09375 -1 25.203125 -0.8125 25.796875 0.6875 
z
" id="CMR17-118"/>
    </defs>
    <g transform="translate(145.950132 123.853215)rotate(-90)scale(0.08 -0.08)">
     <use transform="scale(0.996264)" xlink:href="#CMR17-118"/>
     <use transform="translate(48.292916 0)scale(0.996264)" xlink:href="#CMR17-105"/>
     <use transform="translate(73.163974 0)scale(0.996264)" xlink:href="#CMR17-115"/>
     <use transform="translate(108.965312 0)scale(0.996264)" xlink:href="#CMR17-105"/>
     <use transform="translate(133.83637 0)scale(0.996264)" xlink:href="#CMR17-98"/>
     <use transform="translate(184.73174 0)scale(0.996264)" xlink:href="#CMR17-108"/>
     <use transform="translate(209.602799 0)scale(0.996264)" xlink:href="#CMR17-101"/>
    </g>
   </g>
   <g id="text_14">
    <!-- visible -->
    <g transform="translate(245.332877 123.853215)rotate(-90)scale(0.08 -0.08)">
     <use transform="scale(0.996264)" xlink:href="#CMR17-118"/>
     <use transform="translate(48.292916 0)scale(0.996264)" xlink:href="#CMR17-105"/>
     <use transform="translate(73.163974 0)scale(0.996264)" xlink:href="#CMR17-115"/>
     <use transform="translate(108.965312 0)scale(0.996264)" xlink:href="#CMR17-105"/>
     <use transform="translate(133.83637 0)scale(0.996264)" xlink:href="#CMR17-98"/>
     <use transform="translate(184.73174 0)scale(0.996264)" xlink:href="#CMR17-108"/>
     <use transform="translate(209.602799 0)scale(0.996264)" xlink:href="#CMR17-101"/>
    </g>
   </g>
   <g id="text_15">
    <!-- b) -->
    <g transform="translate(121.270154 10.368)scale(0.08 -0.08)">
     <use transform="scale(0.996264)" xlink:href="#CMR17-98"/>
     <use transform="translate(50.89537 0)scale(0.996264)" xlink:href="#CMR17-41"/>
    </g>
   </g>
   <g id="patch_20">
    <path clip-path="url(#p64b5aa7356)" d="M 148.323958 147.305922 
L 238.21635 147.305922 
L 238.21635 -17.705922 
L 148.323958 -17.705922 
z
" style="fill:#ece7f2;opacity:0.8;stroke:#000000;stroke-linejoin:miter;"/>
   </g>
   <g id="patch_21">
    <path clip-path="url(#p64b5aa7356)" d="M 48.941213 147.305922 
L 138.833605 147.305922 
L 138.833605 -17.705922 
L 48.941213 -17.705922 
z
" style="fill:#ece7f2;opacity:0.8;stroke:#000000;stroke-linejoin:miter;"/>
   </g>
   <g id="patch_22">
    <path clip-path="url(#p64b5aa7356)" d="M 247.706703 147.305922 
L 337.599095 147.305922 
L 337.599095 -17.705922 
L 247.706703 -17.705922 
z
" style="fill:#ece7f2;opacity:0.8;stroke:#000000;stroke-linejoin:miter;"/>
   </g>
   <g id="text_16">
    <!-- denied -->
    <g transform="translate(195.641505 124.511862)rotate(-90)scale(0.08 -0.08)">
     <use transform="scale(0.996264)" xlink:href="#CMR17-100"/>
     <use transform="translate(50.89537 0)scale(0.996264)" xlink:href="#CMR17-101"/>
     <use transform="translate(91.38103 0)scale(0.996264)" xlink:href="#CMR17-110"/>
     <use transform="translate(142.2764 0)scale(0.996264)" xlink:href="#CMR17-105"/>
     <use transform="translate(167.147459 0)scale(0.996264)" xlink:href="#CMR17-101"/>
     <use transform="translate(207.633119 0)scale(0.996264)" xlink:href="#CMR17-100"/>
    </g>
   </g>
   <g id="patch_23">
    <path d="M 168.693222 58.521126 
Q 157.106304 61.417977 146.604037 64.043654 
" style="fill:none;stroke:#bf00bf;stroke-linecap:round;"/>
    <path d="M 150.096557 64.819734 
L 146.604037 64.043654 
L 149.320413 61.715285 
" style="fill:none;stroke:#bf00bf;stroke-linecap:round;"/>
   </g>
   <g id="text_17">
    <!-- Feedback Region -->
    <defs>
     <path d="M 54.40625 67.796875 
L 5.09375 67.796875 
L 5.09375 65.1875 
C 12 65.1875 13.09375 65.1875 13.09375 60.671875 
L 13.09375 7.03125 
C 13.09375 2.59375 12 2.59375 5.09375 2.59375 
L 5.09375 0 
C 8 0.1875 13.59375 0.1875 16.703125 0.1875 
C 20.796875 0.1875 25.59375 0.1875 29.703125 0 
L 29.703125 2.59375 
L 27.5 2.59375 
C 19.90625 2.59375 19.703125 3.578125 19.703125 7.125 
L 19.703125 32.390625 
L 28.703125 32.390625 
C 38 32.390625 38.90625 29.140625 38.90625 20.84375 
L 40.703125 20.84375 
L 40.703125 46.734375 
L 38.90625 46.734375 
C 38.90625 38.296875 38 35 28.703125 35 
L 19.703125 35 
L 19.703125 61.28125 
C 19.703125 64.6875 19.90625 65.1875 23.90625 65.1875 
L 36.796875 65.1875 
C 51.90625 65.1875 53.59375 58.96875 55 45.625 
L 56.796875 45.625 
z
" id="CMR17-70"/>
     <path d="M 34.90625 35 
C 33 35 30.203125 35 30.203125 31.484375 
C 30.203125 28.6875 32.5 27.890625 33.796875 27.890625 
C 34.5 27.890625 37.40625 28.1875 37.40625 31.6875 
C 37.40625 38.6875 30.59375 44 22.90625 44 
C 12.296875 44 3.296875 34.390625 3.296875 21.546875 
C 3.296875 8.140625 12.703125 -1 22.90625 -1 
C 35.296875 -1 38.40625 10.5625 38.40625 11.671875 
C 38.40625 12.078125 38.296875 12.375 37.59375 12.375 
C 36.90625 12.375 36.796875 12.28125 36.40625 10.96875 
C 33.796875 2.8125 28.09375 0.796875 23.796875 0.796875 
C 17.40625 0.796875 9.703125 6.734375 9.703125 21.640625 
C 9.703125 36.84375 17.09375 42.1875 23 42.1875 
C 26.90625 42.1875 32.703125 40.34375 34.90625 35 
z
" id="CMR17-99"/>
     <path d="M 26.09375 26.234375 
C 26 26.4375 25.5 27.03125 25.5 27.328125 
C 25.5 27.53125 32.59375 33.984375 33.5 34.78125 
C 39.203125 39.5625 42.796875 40.046875 45.40625 40.15625 
L 45.40625 42.734375 
C 44.796875 42.734375 44.59375 42.734375 44.5 42.640625 
L 39.59375 42.53125 
C 36.796875 42.53125 32.5 42.53125 29.796875 42.734375 
L 29.796875 40.15625 
C 31.203125 40.046875 32.203125 39.265625 32.203125 37.859375 
C 32.203125 35.875 30.203125 33.984375 30.09375 33.984375 
L 15 20.28125 
L 15 69 
L 3.09375 67.890625 
L 3.09375 65.296875 
C 9 65.296875 9.90625 64.703125 9.90625 59.921875 
L 9.90625 6.859375 
C 9.90625 3.09375 9.5 2.59375 3.09375 2.59375 
L 3.09375 0 
C 5.5 0.1875 9.90625 0.1875 12.40625 0.1875 
C 14.90625 0.1875 19.296875 0.1875 21.703125 0 
L 21.703125 2.59375 
C 15.296875 2.59375 14.90625 2.984375 14.90625 6.859375 
L 14.90625 17.796875 
L 21.796875 24.0625 
L 31.90625 9.15625 
C 33.09375 7.359375 34.09375 5.96875 34.09375 4.671875 
C 34.09375 2.890625 32.296875 2.59375 31.09375 2.59375 
L 31.09375 0 
C 33.5 0.1875 37.796875 0.1875 40.296875 0.1875 
C 42.09375 0.1875 45.796875 0.09375 47.5 0 
L 47.5 2.59375 
C 42.796875 2.59375 41.703125 3.484375 38.703125 7.859375 
z
" id="CMR17-107"/>
    </defs>
    <g transform="translate(161.635644 54.48676)scale(0.08 -0.08)">
     <use transform="scale(0.996264)" xlink:href="#CMR17-70"/>
     <use transform="translate(52.176591 0)scale(0.996264)" xlink:href="#CMR17-101"/>
     <use transform="translate(92.662252 0)scale(0.996264)" xlink:href="#CMR17-101"/>
     <use transform="translate(133.147912 0)scale(0.996264)" xlink:href="#CMR17-100"/>
     <use transform="translate(184.043282 0)scale(0.996264)" xlink:href="#CMR17-98"/>
     <use transform="translate(234.938652 0)scale(0.996264)" xlink:href="#CMR17-97"/>
     <use transform="translate(280.629129 0)scale(0.996264)" xlink:href="#CMR17-99"/>
     <use transform="translate(318.512335 0)scale(0.996264)" xlink:href="#CMR17-107"/>
     <use transform="translate(396.881218 0)scale(0.996264)" xlink:href="#CMR17-82"/>
     <use transform="translate(464.67232 0)scale(0.996264)" xlink:href="#CMR17-101"/>
     <use transform="translate(505.15798 0)scale(0.996264)" xlink:href="#CMR17-103"/>
     <use transform="translate(550.848457 0)scale(0.996264)" xlink:href="#CMR17-105"/>
     <use transform="translate(575.719516 0)scale(0.996264)" xlink:href="#CMR17-111"/>
     <use transform="translate(621.409993 0)scale(0.996264)" xlink:href="#CMR17-110"/>
    </g>
   </g>
   <g id="patch_24">
    <path d="M 217.33343 58.512869 
Q 229.1761 61.418135 239.932934 64.05702 
" style="fill:none;stroke:#bf00bf;stroke-linecap:round;"/>
    <path d="M 237.206299 61.740674 
L 239.932934 64.05702 
L 236.443876 64.848521 
" style="fill:none;stroke:#bf00bf;stroke-linecap:round;"/>
   </g>
   <g id="text_18">
    <!-- Feedback Region -->
    <g style="opacity:0;" transform="translate(161.635644 54.48676)scale(0.08 -0.08)">
     <use transform="scale(0.996264)" xlink:href="#CMR17-70"/>
     <use transform="translate(52.176591 0)scale(0.996264)" xlink:href="#CMR17-101"/>
     <use transform="translate(92.662252 0)scale(0.996264)" xlink:href="#CMR17-101"/>
     <use transform="translate(133.147912 0)scale(0.996264)" xlink:href="#CMR17-100"/>
     <use transform="translate(184.043282 0)scale(0.996264)" xlink:href="#CMR17-98"/>
     <use transform="translate(234.938652 0)scale(0.996264)" xlink:href="#CMR17-97"/>
     <use transform="translate(280.629129 0)scale(0.996264)" xlink:href="#CMR17-99"/>
     <use transform="translate(318.512335 0)scale(0.996264)" xlink:href="#CMR17-107"/>
     <use transform="translate(396.881218 0)scale(0.996264)" xlink:href="#CMR17-82"/>
     <use transform="translate(464.67232 0)scale(0.996264)" xlink:href="#CMR17-101"/>
     <use transform="translate(505.15798 0)scale(0.996264)" xlink:href="#CMR17-103"/>
     <use transform="translate(550.848457 0)scale(0.996264)" xlink:href="#CMR17-105"/>
     <use transform="translate(575.719516 0)scale(0.996264)" xlink:href="#CMR17-111"/>
     <use transform="translate(621.409993 0)scale(0.996264)" xlink:href="#CMR17-110"/>
    </g>
   </g>
  </g>
 </g>
 <defs>
  <clipPath id="pcb91d492d7">
   <rect height="129.6" width="99.692308" x="14.4" y="0"/>
  </clipPath>
  <clipPath id="p64b5aa7356">
   <rect height="129.6" width="115.2" x="135.670154" y="0"/>
  </clipPath>
 </defs>
</svg>
