<?xml version="1.0" encoding="utf-8" standalone="no"?>
<!DOCTYPE svg PUBLIC "-//W3C//DTD SVG 1.1//EN"
  "http://www.w3.org/Graphics/SVG/1.1/DTD/svg11.dtd">
<!-- Created with matplotlib (https://matplotlib.org/) -->
<svg height="215.969394pt" version="1.1" viewBox="0 0 249.12 215.969394" width="249.12pt" xmlns="http://www.w3.org/2000/svg" xmlns:xlink="http://www.w3.org/1999/xlink">
 <defs>
  <style type="text/css">
*{stroke-linecap:butt;stroke-linejoin:round;}
  </style>
 </defs>
 <g id="figure_1">
  <g id="patch_1">
   <path d="M 0 215.969394 
L 249.12 215.969394 
L 249.12 0 
L 0 0 
z
" style="fill:none;"/>
  </g>
  <g id="axes_1">
   <g id="patch_2">
    <path d="M 14.953846 193.414734 
L 114.646154 193.414734 
L 114.646154 63.814734 
L 14.953846 63.814734 
z
" style="fill:none;"/>
   </g>
   <g id="line2d_1">
    <path clip-path="url(#pa3d86a71ee)" d="M 64.8 164.931218 
L 78.947003 95.141861 
" style="fill:none;stroke:#000000;stroke-linecap:square;stroke-width:3;"/>
   </g>
   <g id="patch_3">
    <path clip-path="url(#pa3d86a71ee)" d="M 78.947003 105.82318 
C 81.779722 105.82318 84.496801 104.697729 86.499836 102.694694 
C 88.50287 100.691659 89.628322 97.97458 89.628322 95.141861 
C 89.628322 92.309142 88.50287 89.592063 86.499836 87.589028 
C 84.496801 85.585994 81.779722 84.460543 78.947003 84.460543 
C 76.114284 84.460543 73.397205 85.585994 71.39417 87.589028 
C 69.391135 89.592063 68.265684 92.309142 68.265684 95.141861 
C 68.265684 97.97458 69.391135 100.691659 71.39417 102.694694 
C 73.397205 104.697729 76.114284 105.82318 78.947003 105.82318 
z
" style="stroke:#000000;stroke-linejoin:miter;"/>
   </g>
   <g id="patch_4">
    <path clip-path="url(#pa3d86a71ee)" d="M -63.375824 36.755393 
L 26.921454 36.755393 
L 64.8 164.931218 
L 102.678546 36.755393 
L 192.975824 36.755393 
L 192.975824 293.107042 
L -63.375824 293.107042 
z
" style="fill:#ece7f2;opacity:0.8;stroke:#000000;stroke-linejoin:miter;"/>
   </g>
   <g id="matplotlib.axis_1">
    <g id="xtick_1"/>
    <g id="xtick_2"/>
    <g id="xtick_3"/>
   </g>
   <g id="matplotlib.axis_2">
    <g id="ytick_1"/>
    <g id="ytick_2"/>
    <g id="ytick_3"/>
    <g id="ytick_4"/>
    <g id="ytick_5"/>
    <g id="ytick_6"/>
    <g id="ytick_7"/>
   </g>
   <g id="patch_5">
    <path clip-path="url(#pa3d86a71ee)" d="M 80.855887 145.868997 
L 76.268491 151.315346 
L 73.11584 144.004775 
z
" style="stroke:#000000;stroke-linejoin:miter;"/>
   </g>
   <g id="patch_6">
    <path clip-path="url(#pa3d86a71ee)" d="M 56.158632 171.209539 
L 61.919544 167.023991 
L 63.224636 174.877678 
z
" style="fill:#ff0000;stroke:#ff0000;stroke-linejoin:miter;"/>
   </g>
   <g id="patch_7">
    <path clip-path="url(#pa3d86a71ee)" d="M 47.045511 77.345575 
L 47.752862 80.835043 
L 43.909719 79.797659 
z
" style="stroke:#000000;stroke-linejoin:miter;"/>
   </g>
   <g id="patch_8">
    <path clip-path="url(#pa3d86a71ee)" d="M 81.847138 80.835043 
L 82.554489 77.345575 
L 85.690281 79.797659 
z
" style="stroke:#000000;stroke-linejoin:miter;"/>
   </g>
   <g id="line2d_2">
    <path clip-path="url(#pa3d86a71ee)" d="M 64.8 186.293855 
L 65.321537 186.287488 
L 65.842763 186.26839 
L 66.363367 186.236573 
L 66.883039 186.192055 
L 67.40147 186.134864 
L 67.91835 186.065033 
L 68.433371 185.982605 
L 68.946226 185.887627 
L 69.456609 185.780157 
L 69.964217 185.660259 
L 70.468746 185.528004 
L 70.969896 185.383471 
L 71.467368 185.226746 
L 71.960866 185.057923 
L 72.450095 184.877102 
L 72.934764 184.684392 
L 73.414583 184.479906 
L 73.889268 184.263768 
L 74.358534 184.036105 
L 74.822102 183.797053 
L 75.279696 183.546755 
L 75.731043 183.285361 
L 76.175874 183.013025 
L 76.613923 182.729911 
L 77.044931 182.436187 
L 77.468639 182.132028 
L 77.884795 181.817615 
L 78.293151 181.493137 
L 78.693463 181.158785 
L 79.085494 180.81476 
L 79.469009 180.461267 
L 79.84378 180.098517 
L 80.209583 179.726725 
L 80.5662 179.346113 
L 80.913419 178.956908 
L 81.251033 178.559343 
L 81.57884 178.153654 
L 81.896645 177.740083 
L 82.204258 177.318876 
L 82.501497 176.890285 
L 82.788183 176.454565 
L 83.064147 176.011976 
L 83.329224 175.562781 
L 83.583255 175.107249 
L 83.826089 174.645651 
L 84.057581 174.178262 
L 84.277594 173.705361 
L 84.485996 173.22723 
L 84.682664 172.744153 
L 84.867479 172.256419 
L 85.040331 171.764318 
L 85.201118 171.268144 
L 85.349744 170.768193 
L 85.48612 170.264762 
L 85.610165 169.758152 
L 85.721805 169.248664 
L 85.820973 168.736603 
L 85.907611 168.222273 
L 85.981666 167.705981 
L 86.043094 167.188036 
L 86.091859 166.668745 
L 86.127932 166.148418 
L 86.151292 165.627366 
L 86.161923 165.105899 
L 86.159821 164.584327 
L 86.144986 164.062963 
L 86.117426 163.542115 
L 86.07716 163.022097 
L 86.02421 162.503216 
L 85.958608 161.985782 
L 85.880393 161.470104 
L 85.789612 160.95649 
L 85.686319 160.445244 
L 85.570575 159.936673 
L 85.44245 159.431079 
L 85.30202 158.928764 
L 85.149369 158.430027 
L 84.984587 157.935166 
L 84.807772 157.444474 
L 84.619031 156.958246 
L 84.418476 156.476771 
L 84.206226 156.000335 
L 83.982408 155.529223 
L 83.747155 155.063715 
L 83.500607 154.60409 
L 83.242912 154.150621 
L 82.974223 153.703578 
L 82.6947 153.263228 
L 82.40451 152.829833 
L 82.103826 152.403653 
L 81.792827 151.984939 
L 81.471698 151.573944 
L 81.140631 151.17091 
L 80.799823 150.77608 
L 80.449478 150.389687 
L 80.089804 150.011963 
L 79.721016 149.643132 
L 79.343333 149.283414 
L 78.95698 148.933024 
L 78.562189 148.592171 
" style="fill:none;stroke:#000000;stroke-linecap:square;stroke-width:1.5;"/>
   </g>
   <g id="line2d_3">
    <path clip-path="url(#pa3d86a71ee)" d="M 64.8 189.854295 
L 64.8 182.733415 
" style="fill:none;stroke:#000000;stroke-linecap:square;stroke-width:1.5;"/>
   </g>
   <g id="line2d_4">
    <path clip-path="url(#pa3d86a71ee)" d="M 71.920879 164.931218 
L 71.91582 164.66283 
L 71.900648 164.394825 
L 71.875386 164.127581 
L 71.84007 163.861479 
L 71.794749 163.596898 
L 71.739488 163.334213 
L 71.674366 163.073797 
L 71.599475 162.81602 
L 71.514922 162.56125 
L 71.420826 162.309847 
L 71.317322 162.06217 
L 71.204556 161.818569 
L 71.082689 161.579392 
L 70.951894 161.344978 
L 70.812357 161.11566 
L 70.664276 160.891764 
L 70.507862 160.673608 
L 70.343336 160.461503 
L 70.170933 160.25575 
L 69.990897 160.05664 
L 69.803485 159.864458 
L 69.608963 159.679476 
L 69.407607 159.501957 
L 69.199704 159.332153 
L 68.985548 159.170305 
L 68.765444 159.016645 
L 68.539705 158.871389 
L 68.308652 158.734744 
L 68.072613 158.606905 
L 67.831923 158.488054 
L 67.586925 158.378358 
L 67.337966 158.277974 
L 67.085401 158.187045 
L 66.829588 158.1057 
L 66.570891 158.034054 
L 66.309677 157.972209 
L 66.046318 157.920254 
L 65.781188 157.878261 
L 65.514664 157.846292 
L 65.247124 157.82439 
L 64.978948 157.812587 
L 64.710519 157.810901 
L 64.442216 157.819332 
L 64.174422 157.837871 
L 63.907517 157.866489 
L 63.64188 157.905146 
L 63.377889 157.953788 
L 63.115919 158.012345 
L 62.856342 158.080735 
L 62.599527 158.158859 
L 62.345839 158.246607 
L 62.095639 158.343855 
L 61.849282 158.450463 
L 61.607117 158.566281 
L 61.36949 158.691144 
L 61.136738 158.824874 
L 60.909192 158.967282 
L 60.687175 159.118164 
L 60.471002 159.277308 
L 60.260981 159.444486 
L 60.05741 159.619461 
L 59.860579 159.801984 
L 59.670767 159.991796 
L 59.488243 160.188628 
L 59.313268 160.392198 
L 59.14609 160.602219 
L 58.986947 160.818392 
L 58.836064 161.040409 
L 58.693656 161.267956 
L 58.559926 161.500708 
L 58.435063 161.738335 
L 58.319245 161.980499 
L 58.212637 162.226857 
L 58.11539 162.477057 
L 58.027642 162.730745 
L 57.949517 162.98756 
L 57.881128 163.247137 
L 57.822571 163.509107 
L 57.773929 163.773098 
L 57.735271 164.038735 
L 57.706653 164.30564 
L 57.688115 164.573434 
L 57.679683 164.841736 
L 57.68137 165.110166 
L 57.693172 165.378341 
L 57.715074 165.645881 
L 57.747044 165.912406 
L 57.789036 166.177536 
L 57.840992 166.440895 
L 57.902836 166.702108 
L 57.974482 166.960805 
L 58.055827 167.216618 
L 58.146757 167.469183 
L 58.24714 167.718142 
L 58.356836 167.96314 
L 58.475688 168.20383 
L 58.603527 168.439869 
L 58.740171 168.670923 
L 58.885427 168.896662 
L 59.039088 169.116765 
" style="fill:none;stroke:#ff0000;stroke-linecap:square;stroke-width:1.5;"/>
   </g>
   <g id="line2d_5">
    <path clip-path="url(#pa3d86a71ee)" d="M 82.200814 79.090309 
L 81.857312 79.021393 
L 81.513537 78.953851 
L 81.169495 78.887685 
L 80.82519 78.822896 
L 80.48063 78.759484 
L 80.135818 78.697451 
L 79.790762 78.636798 
L 79.445465 78.577525 
L 79.099934 78.519634 
L 78.754174 78.463126 
L 78.408191 78.408001 
L 78.06199 78.354261 
L 77.715577 78.301905 
L 77.368957 78.250936 
L 77.022137 78.201354 
L 76.67512 78.15316 
L 76.327914 78.106353 
L 75.980523 78.060936 
L 75.632954 78.016909 
L 75.285211 77.974273 
L 74.9373 77.933028 
L 74.589227 77.893175 
L 74.240998 77.854714 
L 73.892617 77.817647 
L 73.544091 77.781974 
L 73.195425 77.747695 
L 72.846624 77.71481 
L 72.497695 77.683322 
L 72.148643 77.653229 
L 71.799473 77.624533 
L 71.450192 77.597233 
L 71.100803 77.571331 
L 70.751314 77.546827 
L 70.40173 77.523721 
L 70.052056 77.502013 
L 69.702298 77.481705 
L 69.352462 77.462795 
L 69.002553 77.445285 
L 68.652576 77.429175 
L 68.302538 77.414465 
L 67.952444 77.401155 
L 67.6023 77.389245 
L 67.25211 77.378736 
L 66.901882 77.369628 
L 66.551619 77.361921 
L 66.201329 77.355615 
L 65.851017 77.350711 
L 65.500687 77.347207 
L 65.150346 77.345105 
L 64.8 77.344404 
L 64.449654 77.345105 
L 64.099313 77.347207 
L 63.748983 77.350711 
L 63.398671 77.355615 
L 63.048381 77.361921 
L 62.698118 77.369628 
L 62.34789 77.378736 
L 61.9977 77.389245 
L 61.647556 77.401155 
L 61.297462 77.414465 
L 60.947424 77.429175 
L 60.597447 77.445285 
L 60.247538 77.462795 
L 59.897702 77.481705 
L 59.547944 77.502013 
L 59.19827 77.523721 
L 58.848686 77.546827 
L 58.499197 77.571331 
L 58.149808 77.597233 
L 57.800527 77.624533 
L 57.451357 77.653229 
L 57.102305 77.683322 
L 56.753376 77.71481 
L 56.404575 77.747695 
L 56.055909 77.781974 
L 55.707383 77.817647 
L 55.359002 77.854714 
L 55.010773 77.893175 
L 54.6627 77.933028 
L 54.314789 77.974273 
L 53.967046 78.016909 
L 53.619477 78.060936 
L 53.272086 78.106353 
L 52.92488 78.15316 
L 52.577863 78.201354 
L 52.231043 78.250936 
L 51.884423 78.301905 
L 51.53801 78.354261 
L 51.191809 78.408001 
L 50.845826 78.463126 
L 50.500066 78.519634 
L 50.154535 78.577525 
L 49.809238 78.636798 
L 49.464182 78.697451 
L 49.11937 78.759484 
L 48.77481 78.822896 
L 48.430505 78.887685 
L 48.086463 78.953851 
L 47.742688 79.021393 
L 47.399186 79.090309 
" style="fill:none;stroke:#000000;stroke-linecap:square;stroke-width:1.5;"/>
   </g>
   <g id="line2d_6">
    <path clip-path="url(#pa3d86a71ee)" d="M 70.711522 84.200869 
L 70.540575 84.327132 
L 70.371632 84.456065 
L 70.204736 84.587636 
L 70.039926 84.721812 
L 69.877245 84.85856 
L 69.716731 84.997847 
L 69.558425 85.139637 
L 69.402366 85.283897 
L 69.248592 85.43059 
L 69.097141 85.579681 
L 68.948051 85.731131 
L 68.801358 85.884906 
L 68.657098 86.040965 
L 68.515307 86.199271 
L 68.376021 86.359784 
L 68.239273 86.522466 
L 68.105097 86.687275 
L 67.973526 86.854172 
L 67.844593 87.023114 
L 67.71833 87.194062 
L 67.594767 87.366971 
L 67.473935 87.541799 
L 67.355865 87.718504 
L 67.240584 87.897042 
L 67.128123 88.077369 
L 67.018507 88.25944 
L 66.911765 88.44321 
L 66.807922 88.628634 
L 66.707005 88.815666 
L 66.609038 89.00426 
L 66.514046 89.19437 
L 66.422051 89.385949 
L 66.333077 89.578949 
L 66.247145 89.773322 
L 66.164277 89.969022 
L 66.084494 90.165998 
L 66.007813 90.364204 
L 65.934256 90.56359 
L 65.86384 90.764106 
L 65.796582 90.965704 
L 65.732498 91.168334 
L 65.671606 91.371945 
L 65.613919 91.576487 
L 65.559452 91.78191 
L 65.508218 91.988163 
L 65.460231 92.195196 
L 65.415501 92.402957 
L 65.37404 92.611395 
L 65.335858 92.820458 
L 65.300965 93.030095 
L 65.269369 93.240255 
L 65.241078 93.450885 
L 65.216099 93.661933 
L 65.194438 93.873348 
L 65.1761 94.085076 
L 65.16109 94.297067 
L 65.149412 94.509267 
L 65.141069 94.721625 
L 65.136062 94.934087 
L 65.134393 95.146602 
L 65.136062 95.359117 
L 65.141069 95.571579 
L 65.149412 95.783937 
L 65.16109 95.996137 
L 65.1761 96.208128 
L 65.194438 96.419857 
L 65.216099 96.631271 
L 65.241078 96.84232 
L 65.269369 97.052949 
L 65.300965 97.263109 
L 65.335858 97.472746 
L 65.37404 97.68181 
L 65.415501 97.890247 
L 65.460231 98.098008 
L 65.508218 98.305041 
L 65.559452 98.511294 
L 65.613919 98.716718 
L 65.671606 98.92126 
L 65.732498 99.124871 
L 65.796582 99.3275 
L 65.86384 99.529098 
L 65.934256 99.729615 
L 66.007813 99.929 
L 66.084494 100.127206 
L 66.164277 100.324183 
L 66.247145 100.519882 
L 66.333077 100.714256 
L 66.422051 100.907256 
L 66.514046 101.098834 
L 66.609038 101.288944 
L 66.707005 101.477538 
L 66.807922 101.664571 
L 66.911765 101.849995 
L 67.018507 102.033765 
L 67.128123 102.215836 
L 67.240584 102.396162 
L 67.355865 102.5747 
L 67.473935 102.751405 
L 67.594767 102.926234 
L 67.71833 103.099143 
" style="fill:none;stroke:#000000;stroke-linecap:square;stroke-width:0.5;"/>
   </g>
   <g id="line2d_7">
    <path clip-path="url(#pa3d86a71ee)" d="M 69.037303 81.896504 
L 68.830367 82.049349 
L 68.625858 82.205426 
L 68.423825 82.364696 
L 68.224319 82.527119 
L 68.027388 82.692657 
L 67.833083 82.861267 
L 67.641449 83.032908 
L 67.452535 83.207538 
L 67.266388 83.385114 
L 67.083052 83.565592 
L 66.902575 83.748927 
L 66.724999 83.935075 
L 66.550369 84.123988 
L 66.378727 84.315622 
L 66.210117 84.509928 
L 66.04458 84.706858 
L 65.882156 84.906364 
L 65.722887 85.108397 
L 65.56681 85.312907 
L 65.413965 85.519842 
L 65.264389 85.729154 
L 65.118119 85.940788 
L 64.975192 86.154694 
L 64.835642 86.370819 
L 64.699503 86.589109 
L 64.566811 86.809511 
L 64.437597 87.031969 
L 64.311893 87.25643 
L 64.18973 87.482837 
L 64.071138 87.711136 
L 63.956147 87.941269 
L 63.844785 88.17318 
L 63.73708 88.406811 
L 63.633057 88.642105 
L 63.532744 88.879005 
L 63.436163 89.11745 
L 63.34334 89.357383 
L 63.254297 89.598745 
L 63.169056 89.841476 
L 63.087638 90.085515 
L 63.010064 90.330803 
L 62.936352 90.57728 
L 62.86652 90.824884 
L 62.800587 91.073554 
L 62.738567 91.323229 
L 62.680477 91.573847 
L 62.62633 91.825347 
L 62.576141 92.077667 
L 62.529921 92.330744 
L 62.487681 92.584515 
L 62.449434 92.838919 
L 62.415186 93.093892 
L 62.384948 93.349371 
L 62.358727 93.605294 
L 62.336529 93.861597 
L 62.318359 94.118218 
L 62.304223 94.375092 
L 62.294122 94.632156 
L 62.288061 94.889347 
L 62.286041 95.146602 
L 62.288061 95.403857 
L 62.294122 95.661048 
L 62.304223 95.918113 
L 62.318359 96.174987 
L 62.336529 96.431607 
L 62.358727 96.68791 
L 62.384948 96.943833 
L 62.415186 97.199313 
L 62.449434 97.454286 
L 62.487681 97.708689 
L 62.529921 97.962461 
L 62.576141 98.215537 
L 62.62633 98.467857 
L 62.680477 98.719357 
L 62.738567 98.969975 
L 62.800587 99.219651 
L 62.86652 99.468321 
L 62.936352 99.715925 
L 63.010064 99.962401 
L 63.087638 100.207689 
L 63.169056 100.451729 
L 63.254297 100.694459 
L 63.34334 100.935821 
L 63.436163 101.175754 
L 63.532744 101.4142 
L 63.633057 101.651099 
L 63.73708 101.886393 
L 63.844785 102.120025 
L 63.956147 102.351936 
L 64.071138 102.582069 
L 64.18973 102.810367 
L 64.311893 103.036774 
L 64.437597 103.261235 
L 64.566811 103.483694 
L 64.699503 103.704095 
L 64.835642 103.922385 
L 64.975192 104.13851 
L 65.118119 104.352416 
L 65.264389 104.564051 
L 65.413965 104.773362 
" style="fill:none;stroke:#000000;stroke-linecap:square;stroke-width:0.5;"/>
   </g>
   <g id="patch_9">
    <path d="M 14.953846 193.414734 
L 14.953846 63.814734 
" style="fill:none;stroke:#000000;stroke-linecap:square;stroke-linejoin:miter;stroke-width:0.5;"/>
   </g>
   <g id="patch_10">
    <path d="M 114.646154 193.414734 
L 114.646154 63.814734 
" style="fill:none;stroke:#000000;stroke-linecap:square;stroke-linejoin:miter;stroke-width:0.5;"/>
   </g>
   <g id="patch_11">
    <path d="M 14.953846 193.414734 
L 114.646154 193.414734 
" style="fill:none;stroke:#000000;stroke-linecap:square;stroke-linejoin:miter;stroke-width:0.5;"/>
   </g>
   <g id="patch_12">
    <path d="M 14.953846 63.814734 
L 114.646154 63.814734 
" style="fill:none;stroke:#000000;stroke-linecap:square;stroke-linejoin:miter;stroke-width:0.5;"/>
   </g>
   <g id="text_1">
    <!-- $\theta$ -->
    <defs>
     <path d="M 44.296875 50 
C 44.296875 60.140625 41.09375 70 32.90625 70 
C 18.90625 70 4 40.859375 4 18.984375 
C 4 14.40625 5 -1 15.5 -1 
C 29.09375 -1 44.296875 27.421875 44.296875 50 
z
M 14 36 
C 15.5 41.859375 17.59375 50.203125 21.59375 57.265625 
C 24.90625 63.21875 28.40625 67.984375 32.796875 67.984375 
C 36.09375 67.984375 38.296875 65.203125 38.296875 55.671875 
C 38.296875 52.09375 38 47.125 35.09375 36 
z
M 34.40625 33 
C 31.90625 23.25 29.796875 17 26.203125 10.734375 
C 23.296875 5.65625 19.796875 1 15.59375 1 
C 12.5 1 10 3.375 10 13.21875 
C 10 19.671875 11.59375 26.4375 13.203125 33 
z
" id="CMMI12-18"/>
    </defs>
    <g transform="translate(86.162637 186.293855)scale(0.16 -0.16)">
     <use transform="scale(0.996264)" xlink:href="#CMMI12-18"/>
    </g>
   </g>
   <g id="text_2">
    <!-- T -->
    <defs>
     <path d="M 62.203125 67.6875 
L 4.5 67.6875 
L 2.796875 45.6875 
L 4.59375 45.6875 
C 5.90625 62.203125 7.296875 65.09375 22.703125 65.09375 
C 24.5 65.09375 27.40625 65.09375 28.203125 64.984375 
C 30.09375 64.6875 30.09375 63.5 30.09375 61.203125 
L 30.09375 7.265625 
C 30.09375 3.6875 29.796875 2.59375 21.5 2.59375 
L 18.703125 2.59375 
L 18.703125 0 
C 23.5 0.09375 28.5 0.1875 33.40625 0.1875 
C 38.296875 0.1875 43.296875 0.09375 48.09375 0 
L 48.09375 2.59375 
L 45.296875 2.59375 
C 37 2.59375 36.703125 3.6875 36.703125 7.265625 
L 36.703125 61.203125 
C 36.703125 63.390625 36.703125 64.59375 38.5 64.984375 
C 39.296875 65.09375 42.203125 65.09375 44 65.09375 
C 59.296875 65.09375 60.796875 62.203125 62.09375 45.6875 
L 63.90625 45.6875 
z
" id="CMR17-84"/>
    </defs>
    <g style="fill:#ff0000;" transform="translate(43.437363 164.931218)scale(0.16 -0.16)">
     <use transform="scale(0.996264)" xlink:href="#CMR17-84"/>
    </g>
   </g>
   <g id="text_3">
    <!-- Visible Region -->
    <defs>
     <path d="M 59 58.78125 
C 59.90625 60.984375 61.5 65.296875 68.203125 65.390625 
L 68.203125 68 
C 65.90625 67.796875 63.296875 67.796875 60.796875 67.796875 
C 58.40625 67.796875 54.296875 67.796875 52 68 
L 52 65.390625 
C 57 65.09375 57.203125 61.59375 57.203125 60.984375 
C 57.203125 59.890625 56.90625 59.1875 56.59375 58.390625 
L 36.90625 7 
L 16.296875 60.984375 
C 16 61.6875 15.796875 62.1875 15.796875 62.6875 
C 15.796875 65.390625 19.796875 65.390625 21.90625 65.390625 
L 21.90625 68 
C 18.703125 67.796875 14 67.796875 10.703125 67.796875 
C 8.09375 67.796875 3.40625 67.796875 1 68 
L 1 65.390625 
C 6.796875 65.390625 7.90625 65 9.09375 61.796875 
L 32.90625 -0.40625 
C 33.40625 -1.8125 33.5 -2 34.59375 -2 
C 35.703125 -2 35.796875 -1.8125 36.296875 -0.40625 
z
" id="CMR17-86"/>
     <path d="M 15.5 61.890625 
C 15.5 64.09375 13.703125 66 11.40625 66 
C 9.203125 66 7.296875 64.1875 7.296875 61.890625 
C 7.296875 59.6875 9.09375 57.796875 11.40625 57.796875 
C 13.59375 57.796875 15.5 59.59375 15.5 61.890625 
z
M 3.796875 42.890625 
L 3.796875 40.296875 
C 9.40625 40.296875 10.203125 39.6875 10.203125 34.859375 
L 10.203125 6.921875 
C 10.203125 3.09375 9.796875 2.59375 3.40625 2.59375 
L 3.40625 0 
C 5.796875 0.1875 10.09375 0.1875 12.59375 0.1875 
C 15 0.1875 19.09375 0.1875 21.40625 0 
L 21.40625 2.59375 
C 15.5 2.59375 15.296875 3.203125 15.296875 6.8125 
L 15.296875 44 
z
" id="CMR17-105"/>
     <path d="M 30.90625 42 
C 30.90625 43.796875 30.796875 43.890625 30.203125 43.890625 
C 29.796875 43.890625 29.703125 43.796875 28.5 42.296875 
C 28.203125 41.890625 27.296875 40.890625 27 40.5 
C 23.796875 43.890625 19.296875 44 17.59375 44 
C 6.5 44 2.5 38.1875 2.5 32.390625 
C 2.5 23.390625 12.703125 21.296875 15.59375 20.6875 
C 21.90625 19.390625 24.09375 19 26.203125 17.1875 
C 27.5 16 29.703125 13.796875 29.703125 10.1875 
C 29.703125 6 27.296875 0.59375 18.09375 0.59375 
C 9.40625 0.59375 6.296875 7.1875 4.5 16 
C 4.203125 17.390625 4.203125 17.5 3.40625 17.5 
C 2.59375 17.5 2.5 17.390625 2.5 15.390625 
L 2.5 1 
C 2.5 -0.8125 2.59375 -0.90625 3.203125 -0.90625 
C 3.703125 -0.90625 3.796875 -0.8125 4.296875 0 
C 4.90625 0.890625 6.40625 3.296875 7 4.296875 
C 9 1.59375 12.5 -1 18.09375 -1 
C 28 -1 33.296875 4.390625 33.296875 12.1875 
C 33.296875 17.296875 30.59375 20 29.296875 21.1875 
C 26.296875 24.296875 22.796875 25 18.59375 25.796875 
C 13.09375 27 6.09375 28.390625 6.09375 34.5 
C 6.09375 37.09375 7.5 42.59375 17.59375 42.59375 
C 28.296875 42.59375 28.90625 32.59375 29.09375 29.390625 
C 29.203125 28.890625 29.703125 28.796875 30 28.796875 
C 30.90625 28.796875 30.90625 29.09375 30.90625 30.796875 
z
" id="CMR17-115"/>
     <path d="M 15 69 
L 3.09375 67.890625 
L 3.09375 65.296875 
C 9 65.296875 9.90625 64.703125 9.90625 60.046875 
L 9.90625 -0.203125 
L 11.703125 -0.203125 
L 14.59375 6.953125 
C 17.5 2.203125 21.796875 -1 27.59375 -1 
C 37.59375 -1 47.703125 7.859375 47.703125 21.59375 
C 47.703125 34.515625 38.703125 44 28.59375 44 
C 22.40625 44 18 40.671875 15 36.734375 
z
M 15.203125 31.59375 
C 15.203125 33.40625 15.203125 33.703125 16.59375 35.828125 
C 20.5 41.890625 26.09375 42.390625 28 42.390625 
C 31 42.390625 41.296875 40.78125 41.296875 21.6875 
C 41.296875 1.703125 29.5 0.59375 27.09375 0.59375 
C 24 0.59375 19.5 1.796875 16.296875 7.65625 
C 15.203125 9.578125 15.203125 9.78125 15.203125 11.59375 
z
" id="CMR17-98"/>
     <path d="M 15.296875 69 
L 3.40625 67.890625 
L 3.40625 65.296875 
C 9.296875 65.296875 10.203125 64.703125 10.203125 59.921875 
L 10.203125 6.859375 
C 10.203125 3.09375 9.796875 2.59375 3.40625 2.59375 
L 3.40625 0 
C 5.796875 0.1875 10.203125 0.1875 12.703125 0.1875 
C 15.296875 0.1875 19.703125 0.1875 22.09375 0 
L 22.09375 2.59375 
C 15.703125 2.59375 15.296875 2.984375 15.296875 6.859375 
z
" id="CMR17-108"/>
     <path d="M 38.09375 23.484375 
C 38.5 23.890625 38.5 24.09375 38.5 25.09375 
C 38.5 35.171875 33.09375 44 21.703125 44 
C 11.09375 44 2.703125 33.984375 2.703125 21.78125 
C 2.703125 8.65625 12.203125 -1 22.796875 -1 
C 34 -1 38.40625 9.671875 38.40625 11.796875 
C 38.40625 12.5 37.796875 12.5 37.59375 12.5 
C 36.90625 12.5 36.796875 12.296875 36.40625 11.078125 
C 34.203125 4.21875 28.703125 0.796875 23.5 0.796875 
C 19.203125 0.796875 14.90625 3.21875 12.203125 7.65625 
C 9.09375 12.796875 9.09375 18.75 9.09375 23.484375 
z
M 9.203125 25 
C 9.90625 39.234375 17.59375 42.390625 21.59375 42.390625 
C 28.40625 42.390625 33 36.0625 33.09375 25 
z
" id="CMR17-101"/>
     <path d="M 39.203125 33.6875 
C 48.703125 35.59375 56.703125 42.015625 56.703125 50.046875 
C 56.703125 59.46875 46.09375 68 32.09375 68 
L 5.203125 68 
L 5.203125 65.390625 
C 12.09375 65.390625 13.203125 65.390625 13.203125 60.875 
L 13.203125 6.6875 
C 13.203125 2.1875 12.09375 2.1875 5.203125 2.1875 
L 5.203125 -0.40625 
C 8.09375 -0.203125 13.296875 -0.203125 16.40625 -0.203125 
C 19.5 -0.203125 24.703125 -0.203125 27.59375 -0.40625 
L 27.59375 2.1875 
C 20.703125 2.1875 19.59375 2.1875 19.59375 6.6875 
L 19.59375 33 
L 31.296875 33 
C 37 33 40.203125 30.6875 41.59375 29.390625 
C 45.59375 25.5 45.59375 22.796875 45.59375 16 
C 45.59375 9.296875 45.59375 5.890625 48.59375 2.5 
C 52.40625 -1.609375 57.5 -2 59.703125 -2 
C 67.09375 -2 68.203125 6.296875 68.203125 8 
C 68.203125 8.59375 68.203125 9.296875 67.296875 9.296875 
C 66.5 9.296875 66.40625 8.6875 66.40625 8.296875 
C 65.90625 1.796875 63 -0.40625 59.90625 -0.40625 
C 54.40625 -0.40625 53.796875 5.890625 53.203125 12 
C 52.90625 14.09375 52.703125 15.59375 52.5 17.796875 
C 51.90625 22.796875 51.09375 30.09375 39.203125 33.6875 
z
M 31 34.59375 
L 19.59375 34.59375 
L 19.59375 61.484375 
C 19.59375 64.890625 19.796875 65.390625 23.796875 65.390625 
L 31.09375 65.390625 
C 39.40625 65.390625 49.09375 62.484375 49.09375 50.046875 
C 49.09375 37.09375 38.5 34.59375 31 34.59375 
z
" id="CMR17-82"/>
     <path d="M 11.09375 18.203125 
C 13 16.6875 16.296875 15 20.296875 15 
C 28.203125 15 35 21.234375 35 29.609375 
C 35 32.234375 34.203125 36.265625 31.203125 39.390625 
C 34 42.390625 38.09375 43.390625 40.40625 43.390625 
C 40.796875 43.390625 41.40625 43.390625 41.90625 43.09375 
C 41.5 42.984375 40.59375 42.59375 40.59375 40.984375 
C 40.59375 39.6875 41.5 38.796875 42.796875 38.796875 
C 44.296875 38.796875 45.09375 39.796875 45.09375 41.09375 
C 45.09375 42.984375 43.59375 45 40.40625 45 
C 36.40625 45 32.90625 43.09375 30.09375 40.484375 
C 27.09375 43.1875 23.5 44.1875 20.296875 44.1875 
C 12.40625 44.1875 5.59375 37.984375 5.59375 29.609375 
C 5.59375 23.859375 8.90625 20.21875 9.90625 19.21875 
C 6.90625 15.6875 6.90625 11.59375 6.90625 11.09375 
C 6.90625 8.5 7.90625 4.6875 11.296875 2.59375 
C 6.09375 1.28125 2 -2.875 2 -8.078125 
C 2 -15.5625 11.5 -21 22.90625 -21 
C 33.90625 -21 43.796875 -15.765625 43.796875 -7.96875 
C 43.796875 6 29 6 21.296875 6 
C 19 6 14.90625 6 14.40625 6.09375 
C 11.296875 6.59375 9.203125 9.390625 9.203125 12.890625 
C 9.203125 13.796875 9.203125 16 11.09375 18.203125 
z
M 20.296875 16.6875 
C 11.5 16.6875 11.5 27.59375 11.5 29.609375 
C 11.5 31.625 11.5 42.484375 20.296875 42.484375 
C 29.09375 42.484375 29.09375 31.625 29.09375 29.609375 
C 29.09375 27.59375 29.09375 16.6875 20.296875 16.6875 
z
M 22.90625 -19.3125 
C 12.90625 -19.3125 6 -13.796875 6 -8.078125 
C 6 -4.859375 7.703125 -1.84375 9.90625 -0.171875 
C 12.40625 1.59375 13.40625 1.59375 20.203125 1.59375 
C 28.40625 1.59375 39.796875 1.59375 39.796875 -8.078125 
C 39.796875 -13.796875 32.90625 -19.3125 22.90625 -19.3125 
z
" id="CMR17-103"/>
     <path d="M 43.09375 21.1875 
C 43.09375 34 33.796875 44 22.90625 44 
C 12 44 2.703125 34 2.703125 21.1875 
C 2.703125 8.59375 12 -1 22.90625 -1 
C 33.796875 -1 43.09375 8.59375 43.09375 21.1875 
z
M 22.90625 0.796875 
C 18.203125 0.796875 14.203125 3.59375 11.90625 7.5 
C 9.40625 12 9.09375 17.59375 9.09375 22 
C 9.09375 26.1875 9.296875 31.390625 11.90625 35.890625 
C 13.90625 39.1875 17.796875 42.390625 22.90625 42.390625 
C 27.40625 42.390625 31.203125 39.890625 33.59375 36.390625 
C 36.703125 31.6875 36.703125 25.09375 36.703125 22 
C 36.703125 18.09375 36.5 12.09375 33.796875 7.296875 
C 31 2.6875 26.703125 0.796875 22.90625 0.796875 
z
" id="CMR17-111"/>
     <path d="M 41.5 30.53125 
C 41.5 35.65625 40.5 44 28.703125 44 
C 20.796875 44 16.703125 37.875 15.203125 33.84375 
L 15.09375 33.84375 
L 15.09375 44 
L 3.296875 42.890625 
L 3.296875 40.28125 
C 9.203125 40.28125 10.09375 39.6875 10.09375 34.859375 
L 10.09375 6.921875 
C 10.09375 3.09375 9.703125 2.59375 3.296875 2.59375 
L 3.296875 0 
C 5.703125 0.1875 10.09375 0.1875 12.703125 0.1875 
C 15.296875 0.1875 19.796875 0.1875 22.203125 0 
L 22.203125 2.59375 
C 15.796875 2.59375 15.40625 3 15.40625 6.921875 
L 15.40625 26.21875 
C 15.40625 35.453125 21 42.390625 28 42.390625 
C 35.40625 42.390625 36.203125 35.765625 36.203125 30.9375 
L 36.203125 6.921875 
C 36.203125 3.09375 35.796875 2.59375 29.40625 2.59375 
L 29.40625 0 
C 31.796875 0.1875 36.203125 0.1875 38.796875 0.1875 
C 41.40625 0.1875 45.90625 0.1875 48.296875 0 
L 48.296875 2.59375 
C 41.90625 2.59375 41.5 3 41.5 6.921875 
z
" id="CMR17-110"/>
    </defs>
    <g transform="translate(37.740659 73.071877)scale(0.08 -0.08)">
     <use transform="scale(0.996264)" xlink:href="#CMR17-86"/>
     <use transform="translate(69.07243 0)scale(0.996264)" xlink:href="#CMR17-105"/>
     <use transform="translate(93.943488 0)scale(0.996264)" xlink:href="#CMR17-115"/>
     <use transform="translate(129.744826 0)scale(0.996264)" xlink:href="#CMR17-105"/>
     <use transform="translate(154.615884 0)scale(0.996264)" xlink:href="#CMR17-98"/>
     <use transform="translate(205.511254 0)scale(0.996264)" xlink:href="#CMR17-108"/>
     <use transform="translate(230.382313 0)scale(0.996264)" xlink:href="#CMR17-101"/>
     <use transform="translate(300.943939 0)scale(0.996264)" xlink:href="#CMR17-82"/>
     <use transform="translate(368.735041 0)scale(0.996264)" xlink:href="#CMR17-101"/>
     <use transform="translate(409.220702 0)scale(0.996264)" xlink:href="#CMR17-103"/>
     <use transform="translate(454.911179 0)scale(0.996264)" xlink:href="#CMR17-105"/>
     <use transform="translate(479.782238 0)scale(0.996264)" xlink:href="#CMR17-111"/>
     <use transform="translate(525.472715 0)scale(0.996264)" xlink:href="#CMR17-110"/>
    </g>
   </g>
   <g id="text_4">
    <!-- a) -->
    <defs>
     <path d="M 36 25.875 
C 36 32 36 35.546875 31.796875 39.59375 
C 28.09375 42.984375 23.796875 44 20.40625 44 
C 12.5 44 6.796875 37.625 6.796875 30.890625 
C 6.796875 27.1875 9.796875 27 10.40625 27 
C 11.703125 27 14 27.796875 14 30.59375 
C 14 33.09375 12.09375 34.1875 10.40625 34.1875 
C 10 34.1875 9.5 34.09375 9.203125 34 
C 11.296875 40.53125 16.703125 42.390625 20.203125 42.390625 
C 25.203125 42.390625 30.703125 37.828125 30.703125 29.296875 
L 30.703125 25.5 
C 24.796875 25.296875 17.703125 24.5 12.09375 21.453125 
C 5.796875 17.921875 4 12.84375 4 9 
C 4 1.203125 13 -1 18.296875 -1 
C 23.796875 -1 28.90625 2.109375 31.09375 7.890625 
C 31.296875 3.421875 34.09375 -0.609375 38.5 -0.609375 
C 40.59375 -0.609375 45.90625 0.796875 45.90625 8.796875 
L 45.90625 14.46875 
L 44.09375 14.46875 
L 44.09375 8.703125 
C 44.09375 2.515625 41.40625 1.703125 40.09375 1.703125 
C 36 1.703125 36 6.96875 36 11.4375 
z
M 30.703125 13.859375 
C 30.703125 5.046875 24.5 0.59375 19 0.59375 
C 14 0.59375 10.09375 4.34375 10.09375 9 
C 10.09375 12.046875 11.40625 17.40625 17.203125 20.65625 
C 22 23.390625 27.5 23.796875 30.703125 24 
z
" id="CMR17-97"/>
     <path d="M 26.296875 24.9375 
C 26.296875 32.140625 25.59375 44.359375 19.59375 57.265625 
C 14.796875 67.6875 6.59375 75 5.40625 75 
C 5.09375 75 4.703125 74.890625 4.703125 74.390625 
C 4.703125 74.1875 4.796875 74.09375 4.90625 73.890625 
C 9.703125 68.875 21.90625 56.171875 21.90625 25.046875 
C 21.90625 -6.1875 9.796875 -18.90625 4.90625 -23.90625 
C 4.796875 -24.109375 4.703125 -24.203125 4.703125 -24.40625 
C 4.703125 -24.90625 5.09375 -25 5.40625 -25 
C 6.5 -25 15 -17.609375 19.90625 -6.59375 
C 24.90625 4.515625 26.296875 15.328125 26.296875 24.9375 
z
" id="CMR17-41"/>
    </defs>
    <g transform="translate(0 57.334734)scale(0.15 -0.15)">
     <use transform="scale(0.996264)" xlink:href="#CMR17-97"/>
     <use transform="translate(45.690477 0)scale(0.996264)" xlink:href="#CMR17-41"/>
    </g>
   </g>
  </g>
  <g id="axes_2">
   <g id="patch_13">
    <path d="M 133.92 193.414734 
L 249.12 193.414734 
L 249.12 63.814734 
L 133.92 63.814734 
z
" style="fill:none;"/>
   </g>
   <g id="matplotlib.axis_3">
    <g id="xtick_4">
     <g id="line2d_8">
      <defs>
       <path d="M 0 0 
L 0 -3.5 
" id="m3c21c5c714" style="stroke:#000000;stroke-width:0.8;"/>
      </defs>
      <g>
       <use style="stroke:#000000;stroke-width:0.8;" x="141.828628" xlink:href="#m3c21c5c714" y="193.414734"/>
      </g>
     </g>
     <g id="text_5">
      <!-- $-\pi$ -->
      <defs>
       <path d="M 65.90625 23 
C 67.59375 23 69.40625 23 69.40625 25 
C 69.40625 27 67.59375 27 65.90625 27 
L 11.796875 27 
C 10.09375 27 8.296875 27 8.296875 25 
C 8.296875 23 10.09375 23 11.796875 23 
z
" id="CMSY10-0"/>
       <path d="M 25.90625 37.59375 
L 37.203125 37.59375 
C 34.5 26.421875 32.796875 19.140625 32.796875 11.171875 
C 32.796875 9.765625 32.796875 -1 36.90625 -1 
C 39 -1 40.796875 0.890625 40.796875 2.59375 
C 40.796875 3.09375 40.796875 3.28125 40.09375 4.78125 
C 37.40625 11.65625 37.40625 20.234375 37.40625 20.9375 
C 37.40625 21.53125 37.40625 28.625 39.5 37.59375 
L 50.703125 37.59375 
C 52 37.59375 55.296875 37.59375 55.296875 40.796875 
C 55.296875 43 53.40625 43 51.59375 43 
L 18.703125 43 
C 16.40625 43 13 43 8.40625 38.09375 
C 5.796875 35.203125 2.59375 29.921875 2.59375 29.3125 
C 2.59375 28.71875 3.09375 28.515625 3.703125 28.515625 
C 4.40625 28.515625 4.5 28.8125 5 29.421875 
C 10.203125 37.59375 15.40625 37.59375 17.90625 37.59375 
L 23.59375 37.59375 
C 21.40625 30.109375 18.90625 21.4375 10.703125 3.984375 
C 9.90625 2.390625 9.90625 2.1875 9.90625 1.59375 
C 9.90625 -0.5 11.703125 -1 12.59375 -1 
C 15.5 -1 16.296875 1.59375 17.5 5.78125 
C 19.09375 10.859375 19.09375 11.0625 20.09375 15.0625 
z
" id="CMMI12-25"/>
      </defs>
      <g transform="translate(136.103948 202.449536)scale(0.08 -0.08)">
       <use transform="scale(0.996264)" xlink:href="#CMSY10-0"/>
       <use transform="translate(77.487468 0)scale(0.996264)" xlink:href="#CMMI12-25"/>
      </g>
     </g>
    </g>
    <g id="xtick_5">
     <g id="line2d_9">
      <g>
       <use style="stroke:#000000;stroke-width:0.8;" x="191.52" xlink:href="#m3c21c5c714" y="193.414734"/>
      </g>
     </g>
     <g id="text_6">
      <!-- $0$ -->
      <defs>
       <path d="M 42 31.84375 
C 42 37.96875 41.90625 48.421875 37.703125 56.453125 
C 34 63.484375 28.09375 66 22.90625 66 
C 18.09375 66 12 63.78125 8.203125 56.5625 
C 4.203125 49.015625 3.796875 39.671875 3.796875 31.84375 
C 3.796875 26.109375 3.90625 17.375 7 9.734375 
C 11.296875 -0.609375 19 -2 22.90625 -2 
C 27.5 -2 34.5 -0.109375 38.59375 9.4375 
C 41.59375 16.375 42 24.5 42 31.84375 
z
M 22.90625 -0.40625 
C 16.5 -0.40625 12.703125 5.125 11.296875 12.75 
C 10.203125 18.6875 10.203125 27.328125 10.203125 32.953125 
C 10.203125 40.6875 10.203125 47.109375 11.5 53.234375 
C 13.40625 61.78125 19 64.390625 22.90625 64.390625 
C 27 64.390625 32.296875 61.671875 34.203125 53.4375 
C 35.5 47.71875 35.59375 40.984375 35.59375 32.953125 
C 35.59375 26.421875 35.59375 18.375 34.40625 12.453125 
C 32.296875 1.5 26.40625 -0.40625 22.90625 -0.40625 
z
" id="CMR17-48"/>
      </defs>
      <g transform="translate(189.402909 202.449536)scale(0.08 -0.08)">
       <use transform="scale(0.996264)" xlink:href="#CMR17-48"/>
      </g>
     </g>
    </g>
    <g id="xtick_6">
     <g id="line2d_10">
      <g>
       <use style="stroke:#000000;stroke-width:0.8;" x="241.211372" xlink:href="#m3c21c5c714" y="193.414734"/>
      </g>
     </g>
     <g id="text_7">
      <!-- $\pi$ -->
      <g transform="translate(238.779946 202.449536)scale(0.08 -0.08)">
       <use transform="scale(0.996264)" xlink:href="#CMMI12-25"/>
      </g>
     </g>
    </g>
    <g id="text_8">
     <!-- $\theta$ (rad) -->
     <defs>
      <path d="M 30.59375 -24.40625 
C 30.59375 -24.3125 30.59375 -24.109375 30.296875 -23.8125 
C 25.703125 -19.109375 13.40625 -6.296875 13.40625 24.9375 
C 13.40625 56.171875 25.5 68.875 30.40625 73.890625 
C 30.40625 73.984375 30.59375 74.1875 30.59375 74.484375 
C 30.59375 74.796875 30.296875 75 29.90625 75 
C 28.796875 75 20.296875 67.578125 15.40625 56.5625 
C 10.40625 45.453125 9 34.65625 9 25.046875 
C 9 17.828125 9.703125 5.625 15.703125 -7.296875 
C 20.5 -17.703125 28.703125 -25 29.90625 -25 
C 30.40625 -25 30.59375 -24.8125 30.59375 -24.40625 
z
" id="CMR17-40"/>
      <path d="M 15 23.703125 
C 15 33.34375 19.09375 42.390625 26.59375 42.390625 
C 27.296875 42.390625 28 42.296875 28.703125 41.984375 
C 28.703125 41.984375 26.5 41.28125 26.5 38.671875 
C 26.5 36.265625 28.40625 35.265625 29.90625 35.265625 
C 31.09375 35.265625 33.296875 35.96875 33.296875 38.78125 
C 33.296875 41.984375 30.09375 44 26.703125 44 
C 19.09375 44 15.796875 36.5625 14.796875 33.046875 
L 14.703125 33.046875 
L 14.703125 44 
L 3.09375 42.890625 
L 3.09375 40.28125 
C 9 40.28125 9.90625 39.6875 9.90625 34.859375 
L 9.90625 6.921875 
C 9.90625 3.09375 9.5 2.59375 3.09375 2.59375 
L 3.09375 0 
C 5.5 0.1875 10.09375 0.1875 12.703125 0.1875 
C 15.59375 0.1875 20.703125 0.1875 23.40625 0 
L 23.40625 2.59375 
C 16.203125 2.59375 15 2.59375 15 7.109375 
z
" id="CMR17-114"/>
      <path d="M 29.203125 67.890625 
L 29.203125 65.296875 
C 35.09375 65.296875 36 64.703125 36 60.046875 
L 36 37.046875 
C 35.59375 37.546875 31.5 44 23.40625 44 
C 13.203125 44 3.296875 34.8125 3.296875 21.5 
C 3.296875 8.265625 12.59375 -1 22.40625 -1 
C 30.90625 -1 35.296875 5.640625 35.796875 6.34375 
L 35.796875 -1 
L 47.90625 -0.203125 
L 47.90625 2.40625 
C 42 2.40625 41.09375 3.015625 41.09375 7.859375 
L 41.09375 69 
z
M 35.796875 11.90625 
C 35.796875 8.875 34 6.140625 31.703125 4.125 
C 28.296875 1.09375 24.90625 0.59375 23 0.59375 
C 20.09375 0.59375 9.703125 2.109375 9.703125 21.390625 
C 9.703125 41.1875 21.296875 42.390625 23.90625 42.390625 
C 28.5 42.390625 32.203125 39.765625 34.5 36.140625 
C 35.796875 34.015625 35.796875 33.703125 35.796875 31.890625 
z
" id="CMR17-100"/>
     </defs>
     <g transform="translate(178.602985 213.976866)scale(0.08 -0.08)">
      <use transform="scale(0.996264)" xlink:href="#CMMI12-18"/>
      <use transform="translate(78.245474 0)scale(0.996264)" xlink:href="#CMR17-40"/>
      <use transform="translate(113.526242 0)scale(0.996264)" xlink:href="#CMR17-114"/>
      <use transform="translate(148.80701 0)scale(0.996264)" xlink:href="#CMR17-97"/>
      <use transform="translate(194.497487 0)scale(0.996264)" xlink:href="#CMR17-100"/>
      <use transform="translate(245.392857 0)scale(0.996264)" xlink:href="#CMR17-41"/>
     </g>
    </g>
   </g>
   <g id="matplotlib.axis_4">
    <g id="ytick_8">
     <g id="line2d_11">
      <defs>
       <path d="M 0 0 
L 3.5 0 
" id="m8feb3ac077" style="stroke:#000000;stroke-width:0.8;"/>
      </defs>
      <g>
       <use style="stroke:#000000;stroke-width:0.8;" x="133.92" xlink:href="#m8feb3ac077" y="190.494176"/>
      </g>
     </g>
     <g id="text_9">
      <!-- $-6$ -->
      <defs>
       <path d="M 10.59375 34.34375 
C 10.59375 58 21.796875 63.6875 28.296875 63.6875 
C 30.40625 63.6875 35.5 63.265625 37.5 59.09375 
C 35.90625 59.09375 32.90625 59.09375 32.90625 55.59375 
C 32.90625 52.890625 35.09375 52 36.5 52 
C 37.40625 52 40.09375 52.390625 40.09375 55.796875 
C 40.09375 62.296875 35.09375 66 28.203125 66 
C 16.296875 66 3.796875 53.296875 3.796875 31.421875 
C 3.796875 4.015625 15.09375 -2 23.09375 -2 
C 32.796875 -2 42 6.734375 42 20.234375 
C 42 32.828125 33.90625 42 23.703125 42 
C 17.59375 42 13.09375 37.96875 10.59375 30.921875 
z
M 23.09375 0.390625 
C 10.796875 0.390625 10.796875 18.9375 10.796875 22.65625 
C 10.796875 29.90625 14.203125 40.390625 23.5 40.390625 
C 25.203125 40.390625 30.09375 40.390625 33.40625 33.4375 
C 35.203125 29.515625 35.203125 25.375 35.203125 20.34375 
C 35.203125 14.90625 35.203125 10.875 33.09375 6.84375 
C 30.90625 2.703125 27.703125 0.390625 23.09375 0.390625 
z
" id="CMR17-54"/>
      </defs>
      <g transform="translate(119.59931 193.261577)scale(0.08 -0.08)">
       <use transform="scale(0.996264)" xlink:href="#CMSY10-0"/>
       <use transform="translate(77.487468 0)scale(0.996264)" xlink:href="#CMR17-54"/>
      </g>
     </g>
    </g>
    <g id="ytick_9">
     <g id="line2d_12">
      <g>
       <use style="stroke:#000000;stroke-width:0.8;" x="133.92" xlink:href="#m8feb3ac077" y="128.614734"/>
      </g>
     </g>
     <g id="text_10">
      <!-- $0$ -->
      <g transform="translate(126.185817 131.382135)scale(0.08 -0.08)">
       <use transform="scale(0.996264)" xlink:href="#CMR17-48"/>
      </g>
     </g>
    </g>
    <g id="ytick_10">
     <g id="line2d_13">
      <g>
       <use style="stroke:#000000;stroke-width:0.8;" x="133.92" xlink:href="#m8feb3ac077" y="66.735292"/>
      </g>
     </g>
     <g id="text_11">
      <!-- $6$ -->
      <g transform="translate(126.185817 69.502693)scale(0.08 -0.08)">
       <use transform="scale(0.996264)" xlink:href="#CMR17-54"/>
      </g>
     </g>
    </g>
    <g id="text_12">
     <!-- $\dot{\theta}$ (rad/s) -->
     <defs>
      <path d="M 16.5 61.890625 
C 16.5 64.296875 14.59375 66 12.5 66 
C 10.09375 66 8.40625 64.09375 8.40625 61.890625 
C 8.40625 59.484375 10.296875 57.796875 12.40625 57.796875 
C 14.796875 57.796875 16.5 59.6875 16.5 61.890625 
z
" id="CMR17-95"/>
      <path d="M 40.703125 71.484375 
C 41.203125 72.78125 41.203125 72.984375 41.203125 73.1875 
C 41.203125 74.390625 40.296875 75 39.5 75 
C 38.296875 75 37.90625 74.1875 37.5 72.984375 
L 5.09375 -21.5 
C 4.59375 -22.8125 4.59375 -23 4.59375 -23.203125 
C 4.59375 -24.40625 5.5 -25 6.296875 -25 
C 7.5 -25 7.90625 -24.203125 8.296875 -23 
z
" id="CMR17-47"/>
     </defs>
     <g transform="translate(113.606782 145.318992)rotate(-90)scale(0.08 -0.08)">
      <use transform="translate(19.778385 26.296621)scale(0.996264)" xlink:href="#CMR17-95"/>
      <use transform="scale(0.996264)" xlink:href="#CMMI12-18"/>
      <use transform="translate(78.245474 0)scale(0.996264)" xlink:href="#CMR17-40"/>
      <use transform="translate(113.526242 0)scale(0.996264)" xlink:href="#CMR17-114"/>
      <use transform="translate(148.80701 0)scale(0.996264)" xlink:href="#CMR17-97"/>
      <use transform="translate(194.497487 0)scale(0.996264)" xlink:href="#CMR17-100"/>
      <use transform="translate(245.392857 0)scale(0.996264)" xlink:href="#CMR17-47"/>
      <use transform="translate(291.083334 0)scale(0.996264)" xlink:href="#CMR17-115"/>
      <use transform="translate(326.884671 0)scale(0.996264)" xlink:href="#CMR17-41"/>
     </g>
    </g>
   </g>
   <g id="LineCollection_1">
    <path clip-path="url(#peb3aa42080)" d="M 0 0 
" style="fill:none;stroke:#b2b2b2;stroke-opacity:0.7;stroke-width:1.5;"/>
    <path clip-path="url(#peb3aa42080)" d="M 92.137255 96.00147 
L 93.528614 96.127909 
L 94.919972 96.508909 
L 96.31133 97.150842 
L 97.732193 98.087543 
L 99.150763 99.325132 
L 100.485406 100.791091 
L 101.876764 102.673884 
L 103.217451 104.894281 
L 104.446118 107.369459 
L 105.53914 110.050902 
L 106.555659 113.144874 
L 107.396845 116.44511 
L 108.038494 119.885268 
L 108.452923 123.251849 
L 108.671334 126.758351 
L 108.677536 130.264853 
L 108.471667 133.771354 
L 108.038494 137.3442 
L 107.396845 140.784358 
L 106.555659 144.084595 
L 105.53914 147.178567 
L 104.352324 150.066274 
L 103.069357 152.60312 
L 101.677999 154.848891 
L 100.28664 156.676712 
L 98.895282 158.151063 
L 97.45411 159.34819 
L 96.112565 160.186793 
L 94.717763 160.792044 
L 93.329848 161.135128 
L 92.137255 161.227998 
L 92.137255 161.227998 
" style="fill:none;stroke:#b2b2b2;stroke-opacity:0.7;stroke-width:1.5;"/>
    <path clip-path="url(#peb3aa42080)" d="M 190.923704 161.204882 
L 189.532345 160.969797 
L 188.140987 160.477911 
L 186.749628 159.72113 
L 185.35827 158.68535 
L 183.966911 157.348991 
L 182.575553 155.67887 
L 181.280988 153.77904 
L 179.991602 151.487781 
L 178.764667 148.828685 
L 177.682687 145.940978 
L 176.758617 142.847006 
L 176.0031 139.546769 
L 175.433904 136.040267 
L 175.088561 132.533765 
L 174.957828 129.027264 
L 175.038577 125.520762 
L 175.333072 122.01426 
L 175.848355 118.507759 
L 176.548648 115.207522 
L 177.413953 112.11355 
L 178.512941 109.019577 
L 179.694364 106.338135 
L 180.985429 103.936814 
L 182.390583 101.800309 
L 183.768146 100.097648 
L 185.170504 98.706337 
L 186.550863 97.638813 
L 187.942221 96.843049 
L 189.33358 96.314146 
L 190.724938 96.042674 
L 192.119704 96.024895 
L 193.507655 96.259671 
L 194.899013 96.751557 
L 196.290372 97.508338 
L 197.68173 98.544118 
L 199.073089 99.880477 
L 200.464447 101.550598 
L 201.759012 103.450428 
L 203.048398 105.741687 
L 204.275333 108.400783 
L 205.357313 111.28849 
L 206.281383 114.382462 
L 207.0369 117.682699 
L 207.606096 121.189201 
L 207.951439 124.695703 
L 208.082172 128.202204 
L 208.001423 131.708706 
L 207.706928 135.215208 
L 207.191645 138.72171 
L 206.491352 142.021946 
L 205.626047 145.115919 
L 204.527059 148.209891 
L 203.345636 150.891333 
L 202.054571 153.292654 
L 200.649417 155.429159 
L 199.271854 157.13182 
L 197.869496 158.523131 
L 196.489137 159.590655 
L 195.097779 160.386419 
L 193.70642 160.915323 
L 192.315062 161.186794 
L 190.923704 161.204882 
L 190.923704 161.204882 
" style="fill:none;stroke:#b2b2b2;stroke-opacity:0.7;stroke-width:1.5;"/>
   </g>
   <g id="LineCollection_2">
    <path clip-path="url(#peb3aa42080)" d="M 0 0 
" style="fill:none;stroke:#b2b2b2;stroke-opacity:0.7;stroke-width:1.5;"/>
    <path clip-path="url(#peb3aa42080)" d="M 92.137255 82.492631 
L 93.782425 82.617682 
L 95.317503 82.959554 
L 96.907627 83.545531 
L 98.497751 84.370408 
L 100.175091 85.50539 
L 101.677999 86.759464 
L 103.466888 88.558761 
L 105.217225 90.66201 
L 106.845901 92.951101 
L 108.598097 95.81863 
L 110.218911 98.912602 
L 111.702293 102.212839 
L 113.044641 105.719341 
L 114.233011 109.432107 
L 115.247127 113.351138 
L 116.025402 117.27017 
L 116.57291 121.189201 
L 116.891515 125.108232 
L 116.981676 129.027264 
L 116.843429 132.946295 
L 116.476693 136.865326 
L 115.880831 140.784358 
L 115.053485 144.703389 
L 114.001459 148.579741 
L 112.808866 152.170423 
L 111.352703 155.841688 
L 109.810374 159.141925 
L 108.12147 162.235897 
L 106.414803 164.91734 
L 104.659481 167.276183 
L 102.870592 169.308491 
L 101.081702 170.995074 
L 99.292813 172.355619 
L 97.560449 173.374197 
L 96.112565 174.006629 
L 94.522441 174.474394 
L 92.932317 174.707696 
L 92.137255 174.736837 
L 92.137255 174.736837 
" style="fill:none;stroke:#b2b2b2;stroke-opacity:0.7;stroke-width:1.5;"/>
    <path clip-path="url(#peb3aa42080)" d="M 189.929876 174.620346 
L 188.339752 174.269914 
L 186.749628 173.683937 
L 185.159504 172.85906 
L 183.482164 171.724079 
L 181.979256 170.470004 
L 180.190367 168.670707 
L 178.44003 166.567458 
L 176.811354 164.278367 
L 175.059158 161.410838 
L 173.438344 158.316866 
L 171.954962 155.016629 
L 170.612614 151.510128 
L 169.424244 147.797361 
L 168.410128 143.87833 
L 167.631853 139.959298 
L 167.084345 136.040267 
L 166.76574 132.121236 
L 166.675579 128.202204 
L 166.813826 124.283173 
L 167.180562 120.364142 
L 167.776424 116.44511 
L 168.60377 112.526079 
L 169.655796 108.649727 
L 170.848389 105.059045 
L 172.304552 101.38778 
L 173.846881 98.087543 
L 175.535785 94.993571 
L 177.242452 92.312128 
L 178.997774 89.953285 
L 180.786664 87.920978 
L 182.575553 86.234394 
L 184.364442 84.873849 
L 186.096806 83.855271 
L 187.54469 83.222839 
L 189.134814 82.755074 
L 190.724938 82.521772 
L 192.315062 82.521772 
L 193.905186 82.755074 
L 195.531515 83.236477 
L 197.085434 83.927824 
L 198.694322 84.886595 
L 200.333496 86.124184 
L 202.054571 87.716932 
L 203.778114 89.630686 
L 205.433584 91.79144 
L 207.132857 94.374776 
L 208.812598 97.347581 
L 210.402722 100.631048 
L 211.823716 104.069222 
L 213.115773 107.781989 
L 214.17943 111.494755 
L 215.068457 115.413786 
L 215.724903 119.332818 
L 216.151829 123.251849 
L 216.350185 127.17088 
L 216.320131 131.089912 
L 216.061654 135.008943 
L 215.570624 138.952922 
L 214.857253 142.847006 
L 213.905962 146.766037 
L 212.780605 150.478804 
L 211.396549 154.253574 
L 209.897536 157.698072 
L 208.325112 160.792044 
L 206.617861 163.679751 
L 204.837288 166.254723 
L 203.048398 168.449455 
L 201.259509 170.286827 
L 199.47062 171.790208 
L 197.705408 172.961667 
L 196.290372 173.683937 
L 194.700248 174.269914 
L 193.110124 174.620346 
L 191.52 174.736837 
L 189.929876 174.620346 
L 189.929876 174.620346 
" style="fill:none;stroke:#b2b2b2;stroke-opacity:0.7;stroke-width:1.5;"/>
   </g>
   <g id="LineCollection_3">
    <path clip-path="url(#peb3aa42080)" d="M 250.12 165.927257 
L 248.168165 164.196697 
L 246.379275 162.909872 
L 244.746144 162.029633 
L 243.397793 161.537525 
L 242.006434 161.26909 
L 240.615076 161.251114 
L 239.223718 161.484075 
L 237.832359 161.961044 
L 236.441001 162.668227 
L 234.850877 163.733227 
L 233.061987 165.217622 
L 230.875567 167.36858 
L 228.278088 170.280225 
L 224.713837 174.653242 
L 215.570624 186.040862 
L 212.330998 189.669117 
L 209.408894 192.619588 
L 206.70127 195.032002 
L 204.294104 196.888385 
L 202.054571 198.353694 
L 199.779359 199.569827 
L 197.68173 200.439235 
L 195.694075 201.033657 
L 193.70642 201.40107 
L 191.718765 201.539132 
L 189.731111 201.44709 
L 187.743456 201.125348 
L 185.755801 200.57613 
L 183.708654 199.776092 
L 181.581726 198.69946 
L 179.338009 197.300915 
L 177.010119 195.578179 
L 174.624933 193.543119 
L 171.89471 190.906706 
L 169.014016 187.812733 
L 165.66892 183.893702 
L 160.890291 177.912023 
L 154.748384 170.264177 
L 151.965668 167.160069 
L 149.779247 165.039268 
L 147.833741 163.473486 
L 146.400234 162.553702 
L 144.81011 161.800645 
L 143.418751 161.392261 
L 142.027393 161.230567 
L 140.636035 161.32043 
L 139.244676 161.659322 
L 137.853318 162.237059 
L 136.263194 163.16828 
L 134.497117 164.50481 
L 132.884181 165.961508 
L 130.69776 168.22501 
L 127.859821 171.517814 
L 123.738272 176.674434 
L 117.131944 184.925026 
L 113.603928 188.962653 
L 110.622446 192.045248 
L 108.038494 194.423001 
L 105.454543 196.494508 
L 103.047684 198.125974 
L 100.82252 199.363563 
L 98.696516 200.293404 
L 96.708861 200.93279 
L 94.721206 201.34584 
L 92.733552 201.529919 
L 92.137255 201.540284 
L 92.137255 201.540284 
" style="fill:none;stroke:#b2b2b2;stroke-opacity:0.7;stroke-width:1.5;"/>
    <path clip-path="url(#peb3aa42080)" d="M 92.137255 55.689185 
L 94.12491 55.804213 
L 96.112565 56.148844 
L 98.10022 56.7207 
L 100.087875 57.516143 
L 102.274295 58.643166 
L 104.460715 60.025394 
L 106.845901 61.81068 
L 109.429853 64.050562 
L 112.013804 66.580559 
L 115.00856 69.829264 
L 118.573065 74.049343 
L 123.740968 80.558485 
L 128.908871 86.965292 
L 131.691588 90.069399 
L 133.878008 92.190201 
L 135.823514 93.755982 
L 137.257021 94.675766 
L 138.847145 95.428823 
L 140.238504 95.837207 
L 141.629862 95.998902 
L 143.02122 95.909038 
L 144.412579 95.570146 
L 145.803937 94.992409 
L 147.394061 94.061188 
L 149.160138 92.724658 
L 150.773075 91.26796 
L 152.959495 89.004458 
L 155.797434 85.711654 
L 159.918983 80.555034 
L 166.525311 72.304442 
L 170.053327 68.266815 
L 173.034809 65.18422 
L 175.618761 62.806467 
L 178.202712 60.73496 
L 180.609571 59.103494 
L 182.834735 57.865906 
L 184.960739 56.936064 
L 186.948394 56.296678 
L 188.936049 55.883628 
L 190.923704 55.699549 
L 192.911358 55.745585 
L 194.899013 56.021433 
L 196.886668 56.525471 
L 198.874323 57.254254 
L 201.060744 58.310047 
L 203.247164 59.623733 
L 205.433584 61.1844 
L 207.904396 63.22879 
L 210.532111 65.703968 
L 213.384204 68.702417 
L 216.687121 72.510707 
L 221.014349 77.873592 
L 228.490381 87.198543 
L 231.273098 90.275527 
L 233.459518 92.365346 
L 235.248408 93.786477 
L 236.841633 94.787306 
L 238.22989 95.428823 
L 239.621249 95.837207 
L 241.012607 95.998902 
L 242.403965 95.909038 
L 243.795324 95.570146 
L 245.186682 94.992409 
L 246.776806 94.061188 
L 248.542883 92.724658 
L 250.12 91.302211 
L 250.12 91.302211 
" style="fill:none;stroke:#b2b2b2;stroke-opacity:0.7;stroke-width:1.5;"/>
   </g>
   <g id="LineCollection_4">
    <path clip-path="url(#peb3aa42080)" d="M 250.12 196.313397 
L 247.841125 195.238266 
L 245.981744 194.573239 
L 243.994089 194.092533 
L 242.2052 193.873485 
L 240.41631 193.861914 
L 238.627421 194.058075 
L 236.639766 194.514213 
L 234.58162 195.238266 
L 232.465691 196.22748 
L 230.080505 197.606419 
L 227.495812 199.363563 
L 224.275766 201.83874 
L 219.590707 205.757772 
L 212.390376 211.745967 
L 208.812598 214.401779 
L 205.831115 216.34223 
L 204.757086 216.969394 
M 178.282914 216.969394 
L 175.618761 215.341933 
L 172.533344 213.183305 
L 169.0595 210.476444 
L 163.891597 206.135378 
L 157.726985 201.013681 
L 154.549619 198.658901 
L 151.965668 197.000586 
L 149.580482 195.733314 
L 147.373229 194.825737 
L 145.406406 194.255402 
L 143.418751 193.923597 
L 141.629862 193.842622 
L 139.840973 193.969808 
L 138.052083 194.302275 
L 136.064428 194.903544 
L 134.076773 195.733314 
L 131.88403 196.888385 
L 129.505167 198.386841 
L 126.72245 200.400025 
L 123.133431 203.282594 
L 110.84439 213.389569 
L 107.839729 215.471478 
L 105.374341 216.969394 
L 105.374341 216.969394 
" style="fill:none;stroke:#b2b2b2;stroke-opacity:0.7;stroke-width:1.5;"/>
    <path clip-path="url(#peb3aa42080)" d="M 92.137255 36.370347 
L 94.323675 36.480409 
L 96.596707 36.826895 
L 98.696516 37.352915 
L 101.081702 38.183164 
L 103.573835 39.302073 
L 106.050839 40.650363 
L 108.833556 42.417692 
L 112.013804 44.71523 
L 115.822801 47.75893 
L 128.399752 58.07217 
L 131.095291 59.870452 
L 133.480477 61.20568 
L 135.719464 62.197466 
L 137.654552 62.826002 
L 139.642207 63.232724 
L 141.431097 63.382987 
L 143.219986 63.325139 
L 145.008875 63.06045 
L 146.99653 62.531131 
L 148.984185 61.767858 
L 151.170606 60.681872 
L 153.555791 59.239775 
L 156.383124 57.247111 
L 159.776771 54.565669 
L 165.879252 49.400523 
L 170.905481 45.283752 
L 174.254922 42.808575 
L 177.208885 40.887238 
L 179.991602 39.347843 
L 182.575553 38.183164 
L 184.960739 37.352915 
L 187.345925 36.770391 
L 189.532345 36.461316 
L 191.718765 36.371257 
L 193.905186 36.501309 
L 196.091606 36.849844 
L 198.384432 37.44569 
L 200.681794 38.270749 
L 203.048398 39.347843 
L 205.63235 40.768088 
L 208.486546 42.60231 
L 211.600631 44.871223 
L 215.570624 48.062592 
L 227.496554 57.866447 
L 230.279271 59.747542 
L 232.664456 61.10484 
L 234.850877 62.10012 
L 236.838532 62.771839 
L 238.826187 63.20332 
L 240.615076 63.376556 
L 242.403965 63.341843 
L 244.192855 63.099952 
L 246.18051 62.594816 
L 248.168165 61.854229 
L 250.12 60.916071 
L 250.12 60.916071 
" style="fill:none;stroke:#b2b2b2;stroke-opacity:0.7;stroke-width:1.5;"/>
   </g>
   <g id="LineCollection_5">
    <path clip-path="url(#peb3aa42080)" d="M 0 0 
" style="fill:none;stroke:#b2b2b2;stroke-opacity:0.7;stroke-width:1.5;"/>
    <path clip-path="url(#peb3aa42080)" d="M 0 0 
" style="fill:none;stroke:#b2b2b2;stroke-opacity:0.7;stroke-width:1.5;"/>
    <path clip-path="url(#peb3aa42080)" d="M 116.982941 25.482331 
L 125.529857 30.931899 
L 128.908871 32.802035 
L 131.890353 34.193886 
L 134.544988 35.176777 
L 136.85949 35.807692 
L 139.172918 36.208101 
L 141.232331 36.36216 
L 143.418751 36.312167 
L 145.605172 36.043822 
L 147.990358 35.510469 
L 150.375544 34.741907 
L 152.959495 33.670691 
L 155.940977 32.172937 
L 159.319991 30.215225 
L 164.289128 27.04351 
L 166.674314 25.482331 
L 166.674314 25.482331 
" style="fill:none;stroke:#b2b2b2;stroke-opacity:0.7;stroke-width:1.5;"/>
    <path clip-path="url(#peb3aa42080)" d="M 216.365686 25.482331 
L 224.912602 30.931899 
L 228.291616 32.802035 
L 231.273098 34.193886 
L 233.927733 35.176777 
L 236.242235 35.807692 
L 238.555663 36.208101 
L 240.615076 36.36216 
L 242.801496 36.312167 
L 244.987917 36.043822 
L 247.373103 35.510469 
L 249.758289 34.741907 
L 250.12 34.606088 
L 250.12 34.606088 
" style="fill:none;stroke:#b2b2b2;stroke-opacity:0.7;stroke-width:1.5;"/>
   </g>
   <g id="line2d_14">
    <path clip-path="url(#peb3aa42080)" d="M 92.137255 63.388075 
L 94.12491 63.516785 
L 96.112565 63.902407 
L 98.10022 64.543419 
L 100.087875 65.437291 
L 102.07553 66.580495 
L 104.063184 67.96852 
L 106.050839 69.595889 
L 108.038494 71.456177 
L 110.026149 73.542044 
L 112.013804 75.845259 
L 114.001459 78.35673 
L 115.989114 81.066546 
L 117.976769 83.964013 
L 119.964424 87.037697 
L 121.952079 90.275466 
L 123.939733 93.664542 
L 125.927388 97.191551 
L 127.915043 100.842573 
L 129.902698 104.603199 
L 131.890353 108.458588 
L 133.878008 112.393524 
L 135.865663 116.392477 
L 137.853318 120.439666 
L 139.840973 124.519118 
L 141.828628 128.614734 
L 143.816282 124.519118 
L 145.803937 120.439666 
L 147.791592 116.392477 
L 149.779247 112.393524 
L 151.766902 108.458588 
L 153.754557 104.603199 
L 155.742212 100.842573 
L 157.729867 97.191551 
L 159.717522 93.664542 
L 161.705177 90.275466 
L 163.692831 87.037697 
L 165.680486 83.964013 
L 167.668141 81.066546 
L 169.655796 78.35673 
L 171.643451 75.845259 
L 173.631106 73.542044 
L 175.618761 71.456177 
L 177.606416 69.595889 
L 179.594071 67.96852 
L 181.581726 66.580495 
L 183.56938 65.437291 
L 185.557035 64.543419 
L 187.54469 63.902407 
L 189.532345 63.516785 
L 191.52 63.388075 
L 193.507655 63.516785 
L 195.49531 63.902407 
L 197.482965 64.543419 
L 199.47062 65.437291 
L 201.458274 66.580495 
L 203.445929 67.96852 
L 205.433584 69.595889 
L 207.421239 71.456177 
L 209.408894 73.542044 
L 211.396549 75.845259 
L 213.384204 78.35673 
L 215.371859 81.066546 
L 217.359514 83.964013 
L 219.347169 87.037697 
L 221.334823 90.275466 
L 223.322478 93.664542 
L 225.310133 97.191551 
L 227.297788 100.842573 
L 229.285443 104.603199 
L 231.273098 108.458588 
L 233.260753 112.393524 
L 235.248408 116.392477 
L 237.236063 120.439666 
L 239.223718 124.519118 
L 241.211372 128.614734 
L 243.199027 124.519118 
L 245.186682 120.439666 
L 247.174337 116.392477 
L 249.161992 112.393524 
L 250.12 110.496967 
" style="fill:none;stroke:#808080;stroke-linecap:square;stroke-width:1.5;"/>
   </g>
   <g id="line2d_15">
    <path clip-path="url(#peb3aa42080)" d="M 92.137255 193.841393 
L 94.12491 193.712683 
L 96.112565 193.327061 
L 98.10022 192.686049 
L 100.087875 191.792178 
L 102.07553 190.648973 
L 104.063184 189.260948 
L 106.050839 187.63358 
L 108.038494 185.773291 
L 110.026149 183.687424 
L 112.013804 181.38421 
L 114.001459 178.872739 
L 115.989114 176.162922 
L 117.976769 173.265455 
L 119.964424 170.191771 
L 121.952079 166.954002 
L 123.939733 163.564926 
L 125.927388 160.037917 
L 127.915043 156.386895 
L 129.902698 152.626269 
L 131.890353 148.77088 
L 133.878008 144.835945 
L 135.865663 140.836991 
L 137.853318 136.789802 
L 139.840973 132.71035 
L 141.828628 128.614734 
L 143.816282 132.71035 
L 145.803937 136.789802 
L 147.791592 140.836991 
L 149.779247 144.835945 
L 151.766902 148.77088 
L 153.754557 152.626269 
L 155.742212 156.386895 
L 157.729867 160.037917 
L 159.717522 163.564926 
L 161.705177 166.954002 
L 163.692831 170.191771 
L 165.680486 173.265455 
L 167.668141 176.162922 
L 169.655796 178.872739 
L 171.643451 181.38421 
L 173.631106 183.687424 
L 175.618761 185.773291 
L 177.606416 187.63358 
L 179.594071 189.260948 
L 181.581726 190.648973 
L 183.56938 191.792178 
L 185.557035 192.686049 
L 187.54469 193.327061 
L 189.532345 193.712683 
L 191.52 193.841393 
L 193.507655 193.712683 
L 195.49531 193.327061 
L 197.482965 192.686049 
L 199.47062 191.792178 
L 201.458274 190.648973 
L 203.445929 189.260948 
L 205.433584 187.63358 
L 207.421239 185.773291 
L 209.408894 183.687424 
L 211.396549 181.38421 
L 213.384204 178.872739 
L 215.371859 176.162922 
L 217.359514 173.265455 
L 219.347169 170.191771 
L 221.334823 166.954002 
L 223.322478 163.564926 
L 225.310133 160.037917 
L 227.297788 156.386895 
L 229.285443 152.626269 
L 231.273098 148.77088 
L 233.260753 144.835945 
L 235.248408 140.836991 
L 237.236063 136.789802 
L 239.223718 132.71035 
L 241.211372 128.614734 
L 243.199027 132.71035 
L 245.186682 136.789802 
L 247.174337 140.836991 
L 249.161992 144.835945 
L 250.12 146.732501 
" style="fill:none;stroke:#808080;stroke-linecap:square;stroke-width:1.5;"/>
   </g>
   <g id="patch_14">
    <path d="M 133.92 193.414734 
L 133.92 63.814734 
" style="fill:none;stroke:#000000;stroke-linecap:square;stroke-linejoin:miter;stroke-width:0.5;"/>
   </g>
   <g id="patch_15">
    <path d="M 249.12 193.414734 
L 249.12 63.814734 
" style="fill:none;stroke:#000000;stroke-linecap:square;stroke-linejoin:miter;stroke-width:0.5;"/>
   </g>
   <g id="patch_16">
    <path d="M 133.92 193.414734 
L 249.12 193.414734 
" style="fill:none;stroke:#000000;stroke-linecap:square;stroke-linejoin:miter;stroke-width:0.5;"/>
   </g>
   <g id="patch_17">
    <path d="M 133.92 63.814734 
L 249.12 63.814734 
" style="fill:none;stroke:#000000;stroke-linecap:square;stroke-linejoin:miter;stroke-width:0.5;"/>
   </g>
   <g id="text_13">
    <!-- visible -->
    <defs>
     <path d="M 39.09375 33.953125 
C 40 36.171875 41.59375 40.1875 47.40625 40.390625 
L 47.40625 43 
C 45.5 42.890625 43 42.796875 41.09375 42.796875 
C 39 42.796875 35.703125 42.796875 33.703125 43 
L 33.703125 40.390625 
C 36.203125 40.1875 37.59375 38.984375 37.59375 36.375 
C 37.59375 35.46875 37.59375 35.265625 37 33.859375 
L 26 5.921875 
L 14.09375 36.0625 
C 13.5 37.375 13.5 37.578125 13.5 37.984375 
C 13.5 40.390625 16.796875 40.390625 18.296875 40.390625 
L 18.296875 43 
C 15.90625 42.796875 11.5 42.796875 9 42.796875 
C 6.296875 42.796875 3.203125 42.796875 1 43 
L 1 40.390625 
C 4.796875 40.390625 6.90625 40.390625 8.09375 37.28125 
L 22.59375 0.6875 
C 23.203125 -0.8125 23.296875 -1 24.203125 -1 
C 25.09375 -1 25.203125 -0.8125 25.796875 0.6875 
z
" id="CMR17-118"/>
    </defs>
    <g transform="translate(144.001949 40.859883)rotate(-90)scale(0.1 -0.1)">
     <use transform="scale(0.996264)" xlink:href="#CMR17-118"/>
     <use transform="translate(48.292916 0)scale(0.996264)" xlink:href="#CMR17-105"/>
     <use transform="translate(73.163974 0)scale(0.996264)" xlink:href="#CMR17-115"/>
     <use transform="translate(108.965312 0)scale(0.996264)" xlink:href="#CMR17-105"/>
     <use transform="translate(133.83637 0)scale(0.996264)" xlink:href="#CMR17-98"/>
     <use transform="translate(184.73174 0)scale(0.996264)" xlink:href="#CMR17-108"/>
     <use transform="translate(209.602799 0)scale(0.996264)" xlink:href="#CMR17-101"/>
    </g>
   </g>
   <g id="text_14">
    <!-- obscured -->
    <defs>
     <path d="M 34.90625 35 
C 33 35 30.203125 35 30.203125 31.484375 
C 30.203125 28.6875 32.5 27.890625 33.796875 27.890625 
C 34.5 27.890625 37.40625 28.1875 37.40625 31.6875 
C 37.40625 38.6875 30.59375 44 22.90625 44 
C 12.296875 44 3.296875 34.390625 3.296875 21.546875 
C 3.296875 8.140625 12.703125 -1 22.90625 -1 
C 35.296875 -1 38.40625 10.5625 38.40625 11.671875 
C 38.40625 12.078125 38.296875 12.375 37.59375 12.375 
C 36.90625 12.375 36.796875 12.28125 36.40625 10.96875 
C 33.796875 2.8125 28.09375 0.796875 23.796875 0.796875 
C 17.40625 0.796875 9.703125 6.734375 9.703125 21.640625 
C 9.703125 36.84375 17.09375 42.1875 23 42.1875 
C 26.90625 42.1875 32.703125 40.34375 34.90625 35 
z
" id="CMR17-99"/>
     <path d="M 29.40625 42.890625 
L 29.40625 40.296875 
C 35.296875 40.296875 36.203125 39.6875 36.203125 34.828125 
L 36.203125 16.453125 
C 36.203125 7.96875 31.703125 0.59375 24.296875 0.59375 
C 16.09375 0.59375 15.40625 5.546875 15.40625 10.796875 
L 15.40625 44 
L 3.296875 42.890625 
L 3.296875 40.296875 
C 7.296875 40.296875 10 40.296875 10.09375 36.25 
L 10.09375 16.859375 
C 10.09375 10.09375 10.09375 5.75 12.703125 2.921875 
C 14 1.609375 16.5 -1 23.703125 -1 
C 32.203125 -1 35.5 6.25 36.296875 8.375 
L 36.40625 8.375 
L 36.40625 -1 
L 48.296875 -0.203125 
L 48.296875 2.40625 
C 42.40625 2.40625 41.5 3.015625 41.5 7.859375 
L 41.5 44 
z
" id="CMR17-117"/>
    </defs>
    <g transform="translate(192.111596 38.273208)rotate(-90)scale(0.1 -0.1)">
     <use transform="scale(0.996264)" xlink:href="#CMR17-111"/>
     <use transform="translate(45.690477 0)scale(0.996264)" xlink:href="#CMR17-98"/>
     <use transform="translate(96.585847 0)scale(0.996264)" xlink:href="#CMR17-115"/>
     <use transform="translate(132.387185 0)scale(0.996264)" xlink:href="#CMR17-99"/>
     <use transform="translate(172.872845 0)scale(0.996264)" xlink:href="#CMR17-117"/>
     <use transform="translate(223.768215 0)scale(0.996264)" xlink:href="#CMR17-114"/>
     <use transform="translate(259.048983 0)scale(0.996264)" xlink:href="#CMR17-101"/>
     <use transform="translate(299.534643 0)scale(0.996264)" xlink:href="#CMR17-100"/>
    </g>
   </g>
   <g id="text_15">
    <!-- visible -->
    <g transform="translate(243.384694 40.859883)rotate(-90)scale(0.1 -0.1)">
     <use transform="scale(0.996264)" xlink:href="#CMR17-118"/>
     <use transform="translate(48.292916 0)scale(0.996264)" xlink:href="#CMR17-105"/>
     <use transform="translate(73.163974 0)scale(0.996264)" xlink:href="#CMR17-115"/>
     <use transform="translate(108.965312 0)scale(0.996264)" xlink:href="#CMR17-105"/>
     <use transform="translate(133.83637 0)scale(0.996264)" xlink:href="#CMR17-98"/>
     <use transform="translate(184.73174 0)scale(0.996264)" xlink:href="#CMR17-108"/>
     <use transform="translate(209.602799 0)scale(0.996264)" xlink:href="#CMR17-101"/>
    </g>
   </g>
   <g id="text_16">
    <!-- b) -->
    <g transform="translate(116.64 57.334734)scale(0.15 -0.15)">
     <use transform="scale(0.996264)" xlink:href="#CMR17-98"/>
     <use transform="translate(50.89537 0)scale(0.996264)" xlink:href="#CMR17-41"/>
    </g>
   </g>
   <g id="patch_18">
    <path clip-path="url(#peb3aa42080)" d="M 146.573804 211.120657 
L 236.466196 211.120657 
L 236.466196 46.108812 
L 146.573804 46.108812 
z
" style="fill:#ece7f2;opacity:0.8;stroke:#000000;stroke-linejoin:miter;"/>
   </g>
   <g id="patch_19">
    <path clip-path="url(#peb3aa42080)" d="M 47.191059 211.120657 
L 137.083451 211.120657 
L 137.083451 46.108812 
L 47.191059 46.108812 
z
" style="fill:#ece7f2;opacity:0.8;stroke:#000000;stroke-linejoin:miter;"/>
   </g>
   <g id="patch_20">
    <path clip-path="url(#peb3aa42080)" d="M 245.956549 211.120657 
L 335.848941 211.120657 
L 335.848941 46.108812 
L 245.956549 46.108812 
z
" style="fill:#ece7f2;opacity:0.8;stroke:#000000;stroke-linejoin:miter;"/>
   </g>
  </g>
 </g>
 <defs>
  <clipPath id="pa3d86a71ee">
   <rect height="129.6" width="99.692308" x="14.953846" y="63.814734"/>
  </clipPath>
  <clipPath id="peb3aa42080">
   <rect height="129.6" width="115.2" x="133.92" y="63.814734"/>
  </clipPath>
 </defs>
</svg>
