<?xml version="1.0" encoding="utf-8" standalone="no"?>
<!DOCTYPE svg PUBLIC "-//W3C//DTD SVG 1.1//EN"
  "http://www.w3.org/Graphics/SVG/1.1/DTD/svg11.dtd">
<!-- Created with matplotlib (https://matplotlib.org/) -->
<svg height="265.800145pt" version="1.1" viewBox="0 0 270.716901 265.800145" width="270.716901pt" xmlns="http://www.w3.org/2000/svg" xmlns:xlink="http://www.w3.org/1999/xlink">
 <defs>
  <style type="text/css">
*{stroke-linecap:butt;stroke-linejoin:round;}
  </style>
 </defs>
 <g id="figure_1">
  <g id="patch_1">
   <path d="M 0 265.800145 
L 270.716901 265.800145 
L 270.716901 0 
L 0 0 
z
" style="fill:none;"/>
  </g>
  <g id="axes_1">
   <g id="patch_2">
    <path d="M 42.207579 129.6 
L 141.899887 129.6 
L 141.899887 0 
L 42.207579 0 
z
" style="fill:none;"/>
   </g>
   <g id="line2d_1">
    <path clip-path="url(#p5c498a7cf2)" d="M 92.053733 101.116484 
L 106.200736 31.327127 
" style="fill:none;stroke:#000000;stroke-linecap:square;stroke-width:3;"/>
   </g>
   <g id="patch_3">
    <path clip-path="url(#p5c498a7cf2)" d="M 106.200736 42.008446 
C 109.033455 42.008446 111.750534 40.882995 113.753569 38.87996 
C 115.756604 36.876925 116.882055 34.159846 116.882055 31.327127 
C 116.882055 28.494408 115.756604 25.777329 113.753569 23.774294 
C 111.750534 21.77126 109.033455 20.645809 106.200736 20.645809 
C 103.368017 20.645809 100.650938 21.77126 98.647903 23.774294 
C 96.644868 25.777329 95.519417 28.494408 95.519417 31.327127 
C 95.519417 34.159846 96.644868 36.876925 98.647903 38.87996 
C 100.650938 40.882995 103.368017 42.008446 106.200736 42.008446 
z
" style="stroke:#000000;stroke-linejoin:miter;"/>
   </g>
   <g id="patch_4">
    <path clip-path="url(#p5c498a7cf2)" d="M -36.122091 -27.059341 
L 54.175187 -27.059341 
L 92.053733 101.116484 
L 129.932279 -27.059341 
L 220.229557 -27.059341 
L 220.229557 229.292308 
L -36.122091 229.292308 
z
" style="fill:#ece7f2;opacity:0.8;stroke:#000000;stroke-linejoin:miter;"/>
   </g>
   <g id="matplotlib.axis_1">
    <g id="xtick_1"/>
    <g id="xtick_2"/>
    <g id="xtick_3"/>
   </g>
   <g id="matplotlib.axis_2">
    <g id="ytick_1"/>
    <g id="ytick_2"/>
    <g id="ytick_3"/>
   </g>
   <g id="patch_5">
    <path clip-path="url(#p5c498a7cf2)" d="M 108.10962 82.054263 
L 103.522224 87.500612 
L 100.369573 80.190041 
z
" style="stroke:#000000;stroke-linejoin:miter;"/>
   </g>
   <g id="patch_6">
    <path clip-path="url(#p5c498a7cf2)" d="M 83.412365 107.394805 
L 89.173277 103.209257 
L 90.478369 111.062943 
z
" style="fill:#ff0000;stroke:#ff0000;stroke-linejoin:miter;"/>
   </g>
   <g id="patch_7">
    <path clip-path="url(#p5c498a7cf2)" d="M 74.299244 13.530841 
L 75.006595 17.020309 
L 71.163452 15.982925 
z
" style="stroke:#000000;stroke-linejoin:miter;"/>
   </g>
   <g id="patch_8">
    <path clip-path="url(#p5c498a7cf2)" d="M 109.100872 17.020309 
L 109.808222 13.530841 
L 112.944014 15.982925 
z
" style="stroke:#000000;stroke-linejoin:miter;"/>
   </g>
   <g id="line2d_2">
    <path clip-path="url(#p5c498a7cf2)" d="M 92.053733 122.479121 
L 92.57527 122.472754 
L 93.096496 122.453656 
L 93.6171 122.421839 
L 94.136772 122.377321 
L 94.655203 122.32013 
L 95.172083 122.250299 
L 95.687104 122.16787 
L 96.199959 122.072893 
L 96.710342 121.965423 
L 97.21795 121.845524 
L 97.722479 121.713269 
L 98.223629 121.568737 
L 98.721102 121.412012 
L 99.214599 121.243189 
L 99.703828 121.062368 
L 100.188497 120.869658 
L 100.668316 120.665172 
L 101.143001 120.449033 
L 101.612267 120.22137 
L 102.075835 119.982319 
L 102.533429 119.732021 
L 102.984776 119.470627 
L 103.429607 119.198291 
L 103.867656 118.915177 
L 104.298664 118.621453 
L 104.722372 118.317294 
L 105.138528 118.002881 
L 105.546884 117.678402 
L 105.947197 117.344051 
L 106.339227 117.000026 
L 106.722742 116.646533 
L 107.097513 116.283783 
L 107.463316 115.911991 
L 107.819933 115.531379 
L 108.167152 115.142174 
L 108.504766 114.744609 
L 108.832573 114.33892 
L 109.150378 113.925348 
L 109.457991 113.504142 
L 109.75523 113.075551 
L 110.041916 112.639831 
L 110.31788 112.197242 
L 110.582957 111.748047 
L 110.836988 111.292515 
L 111.079822 110.830917 
L 111.311314 110.363528 
L 111.531327 109.890627 
L 111.739729 109.412496 
L 111.936397 108.929419 
L 112.121212 108.441685 
L 112.294064 107.949584 
L 112.454852 107.45341 
L 112.603477 106.953459 
L 112.739854 106.450028 
L 112.863898 105.943418 
L 112.975538 105.43393 
L 113.074706 104.921869 
L 113.161344 104.407539 
L 113.235399 103.891247 
L 113.296827 103.373302 
L 113.345592 102.854011 
L 113.381665 102.333684 
L 113.405025 101.812632 
L 113.415656 101.291164 
L 113.413554 100.769593 
L 113.398719 100.248228 
L 113.37116 99.727381 
L 113.330893 99.207362 
L 113.277943 98.688482 
L 113.212341 98.171048 
L 113.134126 97.65537 
L 113.043345 97.141756 
L 112.940052 96.63051 
L 112.824308 96.121939 
L 112.696183 95.616345 
L 112.555753 95.11403 
L 112.403102 94.615293 
L 112.23832 94.120432 
L 112.061505 93.62974 
L 111.872764 93.143512 
L 111.672209 92.662037 
L 111.459959 92.185601 
L 111.236141 91.714489 
L 111.000888 91.248981 
L 110.75434 90.789356 
L 110.496645 90.335887 
L 110.227956 89.888844 
L 109.948433 89.448494 
L 109.658243 89.015099 
L 109.357559 88.588918 
L 109.04656 88.170205 
L 108.725431 87.75921 
L 108.394364 87.356176 
L 108.053556 86.961346 
L 107.703211 86.574953 
L 107.343537 86.197229 
L 106.974749 85.828398 
L 106.597066 85.46868 
L 106.210713 85.11829 
L 105.815922 84.777437 
" style="fill:none;stroke:#000000;stroke-linecap:square;stroke-width:1.5;"/>
   </g>
   <g id="line2d_3">
    <path clip-path="url(#p5c498a7cf2)" d="M 92.053733 126.03956 
L 92.053733 118.918681 
" style="fill:none;stroke:#000000;stroke-linecap:square;stroke-width:1.5;"/>
   </g>
   <g id="line2d_4">
    <path clip-path="url(#p5c498a7cf2)" d="M 99.174612 101.116484 
L 99.169553 100.848096 
L 99.154381 100.58009 
L 99.129119 100.312847 
L 99.093803 100.046745 
L 99.048482 99.782164 
L 98.993221 99.519479 
L 98.928099 99.259063 
L 98.853208 99.001286 
L 98.768655 98.746516 
L 98.674559 98.495113 
L 98.571055 98.247435 
L 98.458289 98.003835 
L 98.336422 97.764658 
L 98.205627 97.530244 
L 98.06609 97.300926 
L 97.918009 97.07703 
L 97.761595 96.858874 
L 97.597069 96.646769 
L 97.424666 96.441016 
L 97.244631 96.241906 
L 97.057219 96.049724 
L 96.862696 95.864742 
L 96.66134 95.687223 
L 96.453437 95.517419 
L 96.239281 95.355571 
L 96.019177 95.201911 
L 95.793438 95.056655 
L 95.562385 94.92001 
L 95.326346 94.792171 
L 95.085656 94.673319 
L 94.840658 94.563624 
L 94.591699 94.46324 
L 94.339134 94.372311 
L 94.083321 94.290966 
L 93.824624 94.21932 
L 93.56341 94.157475 
L 93.300051 94.10552 
L 93.034921 94.063527 
L 92.768397 94.031558 
L 92.500857 94.009656 
L 92.232681 93.997853 
L 91.964252 93.996167 
L 91.695949 94.004598 
L 91.428155 94.023136 
L 91.16125 94.051755 
L 90.895613 94.090412 
L 90.631622 94.139054 
L 90.369652 94.197611 
L 90.110075 94.266001 
L 89.85326 94.344125 
L 89.599572 94.431873 
L 89.349372 94.529121 
L 89.103015 94.635729 
L 88.86085 94.751547 
L 88.623223 94.87641 
L 88.390471 95.01014 
L 88.162925 95.152548 
L 87.940908 95.30343 
L 87.724735 95.462574 
L 87.514714 95.629752 
L 87.311143 95.804727 
L 87.114312 95.98725 
L 86.9245 96.177062 
L 86.741976 96.373894 
L 86.567001 96.577464 
L 86.399823 96.787485 
L 86.24068 97.003658 
L 86.089797 97.225675 
L 85.947389 97.453222 
L 85.813659 97.685974 
L 85.688796 97.923601 
L 85.572978 98.165765 
L 85.46637 98.412122 
L 85.369123 98.662323 
L 85.281375 98.916011 
L 85.20325 99.172826 
L 85.134861 99.432403 
L 85.076304 99.694373 
L 85.027662 99.958364 
L 84.989004 100.224001 
L 84.960386 100.490906 
L 84.941848 100.7587 
L 84.933416 101.027002 
L 84.935103 101.295432 
L 84.946905 101.563607 
L 84.968807 101.831147 
L 85.000777 102.097672 
L 85.042769 102.362802 
L 85.094725 102.626161 
L 85.156569 102.887374 
L 85.228215 103.146071 
L 85.309561 103.401884 
L 85.40049 103.654449 
L 85.500873 103.903408 
L 85.610569 104.148406 
L 85.729421 104.389096 
L 85.85726 104.625135 
L 85.993904 104.856189 
L 86.13916 105.081927 
L 86.292821 105.302031 
" style="fill:none;stroke:#ff0000;stroke-linecap:square;stroke-width:1.5;"/>
   </g>
   <g id="line2d_5">
    <path clip-path="url(#p5c498a7cf2)" d="M 109.454547 15.275575 
L 109.111045 15.206659 
L 108.76727 15.139117 
L 108.423228 15.072951 
L 108.078923 15.008162 
L 107.734363 14.94475 
L 107.389551 14.882717 
L 107.044495 14.822064 
L 106.699198 14.762791 
L 106.353667 14.7049 
L 106.007907 14.648392 
L 105.661924 14.593267 
L 105.315723 14.539527 
L 104.96931 14.487171 
L 104.622691 14.436202 
L 104.27587 14.38662 
L 103.928853 14.338425 
L 103.581647 14.291619 
L 103.234256 14.246202 
L 102.886687 14.202175 
L 102.538944 14.159539 
L 102.191033 14.118294 
L 101.84296 14.078441 
L 101.494731 14.03998 
L 101.14635 14.002913 
L 100.797824 13.96724 
L 100.449158 13.93296 
L 100.100358 13.900076 
L 99.751428 13.868588 
L 99.402376 13.838495 
L 99.053206 13.809799 
L 98.703925 13.782499 
L 98.354536 13.756597 
L 98.005047 13.732093 
L 97.655463 13.708987 
L 97.305789 13.687279 
L 96.956031 13.666971 
L 96.606195 13.648061 
L 96.256286 13.630551 
L 95.906309 13.614441 
L 95.556271 13.59973 
L 95.206177 13.58642 
L 94.856033 13.574511 
L 94.505843 13.564002 
L 94.155615 13.554894 
L 93.805353 13.547187 
L 93.455062 13.540881 
L 93.10475 13.535977 
L 92.75442 13.532473 
L 92.404079 13.530371 
L 92.053733 13.52967 
L 91.703387 13.530371 
L 91.353046 13.532473 
L 91.002717 13.535977 
L 90.652404 13.540881 
L 90.302114 13.547187 
L 89.951851 13.554894 
L 89.601623 13.564002 
L 89.251433 13.574511 
L 88.901289 13.58642 
L 88.551195 13.59973 
L 88.201157 13.614441 
L 87.85118 13.630551 
L 87.501271 13.648061 
L 87.151435 13.666971 
L 86.801677 13.687279 
L 86.452003 13.708987 
L 86.102419 13.732093 
L 85.75293 13.756597 
L 85.403542 13.782499 
L 85.05426 13.809799 
L 84.70509 13.838495 
L 84.356038 13.868588 
L 84.007109 13.900076 
L 83.658308 13.93296 
L 83.309642 13.96724 
L 82.961116 14.002913 
L 82.612736 14.03998 
L 82.264506 14.078441 
L 81.916433 14.118294 
L 81.568522 14.159539 
L 81.220779 14.202175 
L 80.87321 14.246202 
L 80.525819 14.291619 
L 80.178613 14.338425 
L 79.831596 14.38662 
L 79.484776 14.436202 
L 79.138156 14.487171 
L 78.791743 14.539527 
L 78.445542 14.593267 
L 78.099559 14.648392 
L 77.753799 14.7049 
L 77.408268 14.762791 
L 77.062972 14.822064 
L 76.717915 14.882717 
L 76.373103 14.94475 
L 76.028543 15.008162 
L 75.684239 15.072951 
L 75.340196 15.139117 
L 74.996421 15.206659 
L 74.65292 15.275575 
" style="fill:none;stroke:#000000;stroke-linecap:square;stroke-width:1.5;"/>
   </g>
   <g id="line2d_6">
    <path clip-path="url(#p5c498a7cf2)" d="M 97.965255 20.386135 
L 97.794308 20.512398 
L 97.625366 20.641331 
L 97.458469 20.772902 
L 97.293659 20.907078 
L 97.130978 21.043826 
L 96.970464 21.183113 
L 96.812158 21.324903 
L 96.656099 21.469163 
L 96.502325 21.615856 
L 96.350874 21.764946 
L 96.201784 21.916397 
L 96.055091 22.070171 
L 95.910831 22.226231 
L 95.76904 22.384537 
L 95.629754 22.54505 
L 95.493006 22.707732 
L 95.35883 22.872541 
L 95.227259 23.039438 
L 95.098326 23.20838 
L 94.972063 23.379327 
L 94.8485 23.552237 
L 94.727668 23.727065 
L 94.609598 23.90377 
L 94.494317 24.082308 
L 94.381856 24.262635 
L 94.27224 24.444706 
L 94.165498 24.628476 
L 94.061655 24.8139 
L 93.960738 25.000932 
L 93.862771 25.189526 
L 93.767779 25.379636 
L 93.675784 25.571215 
L 93.58681 25.764215 
L 93.500878 25.958588 
L 93.41801 26.154287 
L 93.338227 26.351264 
L 93.261547 26.54947 
L 93.187989 26.748856 
L 93.117573 26.949372 
L 93.050315 27.15097 
L 92.986232 27.353599 
L 92.925339 27.55721 
L 92.867652 27.761753 
L 92.813185 27.967176 
L 92.761951 28.173429 
L 92.713964 28.380462 
L 92.669234 28.588223 
L 92.627773 28.796661 
L 92.589591 29.005724 
L 92.554698 29.215361 
L 92.523102 29.425521 
L 92.494811 29.636151 
L 92.469832 29.847199 
L 92.448171 30.058614 
L 92.429833 30.270342 
L 92.414823 30.482333 
L 92.403145 30.694533 
L 92.394802 30.906891 
L 92.389795 31.119353 
L 92.388126 31.331868 
L 92.389795 31.544383 
L 92.394802 31.756845 
L 92.403145 31.969203 
L 92.414823 32.181403 
L 92.429833 32.393394 
L 92.448171 32.605123 
L 92.469832 32.816537 
L 92.494811 33.027585 
L 92.523102 33.238215 
L 92.554698 33.448375 
L 92.589591 33.658012 
L 92.627773 33.867076 
L 92.669234 34.075513 
L 92.713964 34.283274 
L 92.761951 34.490307 
L 92.813185 34.69656 
L 92.867652 34.901984 
L 92.925339 35.106526 
L 92.986232 35.310137 
L 93.050315 35.512766 
L 93.117573 35.714364 
L 93.187989 35.914881 
L 93.261547 36.114266 
L 93.338227 36.312472 
L 93.41801 36.509449 
L 93.500878 36.705148 
L 93.58681 36.899522 
L 93.675784 37.092522 
L 93.767779 37.2841 
L 93.862771 37.47421 
L 93.960738 37.662804 
L 94.061655 37.849837 
L 94.165498 38.035261 
L 94.27224 38.219031 
L 94.381856 38.401101 
L 94.494317 38.581428 
L 94.609598 38.759966 
L 94.727668 38.936671 
L 94.8485 39.1115 
L 94.972063 39.284409 
" style="fill:none;stroke:#000000;stroke-linecap:square;stroke-width:0.5;"/>
   </g>
   <g id="line2d_7">
    <path clip-path="url(#p5c498a7cf2)" d="M 96.291036 18.08177 
L 96.0841 18.234615 
L 95.879591 18.390692 
L 95.677558 18.549962 
L 95.478052 18.712385 
L 95.281122 18.877923 
L 95.086816 19.046533 
L 94.895182 19.218174 
L 94.706268 19.392804 
L 94.520121 19.57038 
L 94.336786 19.750858 
L 94.156308 19.934193 
L 93.978732 20.120341 
L 93.804102 20.309254 
L 93.63246 20.500888 
L 93.46385 20.695194 
L 93.298313 20.892124 
L 93.13589 21.09163 
L 92.97662 21.293663 
L 92.820543 21.498172 
L 92.667698 21.705108 
L 92.518122 21.914419 
L 92.371852 22.126054 
L 92.228925 22.33996 
L 92.089375 22.556085 
L 91.953237 22.774375 
L 91.820544 22.994777 
L 91.69133 23.217235 
L 91.565626 23.441696 
L 91.443463 23.668103 
L 91.324871 23.896402 
L 91.209881 24.126535 
L 91.098519 24.358446 
L 90.990813 24.592077 
L 90.88679 24.827371 
L 90.786477 25.06427 
L 90.689896 25.302716 
L 90.597073 25.542649 
L 90.50803 25.784011 
L 90.422789 26.026742 
L 90.341371 26.270781 
L 90.263797 26.516069 
L 90.190085 26.762546 
L 90.120253 27.01015 
L 90.05432 27.25882 
L 89.9923 27.508495 
L 89.93421 27.759113 
L 89.880063 28.010613 
L 89.829874 28.262933 
L 89.783654 28.51601 
L 89.741415 28.769781 
L 89.703167 29.024185 
L 89.66892 29.279158 
L 89.638682 29.534637 
L 89.61246 29.79056 
L 89.590262 30.046863 
L 89.572092 30.303484 
L 89.557956 30.560358 
L 89.547855 30.817422 
L 89.541794 31.074613 
L 89.539774 31.331868 
L 89.541794 31.589123 
L 89.547855 31.846314 
L 89.557956 32.103379 
L 89.572092 32.360253 
L 89.590262 32.616873 
L 89.61246 32.873176 
L 89.638682 33.129099 
L 89.66892 33.384579 
L 89.703167 33.639552 
L 89.741415 33.893955 
L 89.783654 34.147727 
L 89.829874 34.400803 
L 89.880063 34.653123 
L 89.93421 34.904623 
L 89.9923 35.155241 
L 90.05432 35.404917 
L 90.120253 35.653587 
L 90.190085 35.901191 
L 90.263797 36.147667 
L 90.341371 36.392955 
L 90.422789 36.636995 
L 90.50803 36.879725 
L 90.597073 37.121087 
L 90.689896 37.36102 
L 90.786477 37.599466 
L 90.88679 37.836365 
L 90.990813 38.071659 
L 91.098519 38.305291 
L 91.209881 38.537202 
L 91.324871 38.767335 
L 91.443463 38.995633 
L 91.565626 39.22204 
L 91.69133 39.446501 
L 91.820544 39.66896 
L 91.953237 39.889361 
L 92.089375 40.107651 
L 92.228925 40.323776 
L 92.371852 40.537682 
L 92.518122 40.749317 
L 92.667698 40.958628 
" style="fill:none;stroke:#000000;stroke-linecap:square;stroke-width:0.5;"/>
   </g>
   <g id="patch_9">
    <path d="M 42.207579 129.6 
L 42.207579 -0 
" style="fill:none;stroke:#000000;stroke-linecap:square;stroke-linejoin:miter;stroke-width:0.5;"/>
   </g>
   <g id="patch_10">
    <path d="M 141.899887 129.6 
L 141.899887 -0 
" style="fill:none;stroke:#000000;stroke-linecap:square;stroke-linejoin:miter;stroke-width:0.5;"/>
   </g>
   <g id="patch_11">
    <path d="M 42.207579 129.6 
L 141.899887 129.6 
" style="fill:none;stroke:#000000;stroke-linecap:square;stroke-linejoin:miter;stroke-width:0.5;"/>
   </g>
   <g id="patch_12">
    <path d="M 42.207579 0 
L 141.899887 0 
" style="fill:none;stroke:#000000;stroke-linecap:square;stroke-linejoin:miter;stroke-width:0.5;"/>
   </g>
   <g id="text_1">
    <!-- $\theta$ -->
    <defs>
     <path d="M 44.296875 50 
C 44.296875 60.140625 41.09375 70 32.90625 70 
C 18.90625 70 4 40.859375 4 18.984375 
C 4 14.40625 5 -1 15.5 -1 
C 29.09375 -1 44.296875 27.421875 44.296875 50 
z
M 14 36 
C 15.5 41.859375 17.59375 50.203125 21.59375 57.265625 
C 24.90625 63.21875 28.40625 67.984375 32.796875 67.984375 
C 36.09375 67.984375 38.296875 65.203125 38.296875 55.671875 
C 38.296875 52.09375 38 47.125 35.09375 36 
z
M 34.40625 33 
C 31.90625 23.25 29.796875 17 26.203125 10.734375 
C 23.296875 5.65625 19.796875 1 15.59375 1 
C 12.5 1 10 3.375 10 13.21875 
C 10 19.671875 11.59375 26.4375 13.203125 33 
z
" id="CMMI12-18"/>
    </defs>
    <g transform="translate(113.41637 122.479121)scale(0.16 -0.16)">
     <use transform="scale(0.996264)" xlink:href="#CMMI12-18"/>
    </g>
   </g>
   <g id="text_2">
    <!-- $\tau$ -->
    <defs>
     <path d="M 28.703125 37.59375 
L 45.296875 37.59375 
C 46.59375 37.59375 49.90625 37.59375 49.90625 40.796875 
C 49.90625 43 48 43 46.203125 43 
L 18.703125 43 
C 16.40625 43 13 43 8.40625 38.09375 
C 5.796875 35.203125 2.59375 29.9375 2.59375 29.34375 
C 2.59375 28.734375 3.09375 28.546875 3.703125 28.546875 
C 4.40625 28.546875 4.5 28.84375 5 29.4375 
C 10.203125 37.59375 15.40625 37.59375 17.90625 37.59375 
L 26.203125 37.59375 
L 15.796875 3.484375 
C 15.296875 1.984375 15.296875 1.78125 15.296875 1.484375 
C 15.296875 0.390625 16 -1 18 -1 
C 21.09375 -1 21.59375 1.6875 21.90625 3.1875 
z
" id="CMMI12-28"/>
    </defs>
    <g style="fill:#ff0000;" transform="translate(77.811975 101.116484)scale(0.16 -0.16)">
     <use transform="scale(0.996264)" xlink:href="#CMMI12-28"/>
    </g>
   </g>
   <g id="text_3">
    <!-- Visible Region -->
    <defs>
     <path d="M 59 58.78125 
C 59.90625 60.984375 61.5 65.296875 68.203125 65.390625 
L 68.203125 68 
C 65.90625 67.796875 63.296875 67.796875 60.796875 67.796875 
C 58.40625 67.796875 54.296875 67.796875 52 68 
L 52 65.390625 
C 57 65.09375 57.203125 61.59375 57.203125 60.984375 
C 57.203125 59.890625 56.90625 59.1875 56.59375 58.390625 
L 36.90625 7 
L 16.296875 60.984375 
C 16 61.6875 15.796875 62.1875 15.796875 62.6875 
C 15.796875 65.390625 19.796875 65.390625 21.90625 65.390625 
L 21.90625 68 
C 18.703125 67.796875 14 67.796875 10.703125 67.796875 
C 8.09375 67.796875 3.40625 67.796875 1 68 
L 1 65.390625 
C 6.796875 65.390625 7.90625 65 9.09375 61.796875 
L 32.90625 -0.40625 
C 33.40625 -1.8125 33.5 -2 34.59375 -2 
C 35.703125 -2 35.796875 -1.8125 36.296875 -0.40625 
z
" id="CMR17-86"/>
     <path d="M 15.5 61.890625 
C 15.5 64.09375 13.703125 66 11.40625 66 
C 9.203125 66 7.296875 64.1875 7.296875 61.890625 
C 7.296875 59.6875 9.09375 57.796875 11.40625 57.796875 
C 13.59375 57.796875 15.5 59.59375 15.5 61.890625 
z
M 3.796875 42.890625 
L 3.796875 40.296875 
C 9.40625 40.296875 10.203125 39.6875 10.203125 34.859375 
L 10.203125 6.921875 
C 10.203125 3.09375 9.796875 2.59375 3.40625 2.59375 
L 3.40625 0 
C 5.796875 0.1875 10.09375 0.1875 12.59375 0.1875 
C 15 0.1875 19.09375 0.1875 21.40625 0 
L 21.40625 2.59375 
C 15.5 2.59375 15.296875 3.203125 15.296875 6.8125 
L 15.296875 44 
z
" id="CMR17-105"/>
     <path d="M 30.90625 42 
C 30.90625 43.796875 30.796875 43.890625 30.203125 43.890625 
C 29.796875 43.890625 29.703125 43.796875 28.5 42.296875 
C 28.203125 41.890625 27.296875 40.890625 27 40.5 
C 23.796875 43.890625 19.296875 44 17.59375 44 
C 6.5 44 2.5 38.1875 2.5 32.390625 
C 2.5 23.390625 12.703125 21.296875 15.59375 20.6875 
C 21.90625 19.390625 24.09375 19 26.203125 17.1875 
C 27.5 16 29.703125 13.796875 29.703125 10.1875 
C 29.703125 6 27.296875 0.59375 18.09375 0.59375 
C 9.40625 0.59375 6.296875 7.1875 4.5 16 
C 4.203125 17.390625 4.203125 17.5 3.40625 17.5 
C 2.59375 17.5 2.5 17.390625 2.5 15.390625 
L 2.5 1 
C 2.5 -0.8125 2.59375 -0.90625 3.203125 -0.90625 
C 3.703125 -0.90625 3.796875 -0.8125 4.296875 0 
C 4.90625 0.890625 6.40625 3.296875 7 4.296875 
C 9 1.59375 12.5 -1 18.09375 -1 
C 28 -1 33.296875 4.390625 33.296875 12.1875 
C 33.296875 17.296875 30.59375 20 29.296875 21.1875 
C 26.296875 24.296875 22.796875 25 18.59375 25.796875 
C 13.09375 27 6.09375 28.390625 6.09375 34.5 
C 6.09375 37.09375 7.5 42.59375 17.59375 42.59375 
C 28.296875 42.59375 28.90625 32.59375 29.09375 29.390625 
C 29.203125 28.890625 29.703125 28.796875 30 28.796875 
C 30.90625 28.796875 30.90625 29.09375 30.90625 30.796875 
z
" id="CMR17-115"/>
     <path d="M 15 69 
L 3.09375 67.890625 
L 3.09375 65.296875 
C 9 65.296875 9.90625 64.703125 9.90625 60.046875 
L 9.90625 -0.203125 
L 11.703125 -0.203125 
L 14.59375 6.953125 
C 17.5 2.203125 21.796875 -1 27.59375 -1 
C 37.59375 -1 47.703125 7.859375 47.703125 21.59375 
C 47.703125 34.515625 38.703125 44 28.59375 44 
C 22.40625 44 18 40.671875 15 36.734375 
z
M 15.203125 31.59375 
C 15.203125 33.40625 15.203125 33.703125 16.59375 35.828125 
C 20.5 41.890625 26.09375 42.390625 28 42.390625 
C 31 42.390625 41.296875 40.78125 41.296875 21.6875 
C 41.296875 1.703125 29.5 0.59375 27.09375 0.59375 
C 24 0.59375 19.5 1.796875 16.296875 7.65625 
C 15.203125 9.578125 15.203125 9.78125 15.203125 11.59375 
z
" id="CMR17-98"/>
     <path d="M 15.296875 69 
L 3.40625 67.890625 
L 3.40625 65.296875 
C 9.296875 65.296875 10.203125 64.703125 10.203125 59.921875 
L 10.203125 6.859375 
C 10.203125 3.09375 9.796875 2.59375 3.40625 2.59375 
L 3.40625 0 
C 5.796875 0.1875 10.203125 0.1875 12.703125 0.1875 
C 15.296875 0.1875 19.703125 0.1875 22.09375 0 
L 22.09375 2.59375 
C 15.703125 2.59375 15.296875 2.984375 15.296875 6.859375 
z
" id="CMR17-108"/>
     <path d="M 38.09375 23.484375 
C 38.5 23.890625 38.5 24.09375 38.5 25.09375 
C 38.5 35.171875 33.09375 44 21.703125 44 
C 11.09375 44 2.703125 33.984375 2.703125 21.78125 
C 2.703125 8.65625 12.203125 -1 22.796875 -1 
C 34 -1 38.40625 9.671875 38.40625 11.796875 
C 38.40625 12.5 37.796875 12.5 37.59375 12.5 
C 36.90625 12.5 36.796875 12.296875 36.40625 11.078125 
C 34.203125 4.21875 28.703125 0.796875 23.5 0.796875 
C 19.203125 0.796875 14.90625 3.21875 12.203125 7.65625 
C 9.09375 12.796875 9.09375 18.75 9.09375 23.484375 
z
M 9.203125 25 
C 9.90625 39.234375 17.59375 42.390625 21.59375 42.390625 
C 28.40625 42.390625 33 36.0625 33.09375 25 
z
" id="CMR17-101"/>
     <path d="M 39.203125 33.6875 
C 48.703125 35.59375 56.703125 42.015625 56.703125 50.046875 
C 56.703125 59.46875 46.09375 68 32.09375 68 
L 5.203125 68 
L 5.203125 65.390625 
C 12.09375 65.390625 13.203125 65.390625 13.203125 60.875 
L 13.203125 6.6875 
C 13.203125 2.1875 12.09375 2.1875 5.203125 2.1875 
L 5.203125 -0.40625 
C 8.09375 -0.203125 13.296875 -0.203125 16.40625 -0.203125 
C 19.5 -0.203125 24.703125 -0.203125 27.59375 -0.40625 
L 27.59375 2.1875 
C 20.703125 2.1875 19.59375 2.1875 19.59375 6.6875 
L 19.59375 33 
L 31.296875 33 
C 37 33 40.203125 30.6875 41.59375 29.390625 
C 45.59375 25.5 45.59375 22.796875 45.59375 16 
C 45.59375 9.296875 45.59375 5.890625 48.59375 2.5 
C 52.40625 -1.609375 57.5 -2 59.703125 -2 
C 67.09375 -2 68.203125 6.296875 68.203125 8 
C 68.203125 8.59375 68.203125 9.296875 67.296875 9.296875 
C 66.5 9.296875 66.40625 8.6875 66.40625 8.296875 
C 65.90625 1.796875 63 -0.40625 59.90625 -0.40625 
C 54.40625 -0.40625 53.796875 5.890625 53.203125 12 
C 52.90625 14.09375 52.703125 15.59375 52.5 17.796875 
C 51.90625 22.796875 51.09375 30.09375 39.203125 33.6875 
z
M 31 34.59375 
L 19.59375 34.59375 
L 19.59375 61.484375 
C 19.59375 64.890625 19.796875 65.390625 23.796875 65.390625 
L 31.09375 65.390625 
C 39.40625 65.390625 49.09375 62.484375 49.09375 50.046875 
C 49.09375 37.09375 38.5 34.59375 31 34.59375 
z
" id="CMR17-82"/>
     <path d="M 11.09375 18.203125 
C 13 16.6875 16.296875 15 20.296875 15 
C 28.203125 15 35 21.234375 35 29.609375 
C 35 32.234375 34.203125 36.265625 31.203125 39.390625 
C 34 42.390625 38.09375 43.390625 40.40625 43.390625 
C 40.796875 43.390625 41.40625 43.390625 41.90625 43.09375 
C 41.5 42.984375 40.59375 42.59375 40.59375 40.984375 
C 40.59375 39.6875 41.5 38.796875 42.796875 38.796875 
C 44.296875 38.796875 45.09375 39.796875 45.09375 41.09375 
C 45.09375 42.984375 43.59375 45 40.40625 45 
C 36.40625 45 32.90625 43.09375 30.09375 40.484375 
C 27.09375 43.1875 23.5 44.1875 20.296875 44.1875 
C 12.40625 44.1875 5.59375 37.984375 5.59375 29.609375 
C 5.59375 23.859375 8.90625 20.21875 9.90625 19.21875 
C 6.90625 15.6875 6.90625 11.59375 6.90625 11.09375 
C 6.90625 8.5 7.90625 4.6875 11.296875 2.59375 
C 6.09375 1.28125 2 -2.875 2 -8.078125 
C 2 -15.5625 11.5 -21 22.90625 -21 
C 33.90625 -21 43.796875 -15.765625 43.796875 -7.96875 
C 43.796875 6 29 6 21.296875 6 
C 19 6 14.90625 6 14.40625 6.09375 
C 11.296875 6.59375 9.203125 9.390625 9.203125 12.890625 
C 9.203125 13.796875 9.203125 16 11.09375 18.203125 
z
M 20.296875 16.6875 
C 11.5 16.6875 11.5 27.59375 11.5 29.609375 
C 11.5 31.625 11.5 42.484375 20.296875 42.484375 
C 29.09375 42.484375 29.09375 31.625 29.09375 29.609375 
C 29.09375 27.59375 29.09375 16.6875 20.296875 16.6875 
z
M 22.90625 -19.3125 
C 12.90625 -19.3125 6 -13.796875 6 -8.078125 
C 6 -4.859375 7.703125 -1.84375 9.90625 -0.171875 
C 12.40625 1.59375 13.40625 1.59375 20.203125 1.59375 
C 28.40625 1.59375 39.796875 1.59375 39.796875 -8.078125 
C 39.796875 -13.796875 32.90625 -19.3125 22.90625 -19.3125 
z
" id="CMR17-103"/>
     <path d="M 43.09375 21.1875 
C 43.09375 34 33.796875 44 22.90625 44 
C 12 44 2.703125 34 2.703125 21.1875 
C 2.703125 8.59375 12 -1 22.90625 -1 
C 33.796875 -1 43.09375 8.59375 43.09375 21.1875 
z
M 22.90625 0.796875 
C 18.203125 0.796875 14.203125 3.59375 11.90625 7.5 
C 9.40625 12 9.09375 17.59375 9.09375 22 
C 9.09375 26.1875 9.296875 31.390625 11.90625 35.890625 
C 13.90625 39.1875 17.796875 42.390625 22.90625 42.390625 
C 27.40625 42.390625 31.203125 39.890625 33.59375 36.390625 
C 36.703125 31.6875 36.703125 25.09375 36.703125 22 
C 36.703125 18.09375 36.5 12.09375 33.796875 7.296875 
C 31 2.6875 26.703125 0.796875 22.90625 0.796875 
z
" id="CMR17-111"/>
     <path d="M 41.5 30.53125 
C 41.5 35.65625 40.5 44 28.703125 44 
C 20.796875 44 16.703125 37.875 15.203125 33.84375 
L 15.09375 33.84375 
L 15.09375 44 
L 3.296875 42.890625 
L 3.296875 40.28125 
C 9.203125 40.28125 10.09375 39.6875 10.09375 34.859375 
L 10.09375 6.921875 
C 10.09375 3.09375 9.703125 2.59375 3.296875 2.59375 
L 3.296875 0 
C 5.703125 0.1875 10.09375 0.1875 12.703125 0.1875 
C 15.296875 0.1875 19.796875 0.1875 22.203125 0 
L 22.203125 2.59375 
C 15.796875 2.59375 15.40625 3 15.40625 6.921875 
L 15.40625 26.21875 
C 15.40625 35.453125 21 42.390625 28 42.390625 
C 35.40625 42.390625 36.203125 35.765625 36.203125 30.9375 
L 36.203125 6.921875 
C 36.203125 3.09375 35.796875 2.59375 29.40625 2.59375 
L 29.40625 0 
C 31.796875 0.1875 36.203125 0.1875 38.796875 0.1875 
C 41.40625 0.1875 45.90625 0.1875 48.296875 0 
L 48.296875 2.59375 
C 41.90625 2.59375 41.5 3 41.5 6.921875 
z
" id="CMR17-110"/>
    </defs>
    <g transform="translate(64.994392 9.257143)scale(0.08 -0.08)">
     <use transform="scale(0.996264)" xlink:href="#CMR17-86"/>
     <use transform="translate(69.07243 0)scale(0.996264)" xlink:href="#CMR17-105"/>
     <use transform="translate(93.943488 0)scale(0.996264)" xlink:href="#CMR17-115"/>
     <use transform="translate(129.744826 0)scale(0.996264)" xlink:href="#CMR17-105"/>
     <use transform="translate(154.615884 0)scale(0.996264)" xlink:href="#CMR17-98"/>
     <use transform="translate(205.511254 0)scale(0.996264)" xlink:href="#CMR17-108"/>
     <use transform="translate(230.382313 0)scale(0.996264)" xlink:href="#CMR17-101"/>
     <use transform="translate(300.943939 0)scale(0.996264)" xlink:href="#CMR17-82"/>
     <use transform="translate(368.735041 0)scale(0.996264)" xlink:href="#CMR17-101"/>
     <use transform="translate(409.220702 0)scale(0.996264)" xlink:href="#CMR17-103"/>
     <use transform="translate(454.911179 0)scale(0.996264)" xlink:href="#CMR17-105"/>
     <use transform="translate(479.782238 0)scale(0.996264)" xlink:href="#CMR17-111"/>
     <use transform="translate(525.472715 0)scale(0.996264)" xlink:href="#CMR17-110"/>
    </g>
   </g>
  </g>
  <g id="axes_2">
   <g id="line2d_8">
    <path clip-path="url(#pfdbfc82d94)" d="M 34.453733 139.418182 
L 36.757733 139.340763 
L 39.061733 139.109726 
L 41.365733 138.728715 
L 43.669733 138.203738 
L 45.973733 137.543076 
L 48.277733 136.757147 
L 50.581733 135.858345 
L 52.885733 134.860845 
L 55.189733 133.780378 
L 57.493733 132.633985 
L 59.797733 131.439744 
L 62.101733 130.216489 
L 64.405733 128.983511 
L 66.709733 127.760256 
L 69.013733 126.566015 
L 71.317733 125.419622 
L 73.621733 124.339155 
L 75.925733 123.341655 
L 78.229733 122.442853 
L 80.533733 121.656924 
L 82.837733 120.996262 
L 85.141733 120.471285 
L 87.445733 120.090274 
L 89.749733 119.859237 
L 92.053733 119.781818 
L 94.357733 119.859237 
L 96.661733 120.090274 
L 98.965733 120.471285 
L 101.269733 120.996262 
L 103.573733 121.656924 
L 105.877733 122.442853 
L 108.181733 123.341655 
L 110.485733 124.339155 
L 112.789733 125.419622 
L 115.093733 126.566015 
L 117.397733 127.760256 
L 119.701733 128.983511 
L 122.005733 130.216489 
L 124.309733 131.439744 
L 126.613733 132.633985 
L 128.917733 133.780378 
L 131.221733 134.860845 
L 133.525733 135.858345 
L 135.829733 136.757147 
L 138.133733 137.543076 
L 140.437733 138.203738 
L 142.741733 138.728715 
L 145.045733 139.109726 
L 147.349733 139.340763 
L 149.653733 139.418182 
L 151.957733 139.340763 
L 154.261733 139.109726 
L 156.565733 138.728715 
L 158.869733 138.203738 
L 161.173733 137.543076 
L 163.477733 136.757147 
L 165.781733 135.858345 
L 168.085733 134.860845 
L 170.389733 133.780378 
L 172.693733 132.633985 
L 174.997733 131.439744 
L 177.301733 130.216489 
L 179.605733 128.983511 
L 181.909733 127.760256 
L 184.213733 126.566015 
L 186.517733 125.419622 
L 188.821733 124.339155 
L 191.125733 123.341655 
L 193.429733 122.442853 
L 195.733733 121.656924 
L 198.037733 120.996262 
L 200.341733 120.471285 
L 202.645733 120.090274 
L 204.949733 119.859237 
L 207.253733 119.781818 
L 209.557733 119.859237 
L 211.861733 120.090274 
L 214.165733 120.471285 
L 216.469733 120.996262 
L 218.773733 121.656924 
L 221.077733 122.442853 
L 223.381733 123.341655 
L 225.685733 124.339155 
L 227.989733 125.419622 
L 230.293733 126.566015 
L 232.597733 127.760256 
L 234.901733 128.983511 
L 237.205733 130.216489 
L 239.509733 131.439744 
L 241.813733 132.633985 
L 244.117733 133.780378 
L 246.421733 134.860845 
L 248.725733 135.858345 
L 251.029733 136.757147 
L 253.333733 137.543076 
L 255.637733 138.203738 
L 257.941733 138.728715 
L 260.245733 139.109726 
L 262.549733 139.340763 
L 264.853733 139.418182 
" style="fill:none;stroke:#000000;stroke-linecap:square;stroke-width:1.5;"/>
   </g>
  </g>
  <g id="axes_3">
   <g id="PathCollection_1">
    <defs>
     <path d="M 0 1.118034 
C 0.296506 1.118034 0.580908 1.000231 0.790569 0.790569 
C 1.000231 0.580908 1.118034 0.296506 1.118034 0 
C 1.118034 -0.296506 1.000231 -0.580908 0.790569 -0.790569 
C 0.580908 -1.000231 0.296506 -1.118034 0 -1.118034 
C -0.296506 -1.118034 -0.580908 -1.000231 -0.790569 -0.790569 
C -1.000231 -0.580908 -1.118034 -0.296506 -1.118034 0 
C -1.118034 0.296506 -1.000231 0.580908 -0.790569 0.790569 
C -0.580908 1.000231 -0.296506 1.118034 0 1.118034 
z
" id="mca00a7877c" style="stroke:#000000;"/>
    </defs>
    <g clip-path="url(#pf9db7a5eae)">
     <use style="stroke:#000000;" x="92.053733" xlink:href="#mca00a7877c" y="134.899605"/>
    </g>
   </g>
   <g id="PathCollection_2">
    <g clip-path="url(#pf9db7a5eae)">
     <use style="stroke:#000000;" x="100.340682" xlink:href="#mca00a7877c" y="135.950087"/>
    </g>
   </g>
   <g id="PathCollection_3">
    <g clip-path="url(#pf9db7a5eae)">
     <use style="stroke:#000000;" x="109.862547" xlink:href="#mca00a7877c" y="138.700285"/>
    </g>
   </g>
   <g id="PathCollection_4">
    <g clip-path="url(#pf9db7a5eae)">
     <use style="stroke:#000000;" x="121.382547" xlink:href="#mca00a7877c" y="142.099715"/>
    </g>
   </g>
   <g id="PathCollection_5">
    <g clip-path="url(#pf9db7a5eae)">
     <use style="stroke:#000000;" x="134.900682" xlink:href="#mca00a7877c" y="144.849913"/>
    </g>
   </g>
   <g id="PathCollection_6">
    <g clip-path="url(#pf9db7a5eae)">
     <use style="stroke:#000000;" x="149.653733" xlink:href="#mca00a7877c" y="145.900395"/>
    </g>
   </g>
   <g id="PathCollection_7">
    <g clip-path="url(#pf9db7a5eae)">
     <use style="stroke:#000000;" x="164.406784" xlink:href="#mca00a7877c" y="144.849913"/>
    </g>
   </g>
   <g id="PathCollection_8">
    <g clip-path="url(#pf9db7a5eae)">
     <use style="stroke:#000000;" x="177.924919" xlink:href="#mca00a7877c" y="142.099715"/>
    </g>
   </g>
   <g id="PathCollection_9">
    <g clip-path="url(#pf9db7a5eae)">
     <use style="stroke:#000000;" x="189.444919" xlink:href="#mca00a7877c" y="138.700285"/>
    </g>
   </g>
   <g id="PathCollection_10">
    <g clip-path="url(#pf9db7a5eae)">
     <use style="stroke:#000000;" x="198.966784" xlink:href="#mca00a7877c" y="135.950087"/>
    </g>
   </g>
   <g id="PathCollection_11">
    <g clip-path="url(#pf9db7a5eae)">
     <use style="stroke:#000000;" x="207.253733" xlink:href="#mca00a7877c" y="134.899605"/>
    </g>
   </g>
   <g id="line2d_9">
    <path clip-path="url(#pf9db7a5eae)" d="M 92.053733 140.4 
L 92.053733 134.899605 
" style="fill:none;stroke:#000000;stroke-linecap:square;stroke-width:1.5;"/>
   </g>
   <g id="line2d_10">
    <path clip-path="url(#pf9db7a5eae)" d="M 103.573733 140.4 
L 100.340682 135.950087 
" style="fill:none;stroke:#000000;stroke-linecap:square;stroke-width:1.5;"/>
   </g>
   <g id="line2d_11">
    <path clip-path="url(#pf9db7a5eae)" d="M 115.093733 140.4 
L 109.862547 138.700285 
" style="fill:none;stroke:#000000;stroke-linecap:square;stroke-width:1.5;"/>
   </g>
   <g id="line2d_12">
    <path clip-path="url(#pf9db7a5eae)" d="M 126.613733 140.4 
L 121.382547 142.099715 
" style="fill:none;stroke:#000000;stroke-linecap:square;stroke-width:1.5;"/>
   </g>
   <g id="line2d_13">
    <path clip-path="url(#pf9db7a5eae)" d="M 138.133733 140.4 
L 134.900682 144.849913 
" style="fill:none;stroke:#000000;stroke-linecap:square;stroke-width:1.5;"/>
   </g>
   <g id="line2d_14">
    <path clip-path="url(#pf9db7a5eae)" d="M 149.653733 140.4 
L 149.653733 145.900395 
" style="fill:none;stroke:#000000;stroke-linecap:square;stroke-width:1.5;"/>
   </g>
   <g id="line2d_15">
    <path clip-path="url(#pf9db7a5eae)" d="M 161.173733 140.4 
L 164.406784 144.849913 
" style="fill:none;stroke:#000000;stroke-linecap:square;stroke-width:1.5;"/>
   </g>
   <g id="line2d_16">
    <path clip-path="url(#pf9db7a5eae)" d="M 172.693733 140.4 
L 177.924919 142.099715 
" style="fill:none;stroke:#000000;stroke-linecap:square;stroke-width:1.5;"/>
   </g>
   <g id="line2d_17">
    <path clip-path="url(#pf9db7a5eae)" d="M 184.213733 140.4 
L 189.444919 138.700285 
" style="fill:none;stroke:#000000;stroke-linecap:square;stroke-width:1.5;"/>
   </g>
   <g id="line2d_18">
    <path clip-path="url(#pf9db7a5eae)" d="M 195.733733 140.4 
L 198.966784 135.950087 
" style="fill:none;stroke:#000000;stroke-linecap:square;stroke-width:1.5;"/>
   </g>
   <g id="line2d_19">
    <path clip-path="url(#pf9db7a5eae)" d="M 207.253733 140.4 
L 207.253733 134.899605 
" style="fill:none;stroke:#000000;stroke-linecap:square;stroke-width:1.5;"/>
   </g>
  </g>
  <g id="axes_4">
   <g id="patch_13">
    <path d="M 34.453733 237.6 
L 264.853733 237.6 
L 264.853733 172.8 
L 34.453733 172.8 
z
" style="fill:none;"/>
   </g>
   <g id="matplotlib.axis_3">
    <g id="xtick_4">
     <g id="line2d_20">
      <defs>
       <path d="M 0 0 
L 0 -3.5 
" id="mcd3a0ef824" style="stroke:#000000;stroke-width:0.8;"/>
      </defs>
      <g>
       <use style="stroke:#000000;stroke-width:0.8;" x="34.453733" xlink:href="#mcd3a0ef824" y="237.6"/>
      </g>
     </g>
     <g id="text_4">
      <!-- $-2\pi$ -->
      <defs>
       <path d="M 65.90625 23 
C 67.59375 23 69.40625 23 69.40625 25 
C 69.40625 27 67.59375 27 65.90625 27 
L 11.796875 27 
C 10.09375 27 8.296875 27 8.296875 25 
C 8.296875 23 10.09375 23 11.796875 23 
z
" id="CMSY10-0"/>
       <path d="M 41.703125 15.46875 
L 39.90625 15.46875 
C 38.90625 8.390625 38.09375 7.1875 37.703125 6.59375 
C 37.203125 5.796875 30 5.796875 28.59375 5.796875 
L 9.40625 5.796875 
C 13 9.6875 20 16.765625 28.5 24.9375 
C 34.59375 30.71875 41.703125 37.5 41.703125 47.390625 
C 41.703125 59.1875 32.296875 66 21.796875 66 
C 10.796875 66 4.09375 56.296875 4.09375 47.296875 
C 4.09375 43.390625 7 42.890625 8.203125 42.890625 
C 9.203125 42.890625 12.203125 43.484375 12.203125 46.984375 
C 12.203125 50.09375 9.59375 51 8.203125 51 
C 7.59375 51 7 50.890625 6.59375 50.6875 
C 8.5 59.1875 14.296875 63.390625 20.40625 63.390625 
C 29.09375 63.390625 34.796875 56.5 34.796875 47.390625 
C 34.796875 38.703125 29.703125 31.21875 24 24.734375 
L 4.09375 2.296875 
L 4.09375 0 
L 39.296875 0 
z
" id="CMR17-50"/>
       <path d="M 25.90625 37.59375 
L 37.203125 37.59375 
C 34.5 26.421875 32.796875 19.140625 32.796875 11.171875 
C 32.796875 9.765625 32.796875 -1 36.90625 -1 
C 39 -1 40.796875 0.890625 40.796875 2.59375 
C 40.796875 3.09375 40.796875 3.28125 40.09375 4.78125 
C 37.40625 11.65625 37.40625 20.234375 37.40625 20.9375 
C 37.40625 21.53125 37.40625 28.625 39.5 37.59375 
L 50.703125 37.59375 
C 52 37.59375 55.296875 37.59375 55.296875 40.796875 
C 55.296875 43 53.40625 43 51.59375 43 
L 18.703125 43 
C 16.40625 43 13 43 8.40625 38.09375 
C 5.796875 35.203125 2.59375 29.921875 2.59375 29.3125 
C 2.59375 28.71875 3.09375 28.515625 3.703125 28.515625 
C 4.40625 28.515625 4.5 28.8125 5 29.421875 
C 10.203125 37.59375 15.40625 37.59375 17.90625 37.59375 
L 23.59375 37.59375 
C 21.40625 30.109375 18.90625 21.4375 10.703125 3.984375 
C 9.90625 2.390625 9.90625 2.1875 9.90625 1.59375 
C 9.90625 -0.5 11.703125 -1 12.59375 -1 
C 15.5 -1 16.296875 1.59375 17.5 5.78125 
C 19.09375 10.859375 19.09375 11.0625 20.09375 15.0625 
z
" id="CMMI12-25"/>
      </defs>
      <g transform="translate(24.328761 248.710347)scale(0.11 -0.11)">
       <use transform="scale(0.996264)" xlink:href="#CMSY10-0"/>
       <use transform="translate(77.487468 0)scale(0.996264)" xlink:href="#CMR17-50"/>
       <use transform="translate(123.177945 0)scale(0.996264)" xlink:href="#CMMI12-25"/>
      </g>
     </g>
    </g>
    <g id="xtick_5">
     <g id="line2d_21">
      <g>
       <use style="stroke:#000000;stroke-width:0.8;" x="92.053733" xlink:href="#mcd3a0ef824" y="237.6"/>
      </g>
     </g>
     <g id="text_5">
      <!-- $-\pi$ -->
      <g transform="translate(84.668494 248.710347)scale(0.11 -0.11)">
       <use transform="scale(0.996264)" xlink:href="#CMSY10-0"/>
       <use transform="translate(77.487468 0)scale(0.996264)" xlink:href="#CMMI12-25"/>
      </g>
     </g>
    </g>
    <g id="xtick_6">
     <g id="line2d_22">
      <g>
       <use style="stroke:#000000;stroke-width:0.8;" x="149.653733" xlink:href="#mcd3a0ef824" y="237.6"/>
      </g>
     </g>
     <g id="text_6">
      <!-- $0$ -->
      <defs>
       <path d="M 42 31.84375 
C 42 37.96875 41.90625 48.421875 37.703125 56.453125 
C 34 63.484375 28.09375 66 22.90625 66 
C 18.09375 66 12 63.78125 8.203125 56.5625 
C 4.203125 49.015625 3.796875 39.671875 3.796875 31.84375 
C 3.796875 26.109375 3.90625 17.375 7 9.734375 
C 11.296875 -0.609375 19 -2 22.90625 -2 
C 27.5 -2 34.5 -0.109375 38.59375 9.4375 
C 41.59375 16.375 42 24.5 42 31.84375 
z
M 22.90625 -0.40625 
C 16.5 -0.40625 12.703125 5.125 11.296875 12.75 
C 10.203125 18.6875 10.203125 27.328125 10.203125 32.953125 
C 10.203125 40.6875 10.203125 47.109375 11.5 53.234375 
C 13.40625 61.78125 19 64.390625 22.90625 64.390625 
C 27 64.390625 32.296875 61.671875 34.203125 53.4375 
C 35.5 47.71875 35.59375 40.984375 35.59375 32.953125 
C 35.59375 26.421875 35.59375 18.375 34.40625 12.453125 
C 32.296875 1.5 26.40625 -0.40625 22.90625 -0.40625 
z
" id="CMR17-48"/>
      </defs>
      <g transform="translate(146.913999 248.710347)scale(0.11 -0.11)">
       <use transform="scale(0.996264)" xlink:href="#CMR17-48"/>
      </g>
     </g>
    </g>
    <g id="xtick_7">
     <g id="line2d_23">
      <g>
       <use style="stroke:#000000;stroke-width:0.8;" x="207.253733" xlink:href="#mcd3a0ef824" y="237.6"/>
      </g>
     </g>
     <g id="text_7">
      <!-- $\pi$ -->
      <g transform="translate(204.130299 248.710347)scale(0.11 -0.11)">
       <use transform="scale(0.996264)" xlink:href="#CMMI12-25"/>
      </g>
     </g>
    </g>
    <g id="xtick_8">
     <g id="line2d_24">
      <g>
       <use style="stroke:#000000;stroke-width:0.8;" x="264.853733" xlink:href="#mcd3a0ef824" y="237.6"/>
      </g>
     </g>
     <g id="text_8">
      <!-- $2\pi$ -->
      <g transform="translate(258.990565 248.710347)scale(0.11 -0.11)">
       <use transform="scale(0.996264)" xlink:href="#CMR17-50"/>
       <use transform="translate(45.690477 0)scale(0.996264)" xlink:href="#CMMI12-25"/>
      </g>
     </g>
    </g>
    <g id="text_9">
     <!-- $\theta$ (rad) -->
     <defs>
      <path d="M 30.59375 -24.40625 
C 30.59375 -24.3125 30.59375 -24.109375 30.296875 -23.8125 
C 25.703125 -19.109375 13.40625 -6.296875 13.40625 24.9375 
C 13.40625 56.171875 25.5 68.875 30.40625 73.890625 
C 30.40625 73.984375 30.59375 74.1875 30.59375 74.484375 
C 30.59375 74.796875 30.296875 75 29.90625 75 
C 28.796875 75 20.296875 67.578125 15.40625 56.5625 
C 10.40625 45.453125 9 34.65625 9 25.046875 
C 9 17.828125 9.703125 5.625 15.703125 -7.296875 
C 20.5 -17.703125 28.703125 -25 29.90625 -25 
C 30.40625 -25 30.59375 -24.8125 30.59375 -24.40625 
z
" id="CMR17-40"/>
      <path d="M 15 23.703125 
C 15 33.34375 19.09375 42.390625 26.59375 42.390625 
C 27.296875 42.390625 28 42.296875 28.703125 41.984375 
C 28.703125 41.984375 26.5 41.28125 26.5 38.671875 
C 26.5 36.265625 28.40625 35.265625 29.90625 35.265625 
C 31.09375 35.265625 33.296875 35.96875 33.296875 38.78125 
C 33.296875 41.984375 30.09375 44 26.703125 44 
C 19.09375 44 15.796875 36.5625 14.796875 33.046875 
L 14.703125 33.046875 
L 14.703125 44 
L 3.09375 42.890625 
L 3.09375 40.28125 
C 9 40.28125 9.90625 39.6875 9.90625 34.859375 
L 9.90625 6.921875 
C 9.90625 3.09375 9.5 2.59375 3.09375 2.59375 
L 3.09375 0 
C 5.5 0.1875 10.09375 0.1875 12.703125 0.1875 
C 15.59375 0.1875 20.703125 0.1875 23.40625 0 
L 23.40625 2.59375 
C 16.203125 2.59375 15 2.59375 15 7.109375 
z
" id="CMR17-114"/>
      <path d="M 36 25.875 
C 36 32 36 35.546875 31.796875 39.59375 
C 28.09375 42.984375 23.796875 44 20.40625 44 
C 12.5 44 6.796875 37.625 6.796875 30.890625 
C 6.796875 27.1875 9.796875 27 10.40625 27 
C 11.703125 27 14 27.796875 14 30.59375 
C 14 33.09375 12.09375 34.1875 10.40625 34.1875 
C 10 34.1875 9.5 34.09375 9.203125 34 
C 11.296875 40.53125 16.703125 42.390625 20.203125 42.390625 
C 25.203125 42.390625 30.703125 37.828125 30.703125 29.296875 
L 30.703125 25.5 
C 24.796875 25.296875 17.703125 24.5 12.09375 21.453125 
C 5.796875 17.921875 4 12.84375 4 9 
C 4 1.203125 13 -1 18.296875 -1 
C 23.796875 -1 28.90625 2.109375 31.09375 7.890625 
C 31.296875 3.421875 34.09375 -0.609375 38.5 -0.609375 
C 40.59375 -0.609375 45.90625 0.796875 45.90625 8.796875 
L 45.90625 14.46875 
L 44.09375 14.46875 
L 44.09375 8.703125 
C 44.09375 2.515625 41.40625 1.703125 40.09375 1.703125 
C 36 1.703125 36 6.96875 36 11.4375 
z
M 30.703125 13.859375 
C 30.703125 5.046875 24.5 0.59375 19 0.59375 
C 14 0.59375 10.09375 4.34375 10.09375 9 
C 10.09375 12.046875 11.40625 17.40625 17.203125 20.65625 
C 22 23.390625 27.5 23.796875 30.703125 24 
z
" id="CMR17-97"/>
      <path d="M 29.203125 67.890625 
L 29.203125 65.296875 
C 35.09375 65.296875 36 64.703125 36 60.046875 
L 36 37.046875 
C 35.59375 37.546875 31.5 44 23.40625 44 
C 13.203125 44 3.296875 34.8125 3.296875 21.5 
C 3.296875 8.265625 12.59375 -1 22.40625 -1 
C 30.90625 -1 35.296875 5.640625 35.796875 6.34375 
L 35.796875 -1 
L 47.90625 -0.203125 
L 47.90625 2.40625 
C 42 2.40625 41.09375 3.015625 41.09375 7.859375 
L 41.09375 69 
z
M 35.796875 11.90625 
C 35.796875 8.875 34 6.140625 31.703125 4.125 
C 28.296875 1.09375 24.90625 0.59375 23 0.59375 
C 20.09375 0.59375 9.703125 2.109375 9.703125 21.390625 
C 9.703125 41.1875 21.296875 42.390625 23.90625 42.390625 
C 28.5 42.390625 32.203125 39.765625 34.5 36.140625 
C 35.796875 34.015625 35.796875 33.703125 35.796875 31.890625 
z
" id="CMR17-100"/>
      <path d="M 26.296875 24.9375 
C 26.296875 32.140625 25.59375 44.359375 19.59375 57.265625 
C 14.796875 67.6875 6.59375 75 5.40625 75 
C 5.09375 75 4.703125 74.890625 4.703125 74.390625 
C 4.703125 74.1875 4.796875 74.09375 4.90625 73.890625 
C 9.703125 68.875 21.90625 56.171875 21.90625 25.046875 
C 21.90625 -6.1875 9.796875 -18.90625 4.90625 -23.90625 
C 4.796875 -24.109375 4.703125 -24.203125 4.703125 -24.40625 
C 4.703125 -24.90625 5.09375 -25 5.40625 -25 
C 6.5 -25 15 -17.609375 19.90625 -6.59375 
C 24.90625 4.515625 26.296875 15.328125 26.296875 24.9375 
z
" id="CMR17-41"/>
     </defs>
     <g transform="translate(132.910931 263.060419)scale(0.11 -0.11)">
      <use transform="scale(0.996264)" xlink:href="#CMMI12-18"/>
      <use transform="translate(78.245474 0)scale(0.996264)" xlink:href="#CMR17-40"/>
      <use transform="translate(113.526242 0)scale(0.996264)" xlink:href="#CMR17-114"/>
      <use transform="translate(148.80701 0)scale(0.996264)" xlink:href="#CMR17-97"/>
      <use transform="translate(194.497487 0)scale(0.996264)" xlink:href="#CMR17-100"/>
      <use transform="translate(245.392857 0)scale(0.996264)" xlink:href="#CMR17-41"/>
     </g>
    </g>
   </g>
   <g id="matplotlib.axis_4">
    <g id="ytick_4">
     <g id="line2d_25">
      <defs>
       <path d="M 0 0 
L 3.5 0 
" id="md678bd9e16" style="stroke:#000000;stroke-width:0.8;"/>
      </defs>
      <g>
       <use style="stroke:#000000;stroke-width:0.8;" x="34.453733" xlink:href="#md678bd9e16" y="231.12"/>
      </g>
     </g>
     <g id="text_10">
      <!-- $-6$ -->
      <defs>
       <path d="M 10.59375 34.34375 
C 10.59375 58 21.796875 63.6875 28.296875 63.6875 
C 30.40625 63.6875 35.5 63.265625 37.5 59.09375 
C 35.90625 59.09375 32.90625 59.09375 32.90625 55.59375 
C 32.90625 52.890625 35.09375 52 36.5 52 
C 37.40625 52 40.09375 52.390625 40.09375 55.796875 
C 40.09375 62.296875 35.09375 66 28.203125 66 
C 16.296875 66 3.796875 53.296875 3.796875 31.421875 
C 3.796875 4.015625 15.09375 -2 23.09375 -2 
C 32.796875 -2 42 6.734375 42 20.234375 
C 42 32.828125 33.90625 42 23.703125 42 
C 17.59375 42 13.09375 37.96875 10.59375 30.921875 
z
M 23.09375 0.390625 
C 10.796875 0.390625 10.796875 18.9375 10.796875 22.65625 
C 10.796875 29.90625 14.203125 40.390625 23.5 40.390625 
C 25.203125 40.390625 30.09375 40.390625 33.40625 33.4375 
C 35.203125 29.515625 35.203125 25.375 35.203125 20.34375 
C 35.203125 14.90625 35.203125 10.875 33.09375 6.84375 
C 30.90625 2.703125 27.703125 0.390625 23.09375 0.390625 
z
" id="CMR17-54"/>
      </defs>
      <g transform="translate(16.950657 234.925173)scale(0.11 -0.11)">
       <use transform="scale(0.996264)" xlink:href="#CMSY10-0"/>
       <use transform="translate(77.487468 0)scale(0.996264)" xlink:href="#CMR17-54"/>
      </g>
     </g>
    </g>
    <g id="ytick_5">
     <g id="line2d_26">
      <g>
       <use style="stroke:#000000;stroke-width:0.8;" x="34.453733" xlink:href="#md678bd9e16" y="205.2"/>
      </g>
     </g>
     <g id="text_11">
      <!-- $0$ -->
      <g transform="translate(25.474266 209.005173)scale(0.11 -0.11)">
       <use transform="scale(0.996264)" xlink:href="#CMR17-48"/>
      </g>
     </g>
    </g>
    <g id="ytick_6">
     <g id="line2d_27">
      <g>
       <use style="stroke:#000000;stroke-width:0.8;" x="34.453733" xlink:href="#md678bd9e16" y="179.28"/>
      </g>
     </g>
     <g id="text_12">
      <!-- $6$ -->
      <g transform="translate(25.474266 183.085173)scale(0.11 -0.11)">
       <use transform="scale(0.996264)" xlink:href="#CMR17-54"/>
      </g>
     </g>
    </g>
    <g id="text_13">
     <!-- $\dot{\theta}$ (rad/s) -->
     <defs>
      <path d="M 16.5 61.890625 
C 16.5 64.296875 14.59375 66 12.5 66 
C 10.09375 66 8.40625 64.09375 8.40625 61.890625 
C 8.40625 59.484375 10.296875 57.796875 12.40625 57.796875 
C 14.796875 57.796875 16.5 59.6875 16.5 61.890625 
z
" id="CMR17-95"/>
      <path d="M 40.703125 71.484375 
C 41.203125 72.78125 41.203125 72.984375 41.203125 73.1875 
C 41.203125 74.390625 40.296875 75 39.5 75 
C 38.296875 75 37.90625 74.1875 37.5 72.984375 
L 5.09375 -21.5 
C 4.59375 -22.8125 4.59375 -23 4.59375 -23.203125 
C 4.59375 -24.40625 5.5 -25 6.296875 -25 
C 7.5 -25 7.90625 -24.203125 8.296875 -23 
z
" id="CMR17-47"/>
     </defs>
     <g transform="translate(10.210931 226.84388)rotate(-90)scale(0.11 -0.11)">
      <use transform="translate(19.778385 26.296621)scale(0.996264)" xlink:href="#CMR17-95"/>
      <use transform="scale(0.996264)" xlink:href="#CMMI12-18"/>
      <use transform="translate(78.245474 0)scale(0.996264)" xlink:href="#CMR17-40"/>
      <use transform="translate(113.526242 0)scale(0.996264)" xlink:href="#CMR17-114"/>
      <use transform="translate(148.80701 0)scale(0.996264)" xlink:href="#CMR17-97"/>
      <use transform="translate(194.497487 0)scale(0.996264)" xlink:href="#CMR17-100"/>
      <use transform="translate(245.392857 0)scale(0.996264)" xlink:href="#CMR17-47"/>
      <use transform="translate(291.083334 0)scale(0.996264)" xlink:href="#CMR17-115"/>
      <use transform="translate(326.884671 0)scale(0.996264)" xlink:href="#CMR17-41"/>
     </g>
    </g>
   </g>
   <g id="LineCollection_1">
    <path clip-path="url(#pb4826aa276)" d="M 264.853733 218.861012 
L 262.549733 218.752857 
L 260.216719 218.4192 
L 257.941733 217.865363 
L 255.813802 217.1232 
L 253.764022 216.1728 
L 251.88038 215.0496 
L 250.270669 213.84 
L 248.894994 212.544 
L 247.743003 211.1616 
L 246.867242 209.7792 
L 246.207455 208.3104 
L 245.823764 206.928 
L 245.660685 205.5456 
L 245.714818 204.1632 
L 245.987556 202.7808 
L 246.484812 201.3984 
L 247.218723 200.016 
L 248.210645 198.6336 
L 249.416933 197.328349 
L 250.916693 196.0416 
L 252.642533 194.862937 
L 254.485733 193.863401 
L 256.559333 192.990348 
L 258.690675 192.3264 
L 260.936933 191.853184 
L 263.240933 191.591951 
L 264.853733 191.538988 
L 264.853733 191.538988 
" style="fill:none;stroke:#b2b2b2;stroke-opacity:0.7;stroke-width:1.5;"/>
    <path clip-path="url(#pb4826aa276)" d="M 34.453733 191.538988 
L 36.757733 191.647143 
L 39.090747 191.9808 
L 41.365733 192.534637 
L 43.493664 193.2768 
L 45.543444 194.2272 
L 47.427086 195.3504 
L 49.036797 196.56 
L 50.412473 197.856 
L 51.564463 199.2384 
L 52.440224 200.6208 
L 53.100011 202.0896 
L 53.483702 203.472 
L 53.646781 204.8544 
L 53.592649 206.2368 
L 53.31991 207.6192 
L 52.822654 209.0016 
L 52.088743 210.384 
L 51.096821 211.7664 
L 49.890533 213.071651 
L 48.390773 214.3584 
L 46.664933 215.537063 
L 44.821733 216.536599 
L 42.748133 217.409652 
L 40.616792 218.0736 
L 38.370533 218.546816 
L 36.066533 218.808049 
L 34.453733 218.861012 
L 34.453733 218.861012 
" style="fill:none;stroke:#b2b2b2;stroke-opacity:0.7;stroke-width:1.5;"/>
    <path clip-path="url(#pb4826aa276)" d="M 148.962533 218.851329 
L 146.658533 218.677927 
L 144.354533 218.282069 
L 142.02715 217.6416 
L 139.976933 216.85474 
L 137.903333 215.809338 
L 136.060133 214.615472 
L 134.447333 213.289554 
L 133.154461 211.9392 
L 132.127844 210.5568 
L 131.323621 209.088 
L 130.812023 207.7056 
L 130.52539 206.3232 
L 130.457724 204.9408 
L 130.607149 203.5584 
L 130.991333 202.134952 
L 131.575797 200.7936 
L 132.419148 199.4112 
L 133.534249 198.0288 
L 134.908133 196.698299 
L 136.520933 195.458469 
L 138.364133 194.333922 
L 140.402863 193.3632 
L 142.293684 192.672 
L 144.588528 192.0672 
L 146.888933 191.694938 
L 149.192933 191.543292 
L 151.496933 191.608169 
L 153.817396 191.8944 
L 156.139133 192.4128 
L 158.2529 193.104 
L 160.252133 193.975872 
L 162.231048 195.0912 
L 163.938533 196.314378 
L 165.446792 197.6832 
L 166.636341 199.0656 
L 167.544588 200.448 
L 168.202679 201.8304 
L 168.628745 203.2128 
L 168.832825 204.5952 
L 168.819292 205.9776 
L 168.587847 207.36 
L 168.133465 208.7424 
L 167.445275 210.1248 
L 166.503965 211.5072 
L 165.320933 212.844832 
L 163.921612 214.0992 
L 162.231048 215.3088 
L 160.408612 216.3456 
L 158.408933 217.236177 
L 156.335333 217.932269 
L 154.031333 218.467772 
L 151.727333 218.773458 
L 149.423333 218.859936 
L 148.962533 218.851329 
L 148.962533 218.851329 
" style="fill:none;stroke:#b2b2b2;stroke-opacity:0.7;stroke-width:1.5;"/>
   </g>
   <g id="LineCollection_2">
    <path clip-path="url(#pb4826aa276)" d="M 264.853733 224.519581 
L 262.088933 224.409649 
L 259.324133 224.078544 
L 256.537582 223.5168 
L 253.794533 222.732294 
L 251.029733 221.695014 
L 248.469289 220.4928 
L 246.046363 219.1104 
L 243.887333 217.636416 
L 241.881018 216 
L 240.200933 214.349202 
L 238.818533 212.687973 
L 237.751779 211.0752 
L 236.934511 209.4336 
L 236.406154 207.8784 
L 236.115706 206.3232 
L 236.0596 204.8544 
L 236.215449 203.3856 
L 236.61157 201.8304 
L 237.245973 200.2752 
L 238.127333 198.709804 
L 239.31097 197.0784 
L 240.788581 195.4368 
L 242.580051 193.7952 
L 244.611803 192.24 
L 246.902581 190.7712 
L 249.416933 189.433398 
L 251.951333 188.330538 
L 254.716133 187.377809 
L 257.480933 186.66698 
L 260.245733 186.186287 
L 263.010533 185.929214 
L 264.853733 185.880419 
L 264.853733 185.880419 
" style="fill:none;stroke:#b2b2b2;stroke-opacity:0.7;stroke-width:1.5;"/>
    <path clip-path="url(#pb4826aa276)" d="M 34.453733 185.880419 
L 37.218533 185.990351 
L 39.983333 186.321456 
L 42.769884 186.8832 
L 45.512933 187.667706 
L 48.277733 188.704986 
L 50.838177 189.9072 
L 53.261103 191.2896 
L 55.420133 192.763584 
L 57.426448 194.4 
L 59.106533 196.050798 
L 60.488933 197.712027 
L 61.555687 199.3248 
L 62.372955 200.9664 
L 62.901313 202.5216 
L 63.19176 204.0768 
L 63.247866 205.5456 
L 63.092017 207.0144 
L 62.695896 208.5696 
L 62.061493 210.1248 
L 61.180133 211.690196 
L 59.996496 213.3216 
L 58.518886 214.9632 
L 56.727415 216.6048 
L 54.695664 218.16 
L 52.404885 219.6288 
L 49.890533 220.966602 
L 47.356133 222.069462 
L 44.591333 223.022191 
L 41.826533 223.73302 
L 39.061733 224.213713 
L 36.296933 224.470786 
L 34.453733 224.519581 
L 34.453733 224.519581 
" style="fill:none;stroke:#b2b2b2;stroke-opacity:0.7;stroke-width:1.5;"/>
    <path clip-path="url(#pb4826aa276)" d="M 147.810533 224.470786 
L 145.003765 224.208 
L 142.280933 223.73302 
L 139.516133 223.022191 
L 136.751333 222.069462 
L 134.130605 220.9248 
L 131.682533 219.617067 
L 129.378533 218.13664 
L 127.277205 216.5184 
L 125.461733 214.834373 
L 123.972502 213.1488 
L 122.811597 211.5072 
L 121.923636 209.8656 
L 121.314533 208.262338 
L 120.972545 206.7552 
L 120.853733 205.2 
L 120.95971 203.7312 
L 121.302978 202.176 
L 121.884337 200.6208 
L 122.705384 199.0656 
L 123.837105 197.424 
L 125.252519 195.7824 
L 126.974823 194.1408 
L 128.928722 192.5856 
L 131.221733 191.058053 
L 133.606967 189.7344 
L 136.060133 188.608584 
L 138.824933 187.5927 
L 141.589733 186.82275 
L 144.400418 186.2784 
L 147.119333 185.972783 
L 149.884133 185.881182 
L 152.758175 186.0192 
L 155.447291 186.3648 
L 158.178533 186.934658 
L 160.951491 187.7472 
L 163.708133 188.803274 
L 166.242533 190.014036 
L 168.598498 191.376 
L 170.850533 192.936902 
L 172.817577 194.5728 
L 174.455906 196.2144 
L 175.795016 197.856 
L 176.854384 199.4976 
L 177.643429 201.1392 
L 178.145324 202.6944 
L 178.409362 204.2496 
L 178.440532 205.7184 
L 178.259747 207.1872 
L 177.837196 208.7424 
L 177.176216 210.2976 
L 176.27444 211.8528 
L 175.054806 213.4944 
L 173.545731 215.136 
L 171.718862 216.7776 
L 169.646751 218.3328 
L 167.306184 219.8016 
L 164.815445 221.0976 
L 162.161485 222.2208 
L 159.560933 223.09049 
L 156.796133 223.781785 
L 154.031333 224.243576 
L 151.266533 224.482215 
L 148.501733 224.500511 
L 147.810533 224.470786 
L 147.810533 224.470786 
" style="fill:none;stroke:#b2b2b2;stroke-opacity:0.7;stroke-width:1.5;"/>
   </g>
   <g id="LineCollection_3">
    <path clip-path="url(#pb4826aa276)" d="M 264.853733 235.746983 
L 261.397733 235.638581 
L 257.941733 235.314903 
L 254.255333 234.737719 
L 250.568933 233.930635 
L 246.652133 232.837145 
L 242.504933 231.43943 
L 237.896933 229.640356 
L 232.367333 227.230218 
L 219.695333 221.61073 
L 216.239333 220.384108 
L 213.474533 219.618804 
L 210.940133 219.133471 
L 208.636133 218.89973 
L 206.332133 218.878224 
L 204.028133 219.070237 
L 201.493733 219.513994 
L 198.728933 220.241504 
L 195.503333 221.345832 
L 191.356133 223.042584 
L 184.213733 226.283923 
L 176.999713 229.4784 
L 172.167448 231.3792 
L 167.855333 232.837145 
L 163.938533 233.930635 
L 160.192772 234.7488 
L 156.565733 235.314903 
L 153.109733 235.638581 
L 149.653733 235.746983 
L 146.197733 235.638581 
L 142.741733 235.314903 
L 139.055333 234.737719 
L 135.368933 233.930635 
L 131.452133 232.837145 
L 127.304933 231.43943 
L 122.696933 229.640356 
L 117.167333 227.230218 
L 104.495333 221.61073 
L 101.039333 220.384108 
L 98.274533 219.618804 
L 95.740133 219.133471 
L 93.436133 218.89973 
L 91.132133 218.878224 
L 88.828133 219.070237 
L 86.293733 219.513994 
L 83.528933 220.241504 
L 80.303333 221.345832 
L 76.156133 223.042584 
L 69.013733 226.283923 
L 61.799713 229.4784 
L 56.967448 231.3792 
L 52.655333 232.837145 
L 48.738533 233.930635 
L 44.992772 234.7488 
L 41.365733 235.314903 
L 37.909733 235.638581 
L 34.453733 235.746983 
L 34.453733 235.746983 
" style="fill:none;stroke:#b2b2b2;stroke-opacity:0.7;stroke-width:1.5;"/>
    <path clip-path="url(#pb4826aa276)" d="M 34.453733 174.653017 
L 37.909733 174.761419 
L 41.365733 175.085097 
L 45.052133 175.662281 
L 48.738533 176.469365 
L 52.655333 177.562855 
L 56.802533 178.96057 
L 61.410533 180.759644 
L 66.940133 183.169782 
L 79.612133 188.78927 
L 83.068133 190.015892 
L 85.832933 190.781196 
L 88.367333 191.266529 
L 90.671333 191.50027 
L 92.975333 191.521776 
L 95.279333 191.329763 
L 97.813733 190.886006 
L 100.578533 190.158496 
L 103.804133 189.054168 
L 107.951333 187.357416 
L 115.093733 184.116077 
L 122.307753 180.9216 
L 127.140018 179.0208 
L 131.452133 177.562855 
L 135.368933 176.469365 
L 139.114695 175.6512 
L 142.741733 175.085097 
L 146.197733 174.761419 
L 149.653733 174.653017 
L 153.109733 174.761419 
L 156.565733 175.085097 
L 160.252133 175.662281 
L 163.938533 176.469365 
L 167.855333 177.562855 
L 172.002533 178.96057 
L 176.610533 180.759644 
L 182.140133 183.169782 
L 194.812133 188.78927 
L 198.268133 190.015892 
L 201.032933 190.781196 
L 203.567333 191.266529 
L 205.871333 191.50027 
L 208.175333 191.521776 
L 210.479333 191.329763 
L 213.013733 190.886006 
L 215.778533 190.158496 
L 219.004133 189.054168 
L 223.151333 187.357416 
L 230.293733 184.116077 
L 237.507753 180.9216 
L 242.340018 179.0208 
L 246.652133 177.562855 
L 250.568933 176.469365 
L 254.314695 175.6512 
L 257.941733 175.085097 
L 261.397733 174.761419 
L 264.853733 174.653017 
L 264.853733 174.653017 
" style="fill:none;stroke:#b2b2b2;stroke-opacity:0.7;stroke-width:1.5;"/>
   </g>
   <g id="LineCollection_4">
    <path clip-path="url(#pb4826aa276)" d="M 264.853733 243.839238 
L 260.936933 243.7293 
L 256.896793 243.3888 
L 252.872933 242.831071 
L 248.495333 241.997117 
L 243.656933 240.838829 
L 237.896933 239.217677 
L 221.077733 234.314562 
L 216.930533 233.436238 
L 213.244133 232.881035 
L 209.788133 232.587152 
L 206.562533 232.526904 
L 203.336933 232.676908 
L 199.880933 233.061576 
L 196.145445 233.712 
L 192.023781 234.6624 
L 186.978533 236.060731 
L 168.085733 241.528204 
L 163.38305 242.5248 
L 159.100133 243.207074 
L 154.952933 243.638387 
L 151.036133 243.825525 
L 147.119333 243.793136 
L 143.202533 243.542186 
L 139.033794 243.0432 
L 134.677733 242.284344 
L 129.986877 241.2288 
L 124.770533 239.824757 
L 116.83524 237.4272 
L 108.872933 235.080332 
L 104.264933 233.94477 
L 100.302462 233.1936 
L 96.892133 232.75752 
L 93.436133 232.541444 
L 90.210533 232.556512 
L 86.754533 232.803909 
L 83.273446 233.28 
L 79.381733 234.047022 
L 74.773733 235.205879 
L 68.552933 237.033305 
L 56.783405 240.5376 
L 51.503333 241.845736 
L 46.895333 242.753985 
L 42.748133 243.350273 
L 38.600933 243.716009 
L 34.684133 243.838857 
L 34.453733 243.839238 
L 34.453733 243.839238 
" style="fill:none;stroke:#b2b2b2;stroke-opacity:0.7;stroke-width:1.5;"/>
    <path clip-path="url(#pb4826aa276)" d="M 34.453733 166.560762 
L 38.370533 166.6707 
L 42.410673 167.0112 
L 46.434533 167.568929 
L 50.812133 168.402883 
L 55.650533 169.561171 
L 61.410533 171.182323 
L 78.229733 176.085438 
L 82.376933 176.963762 
L 86.063333 177.518965 
L 89.519333 177.812848 
L 92.744933 177.873096 
L 95.970533 177.723092 
L 99.426533 177.338424 
L 103.162022 176.688 
L 107.283685 175.7376 
L 112.328933 174.339269 
L 131.221733 168.871796 
L 135.924416 167.8752 
L 140.207333 167.192926 
L 144.354533 166.761613 
L 148.271333 166.574475 
L 152.188133 166.606864 
L 156.104933 166.857814 
L 160.273672 167.3568 
L 164.629733 168.115656 
L 169.320589 169.1712 
L 174.536933 170.575243 
L 182.472226 172.9728 
L 190.434533 175.319668 
L 195.042533 176.45523 
L 199.005005 177.2064 
L 202.415333 177.64248 
L 205.871333 177.858556 
L 209.096933 177.843488 
L 212.552933 177.596091 
L 216.03402 177.12 
L 219.925733 176.352978 
L 224.533733 175.194121 
L 230.754533 173.366695 
L 242.524061 169.8624 
L 247.804133 168.554264 
L 252.412133 167.646015 
L 256.559333 167.049727 
L 260.706533 166.683991 
L 264.623333 166.561143 
L 264.853733 166.560762 
L 264.853733 166.560762 
" style="fill:none;stroke:#b2b2b2;stroke-opacity:0.7;stroke-width:1.5;"/>
   </g>
   <g id="LineCollection_5">
    <path clip-path="url(#pb4826aa276)" d="M 120.853733 248.4 
L 109.03726 245.7216 
L 104.034533 244.821747 
L 99.656933 244.246479 
L 95.509733 243.924696 
L 91.592933 243.840763 
L 87.676133 243.976013 
L 83.528933 244.348624 
L 79.151333 244.970068 
L 74.082533 245.923281 
L 67.170533 247.474191 
L 63.253733 248.4 
L 63.253733 248.4 
" style="fill:none;stroke:#b2b2b2;stroke-opacity:0.7;stroke-width:1.5;"/>
    <path clip-path="url(#pb4826aa276)" d="M 236.053733 248.4 
L 224.23726 245.7216 
L 219.234533 244.821747 
L 214.856933 244.246479 
L 210.709733 243.924696 
L 206.792933 243.840763 
L 202.876133 243.976013 
L 198.728933 244.348624 
L 194.351333 244.970068 
L 189.282533 245.923281 
L 182.370533 247.474191 
L 178.453733 248.4 
L 178.453733 248.4 
" style="fill:none;stroke:#b2b2b2;stroke-opacity:0.7;stroke-width:1.5;"/>
    <path clip-path="url(#pb4826aa276)" d="M 63.253733 162 
L 75.070206 164.6784 
L 80.072933 165.578253 
L 84.450533 166.153521 
L 88.597733 166.475304 
L 92.514533 166.559237 
L 96.431333 166.423987 
L 100.578533 166.051376 
L 104.956133 165.429932 
L 110.024933 164.476719 
L 116.936933 162.925809 
L 120.853733 162 
L 120.853733 162 
" style="fill:none;stroke:#b2b2b2;stroke-opacity:0.7;stroke-width:1.5;"/>
    <path clip-path="url(#pb4826aa276)" d="M 178.453733 162 
L 190.270206 164.6784 
L 195.272933 165.578253 
L 199.650533 166.153521 
L 203.797733 166.475304 
L 207.714533 166.559237 
L 211.631333 166.423987 
L 215.778533 166.051376 
L 220.156133 165.429932 
L 225.224933 164.476719 
L 232.136933 162.925809 
L 236.053733 162 
L 236.053733 162 
" style="fill:none;stroke:#b2b2b2;stroke-opacity:0.7;stroke-width:1.5;"/>
   </g>
   <g id="patch_14">
    <path clip-path="url(#pb4826aa276)" d="M 185.175636 192.267868 
L 187.470428 188.607768 
L 189.983132 192.732609 
z
" style="stroke:#000000;stroke-linejoin:miter;"/>
   </g>
   <g id="patch_15">
    <path clip-path="url(#pb4826aa276)" d="M 185.175636 218.132132 
L 187.470428 221.792232 
L 182.662932 222.256974 
z
" style="stroke:#000000;stroke-linejoin:miter;"/>
   </g>
   <g id="patch_16">
    <path clip-path="url(#pb4826aa276)" d="M 114.13183 192.267868 
L 111.837038 188.607768 
L 116.644534 188.143026 
z
" style="stroke:#000000;stroke-linejoin:miter;"/>
   </g>
   <g id="patch_17">
    <path clip-path="url(#pb4826aa276)" d="M 114.13183 218.132132 
L 111.837038 221.792232 
L 109.324334 217.667391 
z
" style="stroke:#000000;stroke-linejoin:miter;"/>
   </g>
   <g id="line2d_28">
    <path clip-path="url(#pb4826aa276)" d="M 34.453733 177.877921 
L 36.757733 177.931835 
L 39.061733 178.093364 
L 41.365733 178.36187 
L 43.669733 178.736294 
L 45.973733 179.215159 
L 48.277733 179.796573 
L 50.581733 180.478244 
L 52.885733 181.25748 
L 55.189733 182.131206 
L 57.493733 183.095974 
L 59.797733 184.147976 
L 62.101733 185.283062 
L 64.405733 186.49675 
L 66.709733 187.784251 
L 69.013733 189.140485 
L 71.317733 190.560098 
L 73.621733 192.037488 
L 75.925733 193.566825 
L 78.229733 195.142072 
L 80.533733 196.757013 
L 82.837733 198.405275 
L 85.141733 200.080353 
L 87.445733 201.775635 
L 89.749733 203.484432 
L 92.053733 205.2 
L 94.357733 203.484432 
L 96.661733 201.775635 
L 98.965733 200.080353 
L 101.269733 198.405275 
L 103.573733 196.757013 
L 105.877733 195.142072 
L 108.181733 193.566825 
L 110.485733 192.037488 
L 112.789733 190.560098 
L 115.093733 189.140485 
L 117.397733 187.784251 
L 119.701733 186.49675 
L 122.005733 185.283062 
L 124.309733 184.147976 
L 126.613733 183.095974 
L 128.917733 182.131206 
L 131.221733 181.25748 
L 133.525733 180.478244 
L 135.829733 179.796573 
L 138.133733 179.215159 
L 140.437733 178.736294 
L 142.741733 178.36187 
L 145.045733 178.093364 
L 147.349733 177.931835 
L 149.653733 177.877921 
L 151.957733 177.931835 
L 154.261733 178.093364 
L 156.565733 178.36187 
L 158.869733 178.736294 
L 161.173733 179.215159 
L 163.477733 179.796573 
L 165.781733 180.478244 
L 168.085733 181.25748 
L 170.389733 182.131206 
L 172.693733 183.095974 
L 174.997733 184.147976 
L 177.301733 185.283062 
L 179.605733 186.49675 
L 181.909733 187.784251 
L 184.213733 189.140485 
L 186.517733 190.560098 
L 188.821733 192.037488 
L 191.125733 193.566825 
L 193.429733 195.142072 
L 195.733733 196.757013 
L 198.037733 198.405275 
L 200.341733 200.080353 
L 202.645733 201.775635 
L 204.949733 203.484432 
L 207.253733 205.2 
L 209.557733 203.484432 
L 211.861733 201.775635 
L 214.165733 200.080353 
L 216.469733 198.405275 
L 218.773733 196.757013 
L 221.077733 195.142072 
L 223.381733 193.566825 
L 225.685733 192.037488 
L 227.989733 190.560098 
L 230.293733 189.140485 
L 232.597733 187.784251 
L 234.901733 186.49675 
L 237.205733 185.283062 
L 239.509733 184.147976 
L 241.813733 183.095974 
L 244.117733 182.131206 
L 246.421733 181.25748 
L 248.725733 180.478244 
L 251.029733 179.796573 
L 253.333733 179.215159 
L 255.637733 178.736294 
L 257.941733 178.36187 
L 260.245733 178.093364 
L 262.549733 177.931835 
L 264.853733 177.877921 
" style="fill:none;stroke:#000000;stroke-linecap:square;stroke-width:1.5;"/>
   </g>
   <g id="line2d_29">
    <path clip-path="url(#pb4826aa276)" d="M 34.453733 232.522079 
L 36.757733 232.468165 
L 39.061733 232.306636 
L 41.365733 232.03813 
L 43.669733 231.663706 
L 45.973733 231.184841 
L 48.277733 230.603427 
L 50.581733 229.921756 
L 52.885733 229.14252 
L 55.189733 228.268794 
L 57.493733 227.304026 
L 59.797733 226.252024 
L 62.101733 225.116938 
L 64.405733 223.90325 
L 66.709733 222.615749 
L 69.013733 221.259515 
L 71.317733 219.839902 
L 73.621733 218.362512 
L 75.925733 216.833175 
L 78.229733 215.257928 
L 80.533733 213.642987 
L 82.837733 211.994725 
L 85.141733 210.319647 
L 87.445733 208.624365 
L 89.749733 206.915568 
L 92.053733 205.2 
L 94.357733 206.915568 
L 96.661733 208.624365 
L 98.965733 210.319647 
L 101.269733 211.994725 
L 103.573733 213.642987 
L 105.877733 215.257928 
L 108.181733 216.833175 
L 110.485733 218.362512 
L 112.789733 219.839902 
L 115.093733 221.259515 
L 117.397733 222.615749 
L 119.701733 223.90325 
L 122.005733 225.116938 
L 124.309733 226.252024 
L 126.613733 227.304026 
L 128.917733 228.268794 
L 131.221733 229.14252 
L 133.525733 229.921756 
L 135.829733 230.603427 
L 138.133733 231.184841 
L 140.437733 231.663706 
L 142.741733 232.03813 
L 145.045733 232.306636 
L 147.349733 232.468165 
L 149.653733 232.522079 
L 151.957733 232.468165 
L 154.261733 232.306636 
L 156.565733 232.03813 
L 158.869733 231.663706 
L 161.173733 231.184841 
L 163.477733 230.603427 
L 165.781733 229.921756 
L 168.085733 229.14252 
L 170.389733 228.268794 
L 172.693733 227.304026 
L 174.997733 226.252024 
L 177.301733 225.116938 
L 179.605733 223.90325 
L 181.909733 222.615749 
L 184.213733 221.259515 
L 186.517733 219.839902 
L 188.821733 218.362512 
L 191.125733 216.833175 
L 193.429733 215.257928 
L 195.733733 213.642987 
L 198.037733 211.994725 
L 200.341733 210.319647 
L 202.645733 208.624365 
L 204.949733 206.915568 
L 207.253733 205.2 
L 209.557733 206.915568 
L 211.861733 208.624365 
L 214.165733 210.319647 
L 216.469733 211.994725 
L 218.773733 213.642987 
L 221.077733 215.257928 
L 223.381733 216.833175 
L 225.685733 218.362512 
L 227.989733 219.839902 
L 230.293733 221.259515 
L 232.597733 222.615749 
L 234.901733 223.90325 
L 237.205733 225.116938 
L 239.509733 226.252024 
L 241.813733 227.304026 
L 244.117733 228.268794 
L 246.421733 229.14252 
L 248.725733 229.921756 
L 251.029733 230.603427 
L 253.333733 231.184841 
L 255.637733 231.663706 
L 257.941733 232.03813 
L 260.245733 232.306636 
L 262.549733 232.468165 
L 264.853733 232.522079 
" style="fill:none;stroke:#000000;stroke-linecap:square;stroke-width:1.5;"/>
   </g>
   <g id="patch_18">
    <path d="M 34.453733 237.6 
L 34.453733 172.8 
" style="fill:none;stroke:#000000;stroke-linecap:square;stroke-linejoin:miter;stroke-width:0.5;"/>
   </g>
   <g id="patch_19">
    <path d="M 264.853733 237.6 
L 264.853733 172.8 
" style="fill:none;stroke:#000000;stroke-linecap:square;stroke-linejoin:miter;stroke-width:0.5;"/>
   </g>
   <g id="patch_20">
    <path d="M 34.453733 237.6 
L 264.853733 237.6 
" style="fill:none;stroke:#000000;stroke-linecap:square;stroke-linejoin:miter;stroke-width:0.5;"/>
   </g>
   <g id="patch_21">
    <path d="M 34.453733 172.8 
L 264.853733 172.8 
" style="fill:none;stroke:#000000;stroke-linecap:square;stroke-linejoin:miter;stroke-width:0.5;"/>
   </g>
   <g id="patch_22">
    <path clip-path="url(#pb4826aa276)" d="M 97.554128 239.76 
L 201.753338 239.76 
L 201.753338 170.64 
L 97.554128 170.64 
z
" style="fill:#ece7f2;opacity:0.8;stroke:#000000;stroke-linejoin:miter;"/>
   </g>
   <g id="patch_23">
    <path clip-path="url(#pb4826aa276)" d="M -17.645872 239.76 
L 86.553338 239.76 
L 86.553338 170.64 
L -17.645872 170.64 
z
" style="fill:#ece7f2;opacity:0.8;stroke:#000000;stroke-linejoin:miter;"/>
   </g>
   <g id="patch_24">
    <path clip-path="url(#pb4826aa276)" d="M 212.754128 239.76 
L 316.953338 239.76 
L 316.953338 170.64 
L 212.754128 170.64 
z
" style="fill:#ece7f2;opacity:0.8;stroke:#000000;stroke-linejoin:miter;"/>
   </g>
  </g>
 </g>
 <defs>
  <clipPath id="p5c498a7cf2">
   <rect height="129.6" width="99.692308" x="42.207579" y="0"/>
  </clipPath>
  <clipPath id="pfdbfc82d94">
   <rect height="21.6" width="230.4" x="34.453733" y="118.8"/>
  </clipPath>
  <clipPath id="pf9db7a5eae">
   <rect height="18.334649" width="230.4" x="34.453733" y="131.232675"/>
  </clipPath>
  <clipPath id="pb4826aa276">
   <rect height="64.8" width="230.4" x="34.453733" y="172.8"/>
  </clipPath>
 </defs>
</svg>
